<?xml version="1.0" encoding="utf-8"?>
<!-- Generator: Adobe Illustrator 20.1.0, SVG Export Plug-In . SVG Version: 6.00 Build 0)  -->
<svg version="1.1" id="Layer_1" xmlns="http://www.w3.org/2000/svg" xmlns:xlink="http://www.w3.org/1999/xlink" x="0px" y="0px"
	 viewBox="0 0 68 68" style="enable-background:new 0 0 68 68;" xml:space="preserve">
<style type="text/css">
	.st0{fill:#FFFFFF;}
</style>
<path class="st0" d="M0,0v68h68V0H0z M61.8,49H49.5V32.4c0-5.1-1.7-7-5-7c-4,0-5.6,2.9-5.6,6.9v10.2h3.9v6.4H30.5V32.4
	c0-5.1-1.7-7-5-7c-4,0-5.6,2.9-5.6,6.9v10.2h5.6v6.4h-18v-6.4h3.9V26H7.5v-6.4h12.3V24c1.8-3.1,4.8-5,8.9-5c4.2,0,8.1,2,9.5,6.3
	c1.6-3.9,4.9-6.3,9.5-6.3c5.3,0,10.1,3.2,10.1,10.1v13.5h0.1h3.9V49z"/>
</svg>
