<?xml version="1.0" standalone="no"?>
<!DOCTYPE svg PUBLIC "-//W3C//DTD SVG 1.1//EN" "http://www.w3.org/Graphics/SVG/1.1/DTD/svg11.dtd" >
<svg xmlns="http://www.w3.org/2000/svg" xmlns:xlink="http://www.w3.org/1999/xlink" version="1.1">
<metadata>
Created by FontXChange 20190801 at Thu Nov  5 22:56:30 2020
 By run
Copyright 2015 Google LLC. All Rights Reserved.
</metadata>
<defs>
<font id="NotoSansMono-Regular" horiz-adv-x="600" >
  <font-face 
    font-family="NotoSansMono"
    font-weight="400"
    font-stretch="normal"
    units-per-em="1000"
    panose-1="2 11 5 9 4 5 4 2 2 4"
    ascent="800"
    descent="-200"
    x-height="536"
    cap-height="714"
    bbox="-616 -389 1800 1229"
    underline-thickness="50"
    underline-position="-125"
    unicode-range="U+000D-1F67F"
  />
<missing-glyph 
d="M94 0v714h411v-714h-411zM145 51h309v612h-309v-612z" />
    <glyph glyph-name=".notdef" 
d="M94 0v714h411v-714h-411zM145 51h309v612h-309v-612z" />
    <glyph glyph-name="NULL" horiz-adv-x="0" 
 />
    <glyph glyph-name="CR" unicode="&#xd;" 
 />
    <glyph glyph-name="space" unicode=" " 
 />
    <glyph glyph-name="exclam" unicode="!" 
d="M262 202l-16 512h109l-16 -512h-77zM300 -10c-17.333 0 -32 5.33301 -44 16s-18 28 -18 52c0 25.333 6 43 18 53s26.667 15 44 15s32 -5 44 -15s18 -27.667 18 -53c0 -24 -6 -41.333 -18 -52s-26.667 -16 -44 -16z" />
    <glyph glyph-name="quotedbl" unicode="&#x22;" 
d="M365 456l-20 258h95l-20 -258h-55zM180 456l-20 258h95l-20 -258h-55z" />
    <glyph glyph-name="numbersign" unicode="#" 
d="M101 0l38 209h-119v67h132l32 160h-127v66h139l40 212h72l-40 -212h124l40 212h69l-40 -212h119v-66h-132l-31 -160h129v-67h-142l-41 -209h-71l41 209h-123l-39 -209h-70zM223 276h123l31 160h-123z" />
    <glyph glyph-name="dollar" unicode="$" 
d="M263 34c-33.333 0.666992 -65.1689 3.83203 -95.502 9.49902s-56.166 13.5 -77.499 23.5v85c22.667 -10.667 49.5 -20 80.5 -28s61.833 -12.333 92.5 -13v217c-40 13.333 -73.667 27.833 -101 43.5s-47.833 35 -61.5 58s-20.5 51.5 -20.5 85.5
c0 33.333 7.5 62.333 22.5 87s36.167 44.167 63.5 58.5s59.666 22.833 96.999 25.5v73h64v-72c33.333 -0.666992 63.333 -4.5 90 -11.5s52 -15.5 76 -25.5l-27 -74c-21.333 8.66699 -43.666 16.167 -66.999 22.5s-47.333 10.5 -72 12.5v-216
c42.667 -12.667 78.334 -26.167 107.001 -40.5s50.167 -32.666 64.5 -54.999s21.5 -51.5 21.5 -87.5c0 -46.667 -16.833 -85.5 -50.5 -116.5s-81.167 -50.167 -142.5 -57.5v-96h-64v92zM326.997 115.998c37.333 4.66699 64.499 15.5 81.499 32.5s25.5 38.833 25.5 65.5
c0 16.667 -3.16699 30.5 -9.5 41.5s-17.166 20.5 -32.499 28.5s-37 15.667 -65 23v-191zM262.996 608.998c-22 -2 -40.167 -7.16797 -54.5 -15.501s-25 -19.166 -32 -32.499s-10.5 -28.666 -10.5 -45.999c0 -16.667 3 -31.167 9 -43.5s16 -22.833 30 -31.5
s33.333 -16.334 58 -23.001v192z" />
    <glyph glyph-name="percent" unicode="%" 
d="M83 0l356 714h77l-356 -714h-77zM456 -9c-40.667 0 -74.501 14.833 -101.501 44.5s-40.5 71.5 -40.5 125.5s12.833 95.667 38.5 125s60.834 44 105.501 44c40.667 0 74.5 -14.667 101.5 -44s40.5 -71 40.5 -125s-13 -95.833 -39 -125.5s-61 -44.5 -105 -44.5zM456.999 49
c22.667 0 39.667 9 51 27s17 46.333 17 85c0 39.333 -5.66699 67.5 -17 84.5s-28.333 25.5 -51 25.5s-39.834 -8.5 -51.501 -25.5s-17.5 -45.167 -17.5 -84.5c0 -38.667 5.83301 -67 17.5 -85s28.834 -27 51.501 -27zM141.999 383c-40.667 0 -74.501 14.833 -101.501 44.5
s-40.5 71.5 -40.5 125.5s12.833 95.667 38.5 125s60.834 44 105.501 44c40.667 0 74.5 -14.667 101.5 -44s40.5 -71 40.5 -125s-13 -95.833 -39 -125.5s-61 -44.5 -105 -44.5zM142.998 441c22.667 0 39.667 9 51 27s17 46.333 17 85c0 39.333 -5.66699 67.5 -17 84.5
s-28.333 25.5 -51 25.5s-39.834 -8.5 -51.501 -25.5s-17.5 -45.167 -17.5 -84.5c0 -38.667 5.83301 -67 17.5 -85s28.834 -27 51.501 -27z" />
    <glyph glyph-name="ampersand" unicode="&#x26;" 
d="M224 -10c-39.333 0 -72.8389 7.99902 -100.506 23.999s-48.667 38.167 -63 66.5s-21.5 60.166 -21.5 95.499c0 38 7.5 71.167 22.5 99.5s34.5 53.666 58.5 75.999s49.667 43.166 77 62.499c15.333 10.667 32.333 24 51 40s35 34.5 49 55.5s21 44.5 21 70.5
c0 24 -6.33301 42.667 -19 56s-29.334 20 -50.001 20s-37.167 -7 -49.5 -21s-18.5 -33.667 -18.5 -59c0 -17.333 2.83301 -35.333 8.5 -54s13.334 -36.667 23.001 -54s20.167 -33.333 31.5 -48l337 -420h-107l-282 364c-14.667 19.333 -29.167 40.333 -43.5 63
s-26.166 46.834 -35.499 72.501s-14 51.834 -14 78.501c0 44 13.333 79.5 40 106.5s63.334 40.5 110.001 40.5s83.334 -13.5 110.001 -40.5s40 -61.833 40 -104.5c0 -33.333 -7.66699 -63.333 -23 -90s-34.666 -50.5 -57.999 -71.5s-46.666 -40.833 -69.999 -59.5
c-19.333 -15.333 -38.5 -31.5 -57.5 -48.5s-34.667 -36 -47 -57s-18.5 -45.167 -18.5 -72.5c0 -32 9.66699 -59 29 -81s46 -33 80 -33c24.667 0 47.834 5.83301 69.501 17.5s41.5 27.5 59.5 47.5s33.833 42.167 47.5 66.5s25 49.5 34 75.5s15.5 51 19.5 75h83
c-6.66699 -38 -16.5 -74.667 -29.5 -110s-29.167 -68.166 -48.5 -98.499s-41.333 -56.666 -66 -78.999s-52 -39.833 -82 -52.5s-62.333 -19 -97 -19z" />
    <glyph glyph-name="quotesingle" unicode="'" 
d="M272 456l-20 258h95l-20 -258h-55z" />
    <glyph glyph-name="parenleft" unicode="(" 
d="M347 -158c-50.667 58.667 -87.833 125.164 -111.5 199.497s-35.5 151.833 -35.5 232.5c0 81.333 11.833 159.833 35.5 235.5s60.834 143.834 111.501 204.501h83c-46.667 -62.667 -81.834 -131.667 -105.501 -207s-35.5 -152.666 -35.5 -231.999
c0 -77.333 11.833 -153.166 35.5 -227.499s58.5 -142.833 104.5 -205.5h-82z" />
    <glyph glyph-name="parenright" unicode=")" 
d="M253 714c50.667 -58.667 87.833 -125.164 111.5 -199.497s35.5 -151.833 35.5 -232.5c0 -81.333 -11.833 -159.833 -35.5 -235.5s-60.834 -143.834 -111.501 -204.501h-83c46.667 62.667 81.834 131.667 105.501 207s35.5 152.666 35.5 231.999
c0 77.333 -11.833 153.166 -35.5 227.499s-58.5 142.833 -104.5 205.5h82z" />
    <glyph glyph-name="asterisk" unicode="*" 
d="M381 334l-81 155l-80 -154l-74 47l106 134l-162 21l14 75l170 -43l-14 177h79l-12 -177l171 47l15 -82l-161 -20l106 -133z" />
    <glyph glyph-name="plus" unicode="+" 
d="M265 121v196h-185v71h185v197h72v-197h183v-71h-183v-196h-72z" />
    <glyph glyph-name="comma" unicode="," 
d="M211 -140c7.33301 29.333 14.332 59.832 20.999 91.499s13 62.834 19 93.501s10.667 58.667 14 84h107l8 -12c-4.66699 -19.333 -10.667 -39.833 -18 -61.5s-15.166 -43.667 -23.499 -66s-17 -44.5 -26 -66.5s-18.167 -43 -27.5 -63h-74z" />
    <glyph glyph-name="hyphen" unicode="-" 
d="M150 230v80h300v-80h-300z" />
    <glyph glyph-name="period" unicode="." 
d="M300 -10c-17.333 0 -32 5.33301 -44 16s-18 28 -18 52c0 25.333 6 43 18 53s26.667 15 44 15s32 -5 44 -15s18 -27.667 18 -53c0 -24 -6 -41.333 -18 -52s-26.667 -16 -44 -16z" />
    <glyph glyph-name="slash" unicode="/" 
d="M120 0l274 714h86l-274 -714h-86z" />
    <glyph glyph-name="zero" unicode="0" 
d="M299 -10c-55.333 0 -100.668 14.6699 -136.001 44.0029s-61.333 71.5 -78 126.5s-25 120.833 -25 197.5c0 77.333 8 143.166 24 197.499s41.5 96 76.5 125s81.167 43.5 138.5 43.5c56 0 101.833 -14.333 137.5 -43s61.834 -70.334 78.501 -125.001s25 -120.667 25 -198
c0 -58 -4.5 -109.667 -13.5 -155s-23 -83.833 -42 -115.5s-43.833 -55.834 -74.5 -72.501s-67.667 -25 -111 -25zM184.998 100.003l-59 52l280 474l52 -66zM298.998 69.0029c54.667 0 95.001 23.5 121.001 70.5s39 119.833 39 218.5c0 63.333 -5.66699 116.166 -17 158.499
s-28.833 74.333 -52.5 96s-53.834 32.5 -90.501 32.5c-36 0 -65.333 -10.333 -88 -31s-39.5 -52.167 -50.5 -94.5s-16.5 -96.166 -16.5 -161.499c0 -92.667 11.833 -164 35.5 -214s63.5 -75 119.5 -75z" />
    <glyph glyph-name="one" unicode="1" 
d="M283 446c0 18.667 0.166992 38.833 0.5 60.5s0.833008 42.667 1.5 63s1.33398 37.833 2.00098 52.5c-10.667 -6 -20.334 -11 -29.001 -15s-21.667 -10.333 -39 -19l-83 -43l-39 68l199 101h73v-714h-86v446zM133 -0.000976562v60l150 10h86l151 -10v-60h-387z" />
    <glyph glyph-name="two" unicode="2" 
d="M70 0v76.001l190 187c33.333 32.667 61.666 63.167 84.999 91.5s41.166 56.166 53.499 83.499s18.5 56 18.5 86c0 42.667 -11.667 73.5 -35 92.5s-53 28.5 -89 28.5c-31.333 0 -60.833 -6.33301 -88.5 -19s-53.5 -28.667 -77.5 -48l-50 62c18 16 38 30.333 60 43
s46.333 22.667 73 30s55.334 11 86.001 11c42.667 0 79.834 -7.66699 111.501 -23s56.167 -37.5 73.5 -66.5s26 -64.833 26 -107.5c0 -36 -6.5 -70.167 -19.5 -102.5s-31.667 -64 -56 -95s-53.5 -63.167 -87.5 -96.5l-153 -149v-4h354v-80h-475z" />
    <glyph glyph-name="three" unicode="3" 
d="M261 -10c-28.667 0 -59.665 2.83496 -92.998 8.50195s-64.666 15.834 -93.999 30.501v85c29.333 -14.667 61 -25.834 95 -33.501s66.667 -11.5 98 -11.5c58 0 100.333 12.333 127 37s40 57 40 97c0 30.667 -7.16699 55.167 -21.5 73.5s-34.833 31.666 -61.5 39.999
s-59.334 12.5 -98.001 12.5h-74v80h74c34.667 0 63.667 5.5 87 16.5s41.166 26.333 53.499 46s18.5 42.167 18.5 67.5c0 33.333 -10.5 59.333 -31.5 78s-51.833 28 -92.5 28c-34 0 -65.167 -5.83301 -93.5 -17.5s-52.5 -24.167 -72.5 -37.5l-45 61
c25.333 20 56.333 37.167 93 51.5s78 21.5 124 21.5s84.5 -7.66699 115.5 -23s54.333 -36.166 70 -62.499s23.5 -56.833 23.5 -91.5c0 -32 -6.16699 -59.833 -18.5 -83.5s-29.666 -42.834 -51.999 -57.501s-48.5 -24.667 -78.5 -30v-3
c37.333 -4.66699 68.666 -14.334 93.999 -29.001s44.5 -34.167 57.5 -58.5s19.5 -53.5 19.5 -87.5c0 -40 -9.33301 -75.667 -28 -107s-47.334 -56 -86.001 -74s-88.667 -27 -150 -27z" />
    <glyph glyph-name="four" unicode="4" 
d="M360 0v160h-310v74l294 484h102v-481h104v-77h-104v-160h-86zM137 237l222.998 0.000976562v178c0 18 0.166992 37 0.5 57s0.833008 39.667 1.5 59s1.33398 37.166 2.00098 53.499s1.33398 30.166 2.00098 41.499h-4c-4.66699 -12.667 -11.5 -27.667 -20.5 -45
s-16.833 -31.666 -23.5 -42.999z" />
    <glyph glyph-name="five" unicode="5" 
d="M257 -10c-31.333 0 -62.9961 3.33496 -94.9961 10.002s-59.333 16.334 -82 29.001v85c22.667 -14.667 48.667 -25.834 78 -33.501s59.666 -11.5 90.999 -11.5c56 0 99.667 11.833 131 35.5s47 60.167 47 109.5c0 33.333 -7 61.166 -21 83.499
s-33.833 39.166 -59.5 50.499s-55.834 17 -90.501 17c-18.667 0 -38.667 -1.5 -60 -4.5s-40.333 -6.5 -57 -10.5l-44 28l27 336h356v-80h-279l-19 -206c14 3.33301 31.167 5.83301 51.5 7.5s38.166 2.5 53.499 2.5c43.333 0 82.666 -8 117.999 -24s63.5 -40.167 84.5 -72.5
s31.5 -72.833 31.5 -121.5c0 -46.667 -10.167 -87.167 -30.5 -121.5s-50 -61 -89 -80s-86.5 -28.5 -142.5 -28.5z" />
    <glyph glyph-name="six" unicode="6" 
d="M308 -10c-38 0 -72.3359 6.50098 -103.003 19.501s-56.667 32.667 -78 59s-37.833 59.5 -49.5 99.5s-17.5 86.667 -17.5 140c0 51.333 4.5 101.666 13.5 150.999s25.5 94 49.5 134s57.667 71.833 101 95.5s99.333 35.5 168 35.5c13.333 0 28.833 -0.666992 46.5 -2
s31.834 -3.66602 42.501 -6.99902v-79c-11.333 4 -24.666 7 -39.999 9s-30.666 3 -45.999 3c-48 0 -87.667 -7.5 -119 -22.5s-56 -35.5 -74 -61.5s-31 -56.167 -39 -90.5s-12.667 -70.833 -14 -109.5h6c8.66699 16.667 20.667 31.667 36 45s34 23.833 56 31.5
s47 11.5 75 11.5c66.667 0 119.667 -19.333 159 -58s59 -93.334 59 -164.001c0 -49.333 -9.5 -92 -28.5 -128s-45.833 -63.667 -80.5 -83s-75.667 -29 -123 -29zM306.997 65.001c43.333 0 78.666 12.8311 105.999 38.498s41 67.834 41 126.501
c0 49.333 -12.167 87 -36.5 113s-60.166 39 -107.499 39c-32 0 -60.167 -6.66699 -84.5 -20s-43.166 -30.333 -56.499 -51s-20 -42 -20 -64c0 -17.333 2.16699 -34.666 6.5 -51.999s10.666 -33.833 18.999 -49.5s18.833 -29.5 31.5 -41.5s27.5 -21.5 44.5 -28.5
s35.833 -10.5 56.5 -10.5z" />
    <glyph glyph-name="seven" unicode="7" 
d="M174 0l275 634h-389v80h480v-71l-271 -643h-95z" />
    <glyph glyph-name="eight" unicode="8" 
d="M295 -10c-46 0 -85.998 7.66895 -119.998 23.002s-60.333 37.166 -79 65.499s-28 61.833 -28 100.5c0 34 6.66699 63.167 20 87.5s31 45.333 53 63s46.333 32.5 73 44.5c-21.333 12.667 -41.5 27.5 -60.5 44.5s-34.167 36.667 -45.5 59s-17 47.833 -17 76.5
c0 37.333 9.66699 68.666 29 93.999s45 44.333 77 57s66.667 19 104 19s71.666 -6.33301 102.999 -19s56.5 -31.667 75.5 -57s28.5 -56.666 28.5 -93.999c0 -44 -12.833 -79.833 -38.5 -107.5s-57.834 -50.5 -96.501 -68.5c29.333 -14.667 56 -31.167 80 -49.5
s43 -39.5 57 -63.5s21 -52.333 21 -85c0 -36.667 -9.66699 -69.334 -29 -98.001s-46.5 -51.167 -81.5 -67.5s-76.833 -24.5 -125.5 -24.5zM298.002 63.002c47.333 0 83.502 11.498 108.502 34.498s37.5 52.167 37.5 87.5c0 24 -5.83301 44.333 -17.5 61
s-29 32.334 -52 47.001s-52.167 30.334 -87.5 47.001c-26.667 -12 -49.834 -25.5 -69.501 -40.5s-34.834 -32.333 -45.501 -52s-16 -42.167 -16 -67.5c0 -34 11.333 -62 34 -84s58.667 -33 108 -33zM301.004 414c22.667 10 42.999 20.999 60.999 32.999s32.333 26.333 43 43
s16 36.334 16 59.001c0 32.667 -11 57.5 -33 74.5s-51.667 25.5 -89 25.5c-36.667 0 -66 -8.33301 -88 -25s-33 -41.667 -33 -75c0 -24.667 6 -45.334 18 -62.001s27.333 -30.667 46 -42s38.334 -21.666 59.001 -30.999z" />
    <glyph glyph-name="nine" unicode="9" 
d="M217 -10c-15.333 0 -30.9971 0.833008 -46.9971 2.5s-29.667 3.83398 -41 6.50098v79c11.333 -4 24.166 -7 38.499 -9s29.5 -3 45.5 -3c45.333 0 83 7.5 113 22.5s53.833 35.667 71.5 62s30.667 56.5 39 90.5s13.166 70.333 14.499 109h-6
c-8.66699 -16.667 -20.834 -31.667 -36.501 -45s-34.334 -23.833 -56.001 -31.5s-46.5 -11.5 -74.5 -11.5c-66.667 0 -119.667 19.5 -159 58.5s-59 94.833 -59 167.5c0 48.667 9.5 90.5 28.5 125.5s46 62.167 81 81.5s76.5 29 124.5 29c36.667 0 70.167 -6.33301 100.5 -19
s56.333 -32.5 78 -59.5s38.334 -61.5 50.001 -103.5s17.5 -92.333 17.5 -151c0 -36 -2.66699 -72.833 -8 -110.5s-14.833 -73.834 -28.5 -108.501s-32.667 -65.667 -57 -93s-55.333 -49 -93 -65s-83.167 -24 -136.5 -24zM287.003 332c31.333 0 59.334 6.16699 84.001 18.5
s44.167 29.5 58.5 51.5s21.5 47 21.5 75c0 17.333 -3.16699 35.833 -9.5 55.5s-15.833 38.334 -28.5 56.001s-29 32.167 -49 43.5s-43.667 17 -71 17c-44.667 0 -80.334 -13.333 -107.001 -40s-40 -67.334 -40 -122.001c0 -54 12.5 -93.333 37.5 -118s59.5 -37 103.5 -37z
" />
    <glyph glyph-name="colon" unicode=":" 
d="M301 410c-17.333 0 -32 5.33301 -44 16s-18 28 -18 52c0 25.333 6 43 18 53s26.667 15 44 15s31.833 -5 43.5 -15s17.5 -27.667 17.5 -53c0 -24 -5.83301 -41.333 -17.5 -52s-26.167 -16 -43.5 -16zM300 -10c-17.333 0 -32 5.33301 -44 16s-18 28 -18 52
c0 25.333 6 43 18 53s26.667 15 44 15s31.833 -5 43.5 -15s17.5 -27.667 17.5 -53c0 -24 -5.83301 -41.333 -17.5 -52s-26.167 -16 -43.5 -16z" />
    <glyph glyph-name="semicolon" unicode=";" 
d="M211 -140c7.33301 29.333 14.332 59.832 20.999 91.499s13 62.834 19 93.501s10.667 58.667 14 84h107l8 -12c-4.66699 -19.333 -10.667 -39.833 -18 -61.5s-15.166 -43.667 -23.499 -66s-17 -44.5 -26 -66.5s-18.167 -43 -27.5 -63h-74zM322.999 409.999
c-17.333 0 -32 5.33301 -44 16s-18 28 -18 52c0 25.333 6 43 18 53s26.667 15 44 15s32 -5 44 -15s18 -27.667 18 -53c0 -24 -6 -41.333 -18 -52s-26.667 -16 -44 -16z" />
    <glyph glyph-name="less" unicode="&#x3c;" 
d="M510 116v78l-326 157l326 179v78l-420 -235v-50z" />
    <glyph glyph-name="equal" unicode="=" 
d="M70 407v80h460v-80h-460zM70 217v80h460v-80h-460z" />
    <glyph glyph-name="greater" unicode="&#x3e;" 
d="M90 116v78l326 157l-326 179v78l420 -235v-50z" />
    <glyph glyph-name="question" unicode="?" 
d="M230 220c0 25.333 2.99902 47.3301 8.99902 65.9971s16.5 36.5 31.5 53.5s35.167 34.5 60.5 52.5c22.667 16 40.834 31 54.501 45s23.667 29.333 30 46s9.5 37.334 9.5 62.001c0 29.333 -10.833 53.5 -32.5 72.5s-53.167 28.5 -94.5 28.5
c-34.667 0 -65.834 -4.16699 -93.501 -12.5s-55.167 -18.833 -82.5 -31.5l-32 75c27.333 12 56.833 22.833 88.5 32.5s69.834 14.5 114.501 14.5s83.167 -7.16699 115.5 -21.5s57.333 -34.5 75 -60.5s26.5 -57 26.5 -93c0 -31.333 -4 -58.333 -12 -81
s-20.167 -43.167 -36.5 -61.5s-37.5 -37.166 -63.5 -56.499s-45.5 -35.833 -58.5 -49.5s-21.5 -27.167 -25.5 -40.5s-6 -29.666 -6 -48.999v-9h-78v18zM272.999 -10.0029c-17.333 0 -32 5.33301 -44 16s-18 28 -18 52c0 25.333 6 43 18 53s26.667 15 44 15s32 -5 44 -15
s18 -27.667 18 -53c0 -24 -6 -41.333 -18 -52s-26.667 -16 -44 -16z" />
    <glyph glyph-name="at" unicode="@" 
d="M324 -89c-66.667 0 -122.999 15.668 -168.999 47.001s-80.833 75.833 -104.5 133.5s-35.5 125.167 -35.5 202.5c0 61.333 6.5 117.666 19.5 168.999s32.333 95.666 58 132.999s57.5 66.333 95.5 87s81.667 31 131 31c54 0 100.833 -14.333 140.5 -43
s70.5 -69.667 92.5 -123s33 -117 33 -191c0 -30.667 -2.16699 -60.667 -6.5 -90s-11 -56 -20 -80s-21 -43.167 -36 -57.5s-33.5 -21.5 -55.5 -21.5c-22.667 0 -40.334 9 -53.001 27s-20.667 38.333 -24 61h-2c-9.33301 -24.667 -23.333 -45.5 -42 -62.5s-42 -25.5 -70 -25.5
c-40.667 0 -72 17.333 -94 52s-33 80 -33 136c0 44 7 82.833 21 116.5s33.833 60 59.5 79s56.167 28.5 91.5 28.5c24 0 47.667 -2.5 71 -7.5s41.333 -10.167 54 -15.5l-11 -203c-0.666992 -5.33301 -1 -11.5 -1 -18.5v-18.5c0 -34.667 3.66699 -57.667 11 -69
s15.333 -17 24 -17c12 0 21.667 8.5 29 25.5s12.5 39.667 15.5 68s4.5 59.5 4.5 93.5c0 92.667 -18.5 164.167 -55.5 214.5s-85.167 75.5 -144.5 75.5c-50.667 0 -93.5 -14.667 -128.5 -44s-61.333 -70.166 -79 -122.499s-26.5 -113.833 -26.5 -184.5
c0 -65.333 9 -122 27 -170s45 -84.833 81 -110.5s81 -38.5 135 -38.5c33.333 0 64 3.66699 92 11s53.667 16.333 77 27v-65c-24 -12 -49.667 -21.667 -77 -29s-59 -11 -95 -11zM289.001 171.001c24.667 0 42.001 14.166 52.001 42.499s16.333 64.833 19 109.5l7 124
c-6.66699 2.66699 -14.334 5 -23.001 7s-17.667 3 -27 3c-22 0 -39.5 -8 -52.5 -24s-22.5 -36.333 -28.5 -61s-9 -50.667 -9 -78c0 -43.333 5.66699 -74.666 17 -93.999s26.333 -29 45 -29z" />
    <glyph glyph-name="A" unicode="A" 
d="M20 0l232.002 717h95l233 -717h-92l-159 512c-2 8 -4.83301 17.833 -8.5 29.5s-7.33398 24.667 -11.001 39s-7.16699 28.166 -10.5 41.499c-2.66699 -13.333 -5.83398 -27.166 -9.50098 -41.499s-7.16699 -27.5 -10.5 -39.5s-6.33301 -21.667 -9 -29l-159 -512h-91z
M154.002 219l30 80h227l26 -80h-283z" />
    <glyph glyph-name="B" unicode="B" 
d="M95 0l0.00195312 714.002h192c73.333 0 131.333 -13.167 174 -39.5s64 -71.5 64 -135.5c0 -46.667 -11.333 -83.334 -34 -110.001s-54 -43.334 -94 -50.001v-5c27.333 -4.66699 52.166 -13 74.499 -25s40.166 -29.333 53.499 -52s20 -52.667 20 -90
c0 -43.333 -9.16699 -80.5 -27.5 -111.5s-44.5 -54.667 -78.5 -71s-74.667 -24.5 -122 -24.5h-222zM301.002 78.002c57.333 0 97 12 119 36s33 55 33 93c0 26 -4.83301 48.5 -14.5 67.5s-26 33.667 -49 44s-54.5 15.5 -94.5 15.5h-115v-256h121zM295.002 412.002
c50 0 85.667 9.5 107 28.5s32 47.833 32 86.5c0 39.333 -11.5 67.333 -34.5 84s-62.833 25 -119.5 25h-100v-224h115z" />
    <glyph glyph-name="C" unicode="C" 
d="M365 -10c-70 0 -127 15.668 -171 47.001s-76.333 74.5 -97 129.5s-31 118.5 -31 190.5c0 56.667 6.66699 107.5 20 152.5s33 83.5 59 115.5s57.667 56.5 95 73.5s80.333 25.5 129 25.5c34.667 0 67.167 -3.66699 97.5 -11s58.166 -17.666 83.499 -30.999l-34 -73
c-20.667 11.333 -44.167 20 -70.5 26s-51.833 9 -76.5 9c-34 0 -64.167 -6.33301 -90.5 -19s-48.333 -31.167 -66 -55.5s-31.167 -54.333 -40.5 -90s-14 -76.5 -14 -122.5c0 -58.667 7.16699 -109.334 21.5 -152.001s36.833 -75.334 67.5 -98.001s70.667 -34 120 -34
c22.667 0 47.167 2.5 73.5 7.5s52.5 12.833 78.5 23.5v-85c-26.667 -10 -52.167 -17.333 -76.5 -22s-50.166 -7 -77.499 -7z" />
    <glyph glyph-name="D" unicode="D" 
d="M70 0l-0.00195312 714.002h173c63.333 0 118.333 -13.333 165 -40s82.834 -65.834 108.501 -117.501s38.5 -115.834 38.5 -192.501c0 -80 -13.167 -147 -39.5 -201s-64.166 -94.667 -113.499 -122s-109 -41 -179 -41h-153zM213.998 78.002
c85.333 0 148.166 24.001 188.499 72.001s60.5 118.333 60.5 211c0 63.333 -9.16699 115.166 -27.5 155.499s-44.666 70.333 -78.999 90s-75.5 29.5 -123.5 29.5h-73v-558h54z" />
    <glyph glyph-name="E" unicode="E" 
d="M95 0v714h420v-80h-330v-221h311v-80h-311v-253h330v-80h-420z" />
    <glyph glyph-name="F" unicode="F" 
d="M95 0v714h420v-80h-330v-252h311v-80h-311v-302h-90z" />
    <glyph glyph-name="G" unicode="G" 
d="M340 -10c-64.667 0 -118.999 13.4971 -162.999 40.4971s-77 67 -99 120s-33 118.167 -33 195.5c0 80 11.667 148.167 35 204.5s57.833 99.333 103.5 129s101.834 44.5 168.501 44.5c34 0 64.667 -3.66699 92 -11s53.333 -17.666 78 -30.999l-32 -75
c-16.667 10.667 -36.334 19.334 -59.001 26.001s-48.334 10 -77.001 10c-48 0 -88.167 -11.5 -120.5 -34.5s-56.5 -56.167 -72.5 -99.5s-24 -96.333 -24 -159c0 -53.333 6.5 -101.166 19.5 -143.499s34.667 -75.666 65 -99.999s71.166 -36.5 122.499 -36.5
c21.333 0 40 1.66699 56 5s30.333 6.66602 43 9.99902v212h-130v80h217v-350c-24.667 -10 -53.167 -18.667 -85.5 -26s-67.166 -11 -104.499 -11z" />
    <glyph glyph-name="H" unicode="H" 
d="M70 0v714h90v-301h280v301h90v-714h-90v333h-280v-333h-90z" />
    <glyph glyph-name="I" unicode="I" 
d="M110 0v62l144 13v564l-144 13v62h380v-62l-146 -13v-564l146 -13v-62h-380z" />
    <glyph glyph-name="J" unicode="J" 
d="M252 -10c-25.333 0 -52.3301 2.66699 -80.9971 8s-52.334 12.333 -71.001 21v85c15.333 -6.66699 36.666 -13.5 63.999 -20.5s54.333 -10.5 81 -10.5s49.667 5.16699 69 15.5s34.333 26.833 45 49.5s16 53 16 91v485h90v-497c0 -48 -8 -89 -24 -123
s-39.833 -59.833 -71.5 -77.5s-70.834 -26.5 -117.501 -26.5z" />
    <glyph glyph-name="K" unicode="K" 
d="M70 0v713.999h90v-384c11.333 18 23 36.333 35 55s25 37.334 39 56.001l204 273h103l-239 -323l248 -391h-103l-206 330l-81 -93v-237h-90z" />
    <glyph glyph-name="L" unicode="L" 
d="M115 0v714h90v-631h310v-83h-400z" />
    <glyph glyph-name="M" unicode="M" 
d="M50 0l0.00390625 713.999h129l119 -419h3l119 419h130v-714h-85v387c0 13.333 0.166992 26.666 0.5 39.999s0.666016 26.833 0.999023 40.5s0.833008 27.167 1.5 40.5l2 40c0.666992 13.333 1.66699 26.333 3 39s2.66602 25 3.99902 37h-4l-132 -446h-83l-133 447h-4
c1.33301 -10 2.66602 -21 3.99902 -33s2.5 -24.667 3.5 -38s2 -27.166 3 -41.499s1.66699 -28.666 2 -42.999s0.666016 -28.5 0.999023 -42.5s0.5 -27.333 0.5 -40v-387h-85z" />
    <glyph glyph-name="N" unicode="N" 
d="M70 0v714.004h119l260 -595h3c-2 19.333 -3.5 37.833 -4.5 55.5s-1.83301 35 -2.5 52s-1.16699 34.5 -1.5 52.5s-0.5 37 -0.5 57v378h87v-714h-109l-273 622h-4c1.33301 -18.667 2.83301 -37.334 4.5 -56.001s3.16699 -37.334 4.5 -56.001s2.33301 -37.334 3 -56.001
s1 -37.334 1 -56.001v-398h-87z" />
    <glyph glyph-name="O" unicode="O" 
d="M299 -10c-44.667 0 -83 8.83301 -115 26.5s-58.333 42.667 -79 75s-35.834 71 -45.501 116s-14.5 94.833 -14.5 149.5c0 73.333 8.83301 137.666 26.5 192.999s45.334 98.5 83.001 129.5s86.167 46.5 145.5 46.5c44.667 0 83 -8.66699 115 -26s58.333 -42.333 79 -75
s36 -71.334 46 -116.001s15 -94.667 15 -150s-5 -105.666 -15 -150.999s-25.333 -84.166 -46 -116.499s-47.167 -57.333 -79.5 -75s-70.833 -26.5 -115.5 -26.5zM301 70c40 0 71.833 11.499 95.5 34.499s40.667 56 51 99s15.5 94.5 15.5 154.5
c0 90.667 -12 161.334 -36 212.001s-65.667 76 -125 76c-40 0 -72.167 -11.5 -96.5 -34.5s-41.833 -56 -52.5 -99s-16 -94.5 -16 -154.5s5.33301 -111.5 16 -154.5s28 -76 52 -99s56 -34.5 96 -34.5z" />
    <glyph glyph-name="P" unicode="P" 
d="M95 0l0.00195312 713.999h204c85.333 0 147.666 -18.167 186.999 -54.5s59 -87.833 59 -154.5c0 -39.333 -8.16699 -76.666 -24.5 -111.999s-43.333 -63.833 -81 -85.5s-88.834 -32.5 -153.501 -32.5h-101v-275h-90zM276.002 352.999
c39.333 0 72.166 4.99902 98.499 14.999s46 25.833 59 47.5s19.5 49.834 19.5 84.501c0 49.333 -13.167 84.333 -39.5 105s-67.166 31 -122.499 31h-106v-283h91z" />
    <glyph glyph-name="Q" unicode="Q" 
d="M441 -180l-104 207l60 66l144 -273h-100zM299 -10c-44.667 0 -83 8.83301 -115 26.5s-58.333 42.667 -79 75s-35.834 71 -45.501 116s-14.5 94.833 -14.5 149.5c0 73.333 8.83301 137.666 26.5 192.999s45.334 98.5 83.001 129.5s86.167 46.5 145.5 46.5
c44.667 0 83 -8.66699 115 -26s58.333 -42.333 79 -75s36 -71.334 46 -116.001s15 -94.667 15 -150s-5 -105.666 -15 -150.999s-25.333 -84.166 -46 -116.499s-47.167 -57.333 -79.5 -75s-70.833 -26.5 -115.5 -26.5zM301 70c40 0 71.833 11.499 95.5 34.499
s40.667 56 51 99s15.5 94.5 15.5 154.5c0 90.667 -12 161.334 -36 212.001s-65.667 76 -125 76c-40 0 -72.167 -11.5 -96.5 -34.5s-41.833 -56 -52.5 -99s-16 -94.5 -16 -154.5s5.33301 -111.5 16 -154.5s28 -76 52 -99s56 -34.5 96 -34.5z" />
    <glyph glyph-name="R" unicode="R" 
d="M95 0l-0.000976562 713.999h167c56 0 102.5 -7.5 139.5 -22.5s64.833 -37.167 83.5 -66.5s28 -66.333 28 -111c0 -37.333 -6 -68.833 -18 -94.5s-28.167 -46.667 -48.5 -63s-43.166 -29.166 -68.499 -38.499l191 -318h-100l-172 292h-112v-292h-90zM258.999 369.999
c39.333 0 70.667 5.16895 94 15.502s40.333 25.666 51 45.999s16 45.166 16 74.499c0 47.333 -12.833 80.833 -38.5 100.5s-67.167 29.5 -124.5 29.5h-72v-266h74z" />
    <glyph glyph-name="S" unicode="S" 
d="M281 -10c-38 0 -74.832 3.50098 -110.499 10.501s-64.167 15.833 -85.5 26.5v83c24.667 -10.667 54.667 -20.5 90 -29.5s71.333 -13.5 108 -13.5c34 0 62.5 4.66699 85.5 14s40.167 23.333 51.5 42s17 41.667 17 69c0 22.667 -4.66699 40.667 -14 54
s-25.833 26.166 -49.5 38.499s-56.834 27.833 -99.501 46.5c-28 12.667 -55.333 26.667 -82 42s-48.5 35.666 -65.5 60.999s-25.5 58.666 -25.5 99.999s9.16699 76 27.5 104s44.5 49.333 78.5 64s74.667 22 122 22c36 0 70 -3.83301 102 -11.5s60 -17.167 84 -28.5l-29 -75
c-22.667 10.667 -48 19.167 -76 25.5s-55.667 9.5 -83 9.5c-26 0 -49.167 -3.66699 -69.5 -11s-36.166 -19.166 -47.499 -35.499s-17 -38.166 -17 -65.499c0 -23.333 4.83301 -42.333 14.5 -57s25.167 -27.5 46.5 -38.5s48.666 -23.833 81.999 -38.5
c38 -16 71.5 -32.167 100.5 -48.5s51.667 -36.5 68 -60.5s24.5 -56.667 24.5 -98c0 -32 -5.16699 -60.333 -15.5 -85s-26 -45.667 -47 -63s-46.833 -30.5 -77.5 -39.5s-66.667 -13.5 -108 -13.5z" />
    <glyph glyph-name="T" unicode="T" 
d="M255 0v634h-210v80h510v-80h-210v-634h-90z" />
    <glyph glyph-name="U" unicode="U" 
d="M298 -10c-54.667 0 -98.8311 10.833 -132.498 32.5s-58 52.334 -73 92.001s-22.5 86.167 -22.5 139.5v460h90v-455c0 -37.333 4.16699 -70.333 12.5 -99s22.666 -50.834 42.999 -66.501s48.5 -23.5 84.5 -23.5c38 0 67.167 8.33301 87.5 25s34.166 39.5 41.499 68.5
s11 61.167 11 96.5v454h90v-462c0 -49.333 -7.33301 -93.833 -22 -133.5s-39 -71 -73 -94s-79.667 -34.5 -137 -34.5z" />
    <glyph glyph-name="V" unicode="V" 
d="M255 0l-229.999 713.999h94l139 -464c6 -19.333 11.5 -38.5 16.5 -57.5s9.83301 -37.333 14.5 -55s8.66699 -34.5 12 -50.5h3c3.33301 16 7.16602 32.833 11.499 50.5s9 36.334 14 56.001s10.5 39.5 16.5 59.5l134 461h95l-226 -714h-94z" />
    <glyph glyph-name="W" unicode="W" 
d="M105 0l-80 713.992h83c2.66699 -26 5.16699 -52.167 7.5 -78.5s4.83301 -52.666 7.5 -78.999s5.16699 -52.666 7.5 -78.999s4.83301 -52.5 7.5 -78.5c2 -20.667 4 -42.667 6 -66s3.83301 -46.833 5.5 -70.5s3.16699 -46.167 4.5 -67.5s2.5 -40.5 3.5 -57.5
s1.5 -30.167 1.5 -39.5h2c2 11.333 4.66699 25.5 8 42.5s7 35.167 11 54.5s8.16699 38.5 12.5 57.5s8.16602 36.167 11.499 51.5l54 232h86l56 -234c4 -17.333 8.33301 -35.5 13 -54.5s9 -37.667 13 -56s7.5 -35.666 10.5 -51.999s5.5 -30.166 7.5 -41.499h2
c0.666992 9.33301 1.33398 21.833 2.00098 37.5s1.5 33.334 2.5 53.001s2.16699 41.167 3.5 64.5s3 47.5 5 72.5s4 50.5 6 76.5c2 20.667 3.83301 41.5 5.5 62.5s3.5 41.833 5.5 62.5s3.83301 41.334 5.5 62.001s3.33398 41.5 5.00098 62.5s3.5 41.833 5.5 62.5h83l-72 -714
h-97l-79 328c-4.66699 20 -8.66699 38.167 -12 54.5s-6 30.333 -8 42s-3.66699 20.167 -5 25.5h-2c-0.666992 -5.33301 -1.83398 -13.666 -3.50098 -24.999s-4.16699 -25.166 -7.5 -41.499s-7.33301 -34.833 -12 -55.5l-76 -328h-96z" />
    <glyph glyph-name="X" unicode="X" 
d="M35 0l223 369l-208 345h97l153 -273l155 273h95l-207 -346l222 -368h-93l-171 296l-170 -296h-96z" />
    <glyph glyph-name="Y" unicode="Y" 
d="M257 0v278l-222 436h99l167 -361l168 361h96l-222 -436v-278h-86z" />
    <glyph glyph-name="Z" unicode="Z" 
d="M95 0v71l317 565h-297v78h390v-71l-313 -563h313v-80h-410z" />
    <glyph glyph-name="bracketleft" unicode="[" 
d="M240 -158v872h225v-72h-139v-728h139v-72h-225z" />
    <glyph glyph-name="backslash" unicode="\" 
d="M480 0l-274 714h-86l274 -714h86z" />
    <glyph glyph-name="bracketright" unicode="]" 
d="M360 724v-872h-225v72h139v728h-139v72h225z" />
    <glyph glyph-name="asciicircum" unicode="^" 
d="M50 267l214 452h50l236 -452h-78l-182 359l-162 -359h-78z" />
    <glyph glyph-name="underscore" unicode="_" 
d="M0 -154v80h600v-80h-600z" />
    <glyph glyph-name="grave" unicode="`" 
d="M331 606c-11.333 9.33301 -24 20.501 -38 33.501s-27.833 26.667 -41.5 41s-26 28.166 -37 41.499s-19.5 24.666 -25.5 33.999v10h105c7.33301 -14.667 16.5 -31.167 27.5 -49.5s22.667 -36.166 35 -53.499s23.5 -32.333 33.5 -45v-12h-59z" />
    <glyph glyph-name="a" unicode="a" 
d="M246 -10c-52.667 0 -95.165 12.9971 -127.498 38.9971s-48.5 65.333 -48.5 118c0 38.667 9.33301 70.834 28 96.501s46.167 45 82.5 58s80.5 20.167 132.5 21.5l115 3v22c0 48 -12 80.833 -36 98.5s-56.333 26.5 -97 26.5c-28.667 0 -56 -3.66699 -82 -11
s-50.667 -17.666 -74 -30.999l-31 68c25.333 12.667 53.5 23.667 84.5 33s66.833 14 107.5 14c67.333 0 119.166 -15.167 155.499 -45.5s54.5 -77.5 54.5 -141.5v-359h-72l-10 74h-4c-14.667 -18.667 -30.834 -34.167 -48.501 -46.5s-37.167 -21.666 -58.5 -27.999
s-45 -9.5 -71 -9.5zM261.002 62.9971c30 0 57.668 5.50098 83.001 16.501s45.666 27.667 60.999 50s23 50.5 23 84.5v48l-96 -3c-42.667 -1.33301 -77 -6.5 -103 -15.5s-44.833 -21.333 -56.5 -37s-17.5 -34.5 -17.5 -56.5c0 -30.667 9.66699 -52.834 29 -66.501
s45 -20.5 77 -20.5z" />
    <glyph glyph-name="b" unicode="b" 
d="M329 -10c-39.333 0 -72.5029 7.83398 -99.5029 23.501s-48.167 33.834 -63.5 54.501h-6l-8 -68h-72v760h87v-184c0 -18.667 -0.166992 -37 -0.5 -55s-1.5 -36.333 -3.5 -55h4c14 21.333 34.333 40 61 56s60.334 24 101.001 24c32 0 61.333 -5.83301 88 -17.5
s49.5 -29.167 68.5 -52.5s33.667 -52.333 44 -87s15.5 -74.667 15.5 -120c0 -46 -5.16699 -86.333 -15.5 -121s-25.166 -63.834 -44.499 -87.501s-42.166 -41.334 -68.499 -53.001s-55.5 -17.5 -87.5 -17.5zM311.997 63.001c48.667 0 84.333 17.668 107 53.001
s34 86.333 34 153c0 65.333 -11.333 115.666 -34 150.999s-58.667 53 -108 53c-46 0 -81.5 -17.5 -106.5 -52.5s-37.5 -84.833 -37.5 -149.5c0 -67.333 11.833 -118.833 35.5 -154.5s60.167 -53.5 109.5 -53.5z" />
    <glyph glyph-name="c" unicode="c" 
d="M338 -10c-52 0 -97.002 9.49805 -135.002 28.498s-67.167 48.667 -87.5 89s-30.5 92.5 -30.5 156.5c0 68.667 11.167 123.667 33.5 165s53.333 71.166 93 89.499s84.834 27.5 135.501 27.5c31.333 0 59.833 -3.16699 85.5 -9.5s49.834 -15.5 72.501 -27.5l-27 -73
c-21.333 11.333 -42 19.5 -62 24.5s-41.667 7.5 -65 7.5c-40.667 0 -73.834 -7.5 -99.501 -22.5s-44.5 -37.333 -56.5 -67s-18 -67.167 -18 -112.5c0 -47.333 6.33301 -85.666 19 -114.999s31.834 -50.666 57.501 -63.999s57.167 -20 94.5 -20c29.333 0 57 3.16699 83 9.5
s48.667 13.833 68 22.5v-79c-20 -9.33301 -44.667 -16.666 -74 -21.999s-58.333 -8 -87 -8z" />
    <glyph glyph-name="d" unicode="d" 
d="M274 -10c-32.667 0 -62.501 5.66992 -89.501 17.0029s-50.167 28.666 -69.5 51.999s-34.166 52.666 -44.499 87.999s-15.5 76.666 -15.5 123.999c0 59.333 8.5 109.5 25.5 150.5s42.5 72 76.5 93s76.333 31.5 127 31.5c24.667 0 46.5 -3.33301 65.5 -10
s35.333 -15.834 49 -27.501s24.5 -25.167 32.5 -40.5h6c-0.666992 6.66699 -1.5 14.5 -2.5 23.5s-1.83301 18.333 -2.5 28s-1 18.834 -1 27.501v213h89v-760h-74l-10 72h-4c-10 -16 -22.167 -30.167 -36.5 -42.5s-31.333 -22 -51 -29s-43.167 -10.5 -70.5 -10.5z
M290.999 63.0029c47.333 0 82.5 16.5 105.5 49.5s34.5 77.833 34.5 134.5v20c0 39.333 -4.33301 74.5 -13 105.5s-23 55.5 -43 73.5s-47 27 -81 27c-46.667 0 -82.834 -17.333 -108.501 -52s-38.5 -87.667 -38.5 -159c0 -66 11.833 -115.667 35.5 -149
s59.834 -50 108.501 -50z" />
    <glyph glyph-name="e" unicode="e" 
d="M337 -10c-57.333 0 -106.666 10.668 -147.999 32.001s-73.166 52.5 -95.499 93.5s-33.5 91.167 -33.5 150.5c0 58.667 10.667 108.834 32 150.501s51 73.667 89 96s82.333 33.5 133 33.5c46.667 0 86.834 -10.333 120.501 -31s59.667 -49.834 78 -87.501
s27.5 -82.834 27.5 -135.501v-41h-389c1.33301 -46.667 10.166 -83.667 26.499 -111s38.666 -46.833 66.999 -58.5s61.166 -17.5 98.499 -17.5c29.333 0 58.333 4 87 12s57.334 18.667 86.001 32v-80c-30.667 -13.333 -61.334 -23 -92.001 -29s-59.667 -9 -87 -9z
M450 323.001c-1.33301 31.333 -7.33008 58.167 -17.9971 80.5s-25.834 39.5 -45.501 51.5s-43.834 18 -72.501 18c-44.667 0 -80.834 -13.5 -108.501 -40.5s-45.167 -63.5 -52.5 -109.5h297z" />
    <glyph glyph-name="f" unicode="f" 
d="M241 0l0.000976562 461.001h-175v62l175 13v61c0 42.667 8.16699 76.167 24.5 100.5s39.166 41.666 68.499 51.999s63.333 15.5 102 15.5c29.333 0 55 -2 77 -6s41 -8.66699 57 -14l-20 -69c-13.333 4 -30 7.5 -50 10.5s-39.667 4.5 -59 4.5
c-34.667 0 -61.667 -7.33301 -81 -22s-29 -42.667 -29 -84v-49h202v-75h-202v-461h-90z" />
    <glyph glyph-name="g" unicode="g" 
d="M276 -245c-36.667 0 -71.167 3.5 -103.5 10.5s-62.166 16.167 -89.499 27.5v80c26.667 -15.333 57.5 -26.833 92.5 -34.5s67.5 -11.5 97.5 -11.5c60.667 0 103 14.167 127 42.5s36 67.166 36 116.499v19c0 8 0.166992 15.667 0.5 23s1.16602 18.666 2.49902 33.999h-4
c-18.667 -27.333 -40.5 -46.166 -65.5 -56.499s-55.167 -15.5 -90.5 -15.5c-70.667 0 -125.667 24.167 -165 72.5s-59 115.833 -59 202.5c0 87.333 19.5 156 58.5 206s92.5 75 160.5 75c36 0 66.333 -5.83301 91 -17.5s46.667 -31.167 66 -58.5h5l12 66h72v-550
c0 -50.667 -8.66699 -93.167 -26 -127.5s-44 -60.166 -80 -77.499s-82 -26 -138 -26zM296 63c22 0 41.833 3.5 59.5 10.5s32.667 18 45 33s21.833 34 28.5 57s10 50.5 10 82.5v21c0 48.667 -5.83301 88.167 -17.5 118.5s-28.5 52.5 -50.5 66.5s-48 21 -78 21
c-50.667 0 -87.667 -17.833 -111 -53.5s-35 -86.167 -35 -151.5c0 -66.667 12.167 -117.5 36.5 -152.5s61.833 -52.5 112.5 -52.5z" />
    <glyph glyph-name="h" unicode="h" 
d="M80 0l0.000976562 759.998h90v-216c0 -12.667 -0.5 -28.667 -1.5 -48s-1.83301 -34.666 -2.5 -45.999h5c11.333 22 25.5 40 42.5 54s36.167 24.5 57.5 31.5s44 10.5 68 10.5c55.333 0 100.166 -15.5 134.499 -46.5s51.5 -80.833 51.5 -149.5v-350h-90v332
c0 48.667 -10.333 84.334 -31 107.001s-50 34 -88 34c-29.333 0 -55 -7.66699 -77 -23s-39 -37.5 -51 -66.5s-18 -64.167 -18 -105.5v-278h-90z" />
    <glyph glyph-name="i" unicode="i" 
d="M80 0v60l191 15v386l-175 13v62h265v-461l179 -15v-60h-460zM307 633c-17.333 0 -32.166 5.33301 -44.499 16s-18.5 26.334 -18.5 47.001c0 22 6.16699 38.167 18.5 48.5s27.166 15.5 44.499 15.5s32.166 -5.16699 44.499 -15.5s18.5 -26.5 18.5 -48.5
c0 -20.667 -6.16699 -36.334 -18.5 -47.001s-27.166 -16 -44.499 -16z" />
    <glyph glyph-name="j" unicode="j" 
d="M192 -245c-20.667 0 -43.498 1.66602 -68.498 4.99902s-46.167 7.33301 -63.5 12v79c12 -4 24.833 -7.5 38.5 -10.5s27.667 -5.5 42 -7.5s28.166 -3 41.499 -3c30 0 54.167 4.83301 72.5 14.5s31.666 24.334 39.999 44.001s12.5 44.5 12.5 74.5v498l-175 13v62h265v-588
c0 -62 -17.833 -109.667 -53.5 -143s-86.167 -50 -151.5 -50zM342.002 632.999c-17.333 0 -31.998 5.33301 -43.998 16s-18 26.667 -18 48s5.83301 37.166 17.5 47.499s26.5 15.5 44.5 15.5c17.333 0 32.166 -5.16699 44.499 -15.5s18.5 -26.166 18.5 -47.499
c0 -22 -6.33301 -38.167 -19 -48.5s-27.334 -15.5 -44.001 -15.5z" />
    <glyph glyph-name="k" unicode="k" 
d="M105 0l-0.00195312 759.998h90v-366c0 -14 -0.333008 -29.667 -1 -47s-1.5 -35 -2.5 -53s-2.16699 -35 -3.5 -51h2c12.667 16.667 24.834 31.834 36.501 45.501s23.834 27.834 36.501 42.501l185 205h108l-213 -231l227 -305h-104l-183 252l-88 -85v-167h-90z" />
    <glyph glyph-name="l" unicode="l" 
d="M80 0v60l196 15v610l-190 13v62h280v-685l174 -15v-60h-460z" />
    <glyph glyph-name="m" unicode="m" 
d="M50 0l-0.000976562 535.998h62l13 -59h5c8.66699 18 18 32 28 42s20.833 17 32.5 21s24.5 6 38.5 6c27.333 0 48.5 -6.5 63.5 -19.5s26.5 -32.167 34.5 -57.5h3c11.333 24.667 25.5 43.667 42.5 57s39.5 20 67.5 20c27.333 0 49.166 -7 65.499 -21s28 -35.333 35 -64
s10.5 -65.667 10.5 -111v-350h-80v335c0 28 -1.16699 51.833 -3.5 71.5s-7.16602 34.834 -14.499 45.501s-19.333 16 -36 16c-16 0 -29.667 -7.5 -41 -22.5s-20 -37.167 -26 -66.5s-9 -66.333 -9 -111v-268h-80v335c0 28.667 -1.66699 52.834 -5 72.501
s-9.16602 34.667 -17.499 45s-20.833 15.5 -37.5 15.5c-17.333 0 -31.333 -8.16699 -42 -24.5s-18.167 -39.333 -22.5 -69s-6.5 -65.167 -6.5 -106.5v-268h-80z" />
    <glyph glyph-name="n" unicode="n" 
d="M80 0l-0.000976562 536.001h72l13 -79h5c10.667 20.667 24.5 37.5 41.5 50.5s36.833 22.667 59.5 29s47.334 9.5 74.001 9.5c54 0 97.5 -15.167 130.5 -45.5s49.5 -77.833 49.5 -142.5v-358h-90v342c0 45.333 -9.16699 78.5 -27.5 99.5s-47.833 31.5 -88.5 31.5
c-54.667 0 -93.167 -17.333 -115.5 -52s-33.5 -83.334 -33.5 -146.001v-275h-90z" />
    <glyph glyph-name="o" unicode="o" 
d="M301 -10c-34.667 0 -67.001 5.66895 -97.001 17.002s-56.167 28.666 -78.5 51.999s-39.666 52.5 -51.999 87.5s-18.5 76.167 -18.5 123.5c0 62 10.5 113.333 31.5 154s49.833 71.167 86.5 91.5s78.334 30.5 125.001 30.5s88.667 -10.167 126 -30.5s66.833 -51 88.5 -92
s32.5 -93.167 32.5 -156.5c0 -46.667 -6.16699 -87.334 -18.5 -122.001s-29.333 -63.5 -51 -86.5s-47.334 -40.167 -77.001 -51.5s-62.167 -17 -97.5 -17zM299.999 63.002c34.667 0 63.333 8.33301 86 25s39.667 40.5 51 71.5s17 67.5 17 109.5
c0 42.667 -5.66699 79.167 -17 109.5s-28.5 53.666 -51.5 69.999s-51.833 24.5 -86.5 24.5c-52 0 -90.833 -18.167 -116.5 -54.5s-38.5 -86.166 -38.5 -149.499c0 -42 5.83301 -78.5 17.5 -109.5s29 -54.833 52 -71.5s51.833 -25 86.5 -25z" />
    <glyph glyph-name="p" unicode="p" 
d="M80 -240l-0.000976562 776.003h74l11 -73h4c10.667 17.333 23.334 32.166 38.001 44.499s32 21.833 52 28.5s43.333 10 70 10c32.667 0 62.334 -5.83301 89.001 -17.5s49.5 -29.167 68.5 -52.5s33.5 -52.333 43.5 -87s15 -74.667 15 -120
c0 -60.667 -8.83301 -111.834 -26.5 -153.501s-42.667 -73 -75 -94s-70.5 -31.5 -114.5 -31.5c-26 0 -49.167 3.66699 -69.5 11s-37.833 17 -52.5 29s-27.334 25 -38.001 39h-6c2 -12.667 3.5 -25.834 4.5 -39.501s1.5 -27.167 1.5 -40.5v-229h-89zM309.999 63.0029
c50 0 86.333 17.167 109 51.5s34 86.5 34 156.5c0 68.667 -11.167 119.5 -33.5 152.5s-59.166 49.5 -110.499 49.5c-48.667 0 -84.167 -15.833 -106.5 -47.5s-33.5 -77.167 -33.5 -136.5v-20c0 -63.333 10.167 -113.5 30.5 -150.5s57.166 -55.5 110.499 -55.5z" />
    <glyph glyph-name="q" unicode="q" 
d="M431 -11c0 8.66699 0.166992 17.6689 0.5 27.002s0.833008 18.666 1.5 27.999s1 18.666 1 27.999h-3c-14.667 -22.667 -34.5 -42 -59.5 -58s-57.5 -24 -97.5 -24c-32 0 -61.5 5.83301 -88.5 17.5s-50.167 29.167 -69.5 52.5s-34.333 52.333 -45 87s-16 74.667 -16 120
c0 46 5.33301 86.333 16 121s26 63.667 46 87s43.333 41 70 53s56 18 88 18c39.333 0 71.5 -8 96.5 -24s44.833 -35.333 59.5 -58h4l13 72h72v-776h-89v229zM290 63.002c46.667 0 81.834 15.332 105.501 45.999s35.5 76.667 35.5 138v20c0 64.667 -10.5 115.167 -31.5 151.5
s-58.167 54.5 -111.5 54.5c-48.667 0 -84.334 -17.667 -107.001 -53s-34 -86.666 -34 -153.999c0 -61.333 11.5 -110.5 34.5 -147.5s59.167 -55.5 108.5 -55.5z" />
    <glyph glyph-name="r" unicode="r" 
d="M62 0v60.001l163 15v386l-147 13v62h219l12 -98h4c18.667 35.333 39.167 62.166 61.5 80.499s51.833 27.5 88.5 27.5c22.667 0 42.834 -2 60.501 -6s33.834 -9.33301 48.501 -16l-24 -79c-10.667 6 -23.334 11.167 -38.001 15.5s-30.334 6.5 -47.001 6.5
c-28.667 0 -54 -9 -76 -27s-39.333 -42 -52 -72s-19 -63 -19 -99v-194l156 -15v-60h-410z" />
    <glyph glyph-name="s" unicode="s" 
d="M279 -10c-33.333 0 -65.166 3.00488 -95.499 9.00488s-56.5 14.333 -78.5 25v83c23.333 -10.667 49.166 -20.5 77.499 -29.5s62.166 -13.5 101.499 -13.5c44 0 75.167 6.83301 93.5 20.5s27.5 33.5 27.5 59.5c0 14 -3.16699 25.5 -9.5 34.5s-18.5 18.167 -36.5 27.5
s-44.333 21.333 -79 36c-34.667 15.333 -64.334 29.666 -89.001 42.999s-43.667 29.166 -57 47.499s-20 41.833 -20 70.5c0 32 8.16699 58.5 24.5 79.5s40 36.833 71 47.5s67.833 16 110.5 16c29.333 0 57.333 -2.66699 84 -8s54.334 -14 83.001 -26l-27 -70
c-26.667 11.333 -51.167 19 -73.5 23s-44.5 6 -66.5 6c-41.333 0 -71.5 -5.33301 -90.5 -16s-28.5 -27.334 -28.5 -50.001c0 -14.667 4.16699 -27 12.5 -37s22 -19.667 41 -29s44.167 -20.666 75.5 -33.999c35.333 -14.667 65.333 -28.334 90 -41.001
s43.334 -27.834 56.001 -45.501s19 -41.834 19 -72.501c0 -34 -8.16699 -62.5 -24.5 -85.5s-40.5 -40.5 -72.5 -52.5s-71.667 -18 -119 -18z" />
    <glyph glyph-name="t" unicode="t" 
d="M402 -10c-38 0 -72 5 -102 15s-53.833 27.667 -71.5 53s-26.5 60.333 -26.5 105v298h-146v62l146 16l18 140h72v-143h209v-75h-209v-281c0 -26.667 3.83301 -48.667 11.5 -66s20.167 -30.166 37.5 -38.499s39.666 -12.5 66.999 -12.5c17.333 0 36 1.66699 56 5
s37.333 6.66602 52 9.99902v-72c-16 -4 -33.667 -7.66699 -53 -11s-39.666 -5 -60.999 -5z" />
    <glyph glyph-name="u" unicode="u" 
d="M261 -10c-63.333 0 -110.164 15.833 -140.497 47.5s-45.5 78.834 -45.5 141.501v357h90v-343c0 -42.667 8.83301 -75 26.5 -97s48.167 -33 91.5 -33c37.333 0 66.666 7.83301 87.999 23.5s36.5 38.167 45.5 67.5s13.5 64.666 13.5 105.999v276h90v-536h-72l-13 72h-5
c-12.667 -20 -27.334 -36 -44.001 -48s-35.334 -20.667 -56.001 -26s-43.667 -8 -69 -8z" />
    <glyph glyph-name="v" unicode="v" 
d="M243 0l-197.999 535.997h92l112 -318c7.33301 -21.333 15.166 -43.666 23.499 -66.999s16.833 -48.333 25.5 -75h3c8.66699 26.667 17.5 51.834 26.5 75.501s16.833 45.834 23.5 66.501l109 318h94l-200 -536h-111z" />
    <glyph glyph-name="w" unicode="w" 
d="M102 0l-86 536h84l39 -265c4 -24.667 6.83301 -46.667 8.5 -66s3.33398 -39 5.00098 -59s3.16699 -43.667 4.5 -71h3c2 11.333 4.83301 27.166 8.5 47.499s8 42.333 13 66s10.5 45.5 16.5 65.5l52 181h99l50 -181c6 -20 11.667 -41.5 17 -64.5s10.166 -44.667 14.499 -65
s7.16602 -36.833 8.49902 -49.5h3c2 26.667 3.66699 49.834 5 69.501s3 39.167 5 58.5s5 42 9 68l42 265h82l-88 -536h-108l-48 188c-6.66699 27.333 -13.667 54.666 -21 81.999s-13.666 54.333 -18.999 81h-3c-5.33301 -26.667 -11.833 -53.667 -19.5 -81
s-15.167 -54.666 -22.5 -81.999l-49 -188h-105z" />
    <glyph glyph-name="x" unicode="x" 
d="M45 0l203 274l-193 262h101l144 -201l144 201h101l-194 -262l203 -274h-101l-153 213l-154 -213h-101z" />
    <glyph glyph-name="y" unicode="y" 
d="M136 -245c-13.333 0 -26.333 0.831055 -39 2.49805s-23.667 3.5 -33 5.5v69c8 -1.33301 17.5 -2.66602 28.5 -3.99902s21.833 -2 32.5 -2c20.667 0 37.834 3.33301 51.501 10s25.667 17 36 31s19.833 32.333 28.5 55l29 73l-225 541h88l128 -315
c8.66699 -20.667 17.167 -43.667 25.5 -69s15.833 -49.666 22.5 -72.999h3c4.66699 16.667 9.66699 33.167 15 49.5s10.5 32.5 15.5 48.5s9.83301 31 14.5 45l105 314h92l-225 -606c-12.667 -34.667 -26.5 -65.167 -41.5 -91.5s-34.333 -46.833 -58 -61.5
s-54.834 -22 -93.501 -22z" />
    <glyph glyph-name="z" unicode="z" 
d="M90 0v61l315 406h-299v69h396v-71l-305 -389h313v-76h-420z" />
    <glyph glyph-name="braceleft" unicode="{" 
d="M460 -158c-40.667 0.666992 -75.8311 6.66895 -105.498 18.002s-52.5 28.833 -68.5 52.5s-24 53.167 -24 88.5v147c0 34 -10.5 58.167 -31.5 72.5s-51.167 21.5 -90.5 21.5v73c39.333 0.666992 69.5 8 90.5 22s31.5 37.667 31.5 71v148
c0 35.333 8.33301 64.666 25 87.999s40 40.833 70 52.5s64.333 17.5 103 17.5v-72c-22.667 -0.666992 -42.334 -4.33398 -59.001 -11.001s-29.5 -16.667 -38.5 -30s-13.5 -31 -13.5 -53v-144c0 -34 -9 -61.167 -27 -81.5s-45.333 -33.833 -82 -40.5v-6
c37.333 -6.66699 64.833 -20.167 82.5 -40.5s26.5 -47.5 26.5 -81.5v-147c0 -32.667 9.66699 -56.167 29 -70.5s46.666 -21.833 81.999 -22.5v-72z" />
    <glyph glyph-name="bar" unicode="|" 
d="M264 -240v1000h73v-1000h-73z" />
    <glyph glyph-name="braceright" unicode="}" 
d="M140 714c40.667 -0.666992 75.8311 -6.66895 105.498 -18.002s52.5 -28.833 68.5 -52.5s24 -53.167 24 -88.5v-147c0 -34 10.5 -58.167 31.5 -72.5s51.167 -21.5 90.5 -21.5v-73c-39.333 -0.666992 -69.5 -8 -90.5 -22s-31.5 -37.667 -31.5 -71v-148
c0 -35.333 -8.33301 -64.666 -25 -87.999s-40 -40.833 -70 -52.5s-64.333 -17.5 -103 -17.5v72c22.667 0.666992 42.334 4.33398 59.001 11.001s29.5 16.667 38.5 30s13.5 31 13.5 53v144c0 34 9 61.167 27 81.5s45.333 33.833 82 40.5v6
c-37.333 6.66699 -64.833 20.167 -82.5 40.5s-26.5 47.5 -26.5 81.5v147c0 32.667 -9.66699 56.167 -29 70.5s-46.666 21.833 -81.999 22.5v72z" />
    <glyph glyph-name="asciitilde" unicode="~" 
d="M74 287c2 19.333 4.99707 39.167 8.99707 59.5s10.333 39.333 19 57s20.5 31.834 35.5 42.501s34.5 16 58.5 16c15.333 0 29.5 -2.5 42.5 -7.5s26.167 -12.333 39.5 -22s27.666 -21.834 42.999 -36.501c14 -12.667 27.667 -24.167 41 -34.5s27 -15.5 41 -15.5
c18.667 0 32.334 10.167 41.001 30.5s15.334 48.833 20.001 85.5h60c-2 -17.333 -5.16699 -36 -9.5 -56s-10.833 -39 -19.5 -57s-20.5 -32.833 -35.5 -44.5s-34.167 -17.5 -57.5 -17.5c-15.333 0 -29.833 2.66699 -43.5 8s-26.667 12.833 -39 22.5s-24.833 20.5 -37.5 32.5
c-15.333 15.333 -29.666 28 -42.999 38s-27.666 15 -42.999 15c-19.333 0 -33.833 -9.5 -43.5 -28.5s-16.167 -48.167 -19.5 -87.5h-59z" />
    <glyph glyph-name="uni00A0" unicode="&#xa0;" 
 />
    <glyph glyph-name="exclamdown" unicode="&#xa1;" 
d="M338 327l16 -512h-109l16 512h77zM300 539c17.333 0 32 -5.33301 44 -16s18 -28 18 -52c0 -25.333 -6 -43 -18 -53s-26.667 -15 -44 -15s-32 5 -44 15s-18 27.667 -18 53c0 24 6 41.333 18 52s26.667 16 44 16z" />
    <glyph glyph-name="cent" unicode="&#xa2;" 
d="M295 90c-41.333 6 -77.3369 19 -108.004 39s-54.5 49 -71.5 87s-25.5 86.667 -25.5 146c0 58 8.5 106.5 25.5 145.5s41 69.333 72 91s66.833 35.5 107.5 41.5v84h68v-80c27.333 -0.666992 54.5 -3.83398 81.5 -9.50098s48.833 -12.167 65.5 -19.5l-26 -73
c-17.333 6.66699 -37.666 12.667 -60.999 18s-47.666 8 -72.999 8c-38.667 0 -70.5 -7.5 -95.5 -22.5s-43.667 -37.667 -56 -68s-18.5 -68.5 -18.5 -114.5s6.33301 -83.667 19 -113s31.334 -51 56.001 -65s55 -21 91 -21c31.333 0 59.833 2.83301 85.5 8.5
s48.834 12.834 69.501 21.501v-77c-18 -8.66699 -38.5 -15.5 -61.5 -20.5s-48.833 -8.16699 -77.5 -9.5v-97h-67v100z" />
    <glyph glyph-name="sterling" unicode="&#xa3;" 
d="M90 74c18 4.66699 34 12.499 48 23.499s25 26 33 45s12 43.167 12 72.5v105h-90v66h90v148c0 59.333 16.833 105.666 50.5 138.999s78.167 50 133.5 50c30.667 0 57.667 -3.5 81 -10.5s46 -17.167 68 -30.5l-31 -68c-18.667 12 -37 20.667 -55 26s-36.333 8 -55 8
c-34.667 0 -60.667 -9.5 -78 -28.5s-26 -50.5 -26 -94.5v-139h177v-66h-177v-104c0 -18 -3 -36.167 -9 -54.5s-13.667 -34.666 -23 -48.999s-19.333 -25.166 -30 -32.499h316v-80h-435v74z" />
    <glyph glyph-name="Euro" unicode="&#x20ac;" 
d="M403 -10c-56 0 -103.167 10.833 -141.5 32.5s-68.833 51.667 -91.5 90s-38.667 82.833 -48 133.5h-80v65h72c-0.666992 8 -1 14.667 -1 20v21c0 7.33301 0.166992 14.5 0.5 21.5s0.5 12.5 0.5 16.5h-72v65h79c8.66699 54 24.334 101 47.001 141s53.5 71.167 92.5 93.5
s86.5 33.5 142.5 33.5c30.667 0 60.667 -3.66699 90 -11s57.666 -19 84.999 -35l-37 -72c-18.667 10 -40.5 19.333 -65.5 28s-51.5 13 -79.5 13c-32 0 -60.5 -7 -85.5 -21s-45.833 -35 -62.5 -63s-29.334 -63.667 -38.001 -107h244v-65h-251
c-0.666992 -6.66699 -1 -13 -1 -19v-19v-19.5c0 -7 0.333008 -14.167 1 -21.5h251v-65h-243c8 -37.333 20.333 -69.333 37 -96s38.334 -47 65.001 -61s58.334 -21 95.001 -21c25.333 0 51.166 3.16699 77.499 9.5s49.833 13.833 70.5 22.5v-78
c-20.667 -8.66699 -43.5 -16.167 -68.5 -22.5s-53.167 -9.5 -84.5 -9.5z" />
    <glyph glyph-name="yen" unicode="&#xa5;" 
d="M256 0v129h-144v64h144v82h-144v64h115l-192 375h93l171 -349l174 349h92l-196 -375h119v-64h-146v-82h146v-64h-146v-129h-86z" />
    <glyph glyph-name="Scaron" unicode="&#x160;" 
d="M281 -10c-38 0 -74.832 3.50098 -110.499 10.501s-64.167 15.833 -85.5 26.5v83c24.667 -10.667 54.667 -20.5 90 -29.5s71.333 -13.5 108 -13.5c34 0 62.5 4.66699 85.5 14s40.167 23.333 51.5 42s17 41.667 17 69c0 22.667 -4.66699 40.667 -14 54
s-25.833 26.166 -49.5 38.499s-56.834 27.833 -99.501 46.5c-28 12.667 -55.333 26.667 -82 42s-48.5 35.666 -65.5 60.999s-25.5 58.666 -25.5 99.999s9.16699 76 27.5 104s44.5 49.333 78.5 64s74.667 22 122 22c36 0 70 -3.83301 102 -11.5s60 -17.167 84 -28.5l-29 -75
c-22.667 10.667 -48 19.167 -76 25.5s-55.667 9.5 -83 9.5c-26 0 -49.167 -3.66699 -69.5 -11s-36.166 -19.166 -47.499 -35.499s-17 -38.166 -17 -65.499c0 -23.333 4.83301 -42.333 14.5 -57s25.167 -27.5 46.5 -38.5s48.666 -23.833 81.999 -38.5
c38 -16 71.5 -32.167 100.5 -48.5s51.667 -36.5 68 -60.5s24.5 -56.667 24.5 -98c0 -32 -5.16699 -60.333 -15.5 -85s-26 -45.667 -47 -63s-46.833 -30.5 -77.5 -39.5s-66.667 -13.5 -108 -13.5zM273.001 784.001c-8.66699 15.333 -20.334 31.833 -35.001 49.5
s-30 35.167 -46 52.5s-30 32.333 -42 45v13h60c17.333 -11.333 35.333 -25 54 -41s36.334 -33 53.001 -51c18 18 36.333 35 55 51s36.667 29.667 54 41h62v-13c-12.667 -12.667 -27.167 -27.667 -43.5 -45s-32 -34.833 -47 -52.5s-26.5 -34.167 -34.5 -49.5h-90z" />
    <glyph glyph-name="section" unicode="&#xa7;" 
d="M276 -10c-36.667 0 -68.667 2.8291 -96 8.49609s-51 13.834 -71 24.501v74c14 -6.66699 30.167 -13.334 48.5 -20.001s38 -12.167 59 -16.5s41.833 -6.5 62.5 -6.5c47.333 0 80.5 7.5 99.5 22.5s28.5 31.833 28.5 50.5c0 13.333 -3 25.333 -9 36s-18.167 21.5 -36.5 32.5
s-45.5 23.5 -81.5 37.5c-34 13.333 -63.167 26.833 -87.5 40.5s-43 30.167 -56 49.5s-19.5 43.333 -19.5 72c0 32.667 8.33301 59.167 25 79.5s35.334 35.5 56.001 45.5c-24.667 12.667 -43.834 28.834 -57.501 48.501s-20.5 42.834 -20.5 69.501
c0 39.333 16.5 70.333 49.5 93s80.833 34 143.5 34c37.333 0 68.833 -3.16699 94.5 -9.5s50.167 -14.166 73.5 -23.499l-26 -63c-21.333 10 -42.833 17.667 -64.5 23s-48.5 8 -80.5 8c-39.333 0 -67.166 -5.5 -83.499 -16.5s-24.5 -25.5 -24.5 -43.5
c0 -12 3.66699 -23.167 11 -33.5s20.166 -20.666 38.499 -30.999s44.166 -21.833 77.499 -34.5c34 -12.667 63 -26.167 87 -40.5s42.333 -30.833 55 -49.5s19 -41.334 19 -68.001c0 -33.333 -7.83301 -60.833 -23.5 -82.5s-33.5 -38.167 -53.5 -49.5
c24 -12.667 42.667 -28.667 56 -48s20 -42.666 20 -69.999c0 -45.333 -18.667 -80.5 -56 -105.5s-89.666 -37.5 -156.999 -37.5zM351 279.996c16 9.33301 31 21.167 45 35.5s21 32.5 21 54.5c0 16.667 -4.5 31.667 -13.5 45s-24.667 26 -47 38s-53.833 24.333 -94.5 37
c-18.667 -4.66699 -35.667 -14.667 -51 -30s-23 -33.666 -23 -54.999c0 -16 4.5 -30.333 13.5 -43s23.833 -24.834 44.5 -36.501s48.667 -24.167 84 -37.5z" />
    <glyph glyph-name="scaron" unicode="&#x161;" 
d="M279 -10c-33.333 0 -65.166 3.00488 -95.499 9.00488s-56.5 14.333 -78.5 25v83c23.333 -10.667 49.166 -20.5 77.499 -29.5s62.166 -13.5 101.499 -13.5c44 0 75.167 6.83301 93.5 20.5s27.5 33.5 27.5 59.5c0 14 -3.16699 25.5 -9.5 34.5s-18.5 18.167 -36.5 27.5
s-44.333 21.333 -79 36c-34.667 15.333 -64.334 29.666 -89.001 42.999s-43.667 29.166 -57 47.499s-20 41.833 -20 70.5c0 32 8.16699 58.5 24.5 79.5s40 36.833 71 47.5s67.833 16 110.5 16c29.333 0 57.333 -2.66699 84 -8s54.334 -14 83.001 -26l-27 -70
c-26.667 11.333 -51.167 19 -73.5 23s-44.5 6 -66.5 6c-41.333 0 -71.5 -5.33301 -90.5 -16s-28.5 -27.334 -28.5 -50.001c0 -14.667 4.16699 -27 12.5 -37s22 -19.667 41 -29s44.167 -20.666 75.5 -33.999c35.333 -14.667 65.333 -28.334 90 -41.001
s43.334 -27.834 56.001 -45.501s19 -41.834 19 -72.501c0 -34 -8.16699 -62.5 -24.5 -85.5s-40.5 -40.5 -72.5 -52.5s-71.667 -18 -119 -18zM259 606.005c-8.66699 15.333 -20.334 31.833 -35.001 49.5s-30 35.167 -46 52.5s-30 32.333 -42 45v13h60
c17.333 -11.333 35.333 -25 54 -41s36.334 -33 53.001 -51c18 18 36.333 35 55 51s36.667 29.667 54 41h62v-13c-12.667 -12.667 -27.167 -27.667 -43.5 -45s-32 -34.833 -47 -52.5s-26.5 -34.167 -34.5 -49.5h-90z" />
    <glyph glyph-name="copyright" unicode="&#xa9;" 
d="M300 104c-53.333 0 -99.1719 10.834 -137.505 32.501s-67.666 51.667 -87.999 90s-30.5 82.5 -30.5 132.5c0 51.333 10.667 96.166 32 134.499s51.333 68.333 90 90s84 32.5 136 32.5c52.667 0 97.834 -10.833 135.501 -32.5s66.834 -51.667 87.501 -90
s31 -82.5 31 -132.5c0 -51.333 -10.667 -96.333 -32 -135s-51.166 -68.667 -89.499 -90s-83.166 -32 -134.499 -32zM311.994 200.001c-48.667 0 -84.666 14.501 -107.999 43.501s-35 66.5 -35 112.5c0 48 12.333 87.167 37 117.5s59.667 45.5 105 45.5
c15.333 0 30.666 -1.83301 45.999 -5.5s29.333 -8.83398 42 -15.501l-21 -47c-11.333 6 -22.5 10.333 -33.5 13s-21.5 4 -31.5 4c-27.333 0 -48.5 -9.33301 -63.5 -28s-22.5 -46.667 -22.5 -84c0 -34 6.83301 -60.333 20.5 -79s34.834 -28 63.501 -28
c11.333 0 23.666 1.33301 36.999 4s26 6.33398 38 11.001v-49c-10.667 -4.66699 -22 -8.33398 -34 -11.001s-25.333 -4 -40 -4zM299.995 151.002c40.667 0 76.167 8.33496 106.5 25.002s54.166 40.5 71.499 71.5s26 67.833 26 110.5s-8.5 79.667 -25.5 111
s-40.833 55.5 -71.5 72.5s-66.667 25.5 -108 25.5c-40 0 -75.333 -8.33301 -106 -25s-54.5 -40.334 -71.5 -71.001s-25.5 -67.334 -25.5 -110.001c0 -42 8.5 -78.833 25.5 -110.5s40.833 -56.167 71.5 -73.5s66.334 -26 107.001 -26z" />
    <glyph glyph-name="ordfeminine" unicode="&#xaa;" 
d="M255 383c-31.333 0 -56.3301 8.16797 -74.9971 24.501s-28 40.166 -28 71.499c0 23.333 5.66699 42.833 17 58.5s28.666 27.5 51.999 35.5s53 12.667 89 14l56 2v22c0 22 -6.83301 37.333 -20.5 46s-30.834 13 -51.501 13c-17.333 0 -34.5 -2.5 -51.5 -7.5
s-33.167 -11.167 -48.5 -18.5l-22 49c17.333 8.66699 36.666 15.667 57.999 21s44.333 8 69 8c42 0 74 -9 96 -27s33 -46.667 33 -86v-220h-47l-12 42c-13.333 -14 -29.333 -25.5 -48 -34.5s-40.667 -13.5 -66 -13.5zM275.003 434.001c30.667 0 53.5 7.83105 68.5 23.498
s22.5 36.834 22.5 63.501v23l-48 -2c-40 -1.33301 -67 -7.16602 -81 -17.499s-21 -24.5 -21 -42.5s5.16699 -30.5 15.5 -37.5s24.833 -10.5 43.5 -10.5z" />
    <glyph glyph-name="guillemotleft" unicode="&#xab;" 
d="M453 52l-170 205v13l170 206l58 -42l-136 -170l136 -171zM257 53l-168 204v13l168 206l59 -44l-136 -168l135 -171z" />
    <glyph glyph-name="logicalnot" unicode="&#xac;" 
d="M444 128v189h-369v71h440v-260h-71z" />
    <glyph glyph-name="uni00AD" unicode="&#xad;" 
d="M150 230v80h300v-80h-300z" />
    <glyph glyph-name="registered" unicode="&#xae;" 
d="M300 104c-53.333 0 -99.1719 10.834 -137.505 32.501s-67.666 51.667 -87.999 90s-30.5 82.5 -30.5 132.5c0 51.333 10.667 96.166 32 134.499s51.333 68.333 90 90s84 32.5 136 32.5c52.667 0 97.834 -10.833 135.501 -32.5s66.834 -51.667 87.501 -90
s31 -82.5 31 -132.5c0 -51.333 -10.667 -96.333 -32 -135s-51.166 -68.667 -89.499 -90s-83.166 -32 -134.499 -32zM299.994 151.001c40.667 0 76.167 8.33496 106.5 25.002s54.166 40.5 71.499 71.5s26 67.833 26 110.5s-8.5 79.667 -25.5 111s-40.833 55.5 -71.5 72.5
s-66.667 25.5 -108 25.5c-40 0 -75.333 -8.33301 -106 -25s-54.5 -40.334 -71.5 -71.001s-25.5 -67.334 -25.5 -110.001c0 -42 8.5 -78.833 25.5 -110.5s40.833 -56.167 71.5 -73.5s66.334 -26 107.001 -26zM209.994 207.003v309h87c38 0 66 -8.16699 84 -24.5
s27 -38.5 27 -66.5c0 -24.667 -5.83301 -44 -17.5 -58s-24.167 -23.667 -37.5 -29l81 -131h-61l-69 118h-43v-118h-51zM295.994 369.003c18 0 32.5 4.33301 43.5 13s16.5 21.667 16.5 39c0 16.667 -5 29 -15 37s-25.333 12 -46 12h-34v-101h35z" />
    <glyph glyph-name="overscore" unicode="&#xaf;" 
d="M152 618v71h297v-71h-297z" />
    <glyph glyph-name="degree" unicode="&#xb0;" 
d="M301 421c-30 0 -56.499 6.66699 -79.499 20s-40.833 31.333 -53.5 54s-19 48.334 -19 77.001s6.66699 54.5 20 77.5s31.5 41.167 54.5 54.5s48.833 20 77.5 20c28 0 53.333 -6.66699 76 -20s40.667 -31.5 54 -54.5s20 -48.833 20 -77.5s-6.33301 -54.334 -19 -77.001
s-30.334 -40.667 -53.001 -54s-48.667 -20 -78 -20zM302.001 480c25.333 0 46.5 8.16699 63.5 24.5s25.5 38.833 25.5 67.5s-8.5 51.167 -25.5 67.5s-38.167 24.5 -63.5 24.5c-26.667 0 -48.667 -8 -66 -24s-26 -38.667 -26 -68c0 -28 9.16699 -50.333 27.5 -67
s39.833 -25 64.5 -25z" />
    <glyph glyph-name="plusminus" unicode="&#xb1;" 
d="M262 124v196h-186v71h186v197h72v-197h186v-71h-186v-196h-72zM80 0v71h440v-71h-440z" />
    <glyph glyph-name="uni00B2" unicode="&#xb2;" 
d="M155 416l-0.00195312 54l115 112c28 26.667 49.333 48.167 64 64.5s24.667 30.833 30 43.5s8 26.334 8 41.001c0 21.333 -6.66699 37.333 -20 48s-30.666 16 -51.999 16c-20 0 -38.167 -3.83301 -54.5 -11.5s-33.166 -18.167 -50.499 -31.5l-35 46
c19.333 16.667 40.5 30 63.5 40s48.833 15 77.5 15c43.333 0 77.333 -10.5 102 -31.5s37 -49.833 37 -86.5c0 -22 -4.33301 -42 -13 -60s-21.667 -36.333 -39 -55s-39 -40.334 -65 -65.001l-81 -77h213v-62h-300z" />
    <glyph glyph-name="uni00B3" unicode="&#xb3;" 
d="M278 408c-22 0 -42.998 2.16504 -62.998 6.49805s-40 11.5 -60 21.5v63c22.667 -10.667 44.5 -19 65.5 -25s41.5 -9 61.5 -9c31.333 0 54.333 6.83301 69 20.5s22 31.5 22 53.5c0 25.333 -9 43.5 -27 54.5s-43.333 16.5 -76 16.5h-57v55h57
c31.333 0 54.166 6.5 68.499 19.5s21.5 29.833 21.5 50.5c0 21.333 -6.16699 36.833 -18.5 46.5s-28.166 14.5 -47.499 14.5c-16.667 0 -33.334 -3.5 -50.001 -10.5s-33.667 -16.167 -51 -27.5l-36 46c20.667 15.333 41.667 27.333 63 36s46.666 13 75.999 13
c44.667 0 78.5 -10.167 101.5 -30.5s34.5 -47.166 34.5 -80.499c0 -26.667 -6.5 -48.5 -19.5 -65.5s-28.5 -28.833 -46.5 -35.5v-3c24 -4.66699 43.167 -15.5 57.5 -32.5s21.5 -39.833 21.5 -68.5c0 -37.333 -13.5 -68.166 -40.5 -92.499s-69.167 -36.5 -126.5 -36.5z" />
    <glyph glyph-name="Zcaron" unicode="&#x17d;" 
d="M95 0v71l317 565h-297v78h390v-71l-313 -563h313v-80h-410zM266 784c-8.66699 15.333 -20.334 31.833 -35.001 49.5s-30 35.167 -46 52.5s-30 32.333 -42 45v13h60c17.333 -11.333 35.333 -25 54 -41s36.334 -33 53.001 -51c18 18 36.333 35 55 51s36.667 29.667 54 41
h62v-13c-12.667 -12.667 -27.167 -27.667 -43.5 -45s-32 -34.833 -47 -52.5s-26.5 -34.167 -34.5 -49.5h-90z" />
    <glyph glyph-name="uni00B5" unicode="&#xb5;" 
d="M75 -240v467h90v-467h-90zM261 -10c-63.333 0 -110.164 15.833 -140.497 47.5s-45.5 78.834 -45.5 141.501v357h90v-343c0 -42.667 8.83301 -75 26.5 -97s48.167 -33 91.5 -33c37.333 0 66.666 7.83301 87.999 23.5s36.5 38.167 45.5 67.5s13.5 64.666 13.5 105.999v276
h90v-536h-72l-13 72h-5c-12.667 -20 -27.334 -36 -44.001 -48s-35.334 -20.667 -56.001 -26s-43.667 -8 -69 -8z" />
    <glyph glyph-name="paragraph" unicode="&#xb6;" 
d="M321 273c-10.667 -2.66699 -23.5 -4.83203 -38.5 -6.49902s-29.167 -2.5 -42.5 -2.5c-38 0 -71.333 7.66699 -100 23s-50.834 41 -66.501 77s-23.5 84.333 -23.5 145c0 64 8.66699 114.167 26 150.5s41.333 62.166 72 77.499s66.334 23 107.001 23h284v-887h-58v831h-102
v-831h-58v400z" />
    <glyph glyph-name="periodcentered" unicode="&#xb7;" 
d="M300 272c-17.333 0 -32 5.33301 -44 16s-18 28 -18 52c0 25.333 6 43 18 53s26.667 15 44 15s32 -5 44 -15s18 -27.667 18 -53c0 -24 -6 -41.333 -18 -52s-26.667 -16 -44 -16z" />
    <glyph glyph-name="zcaron" unicode="&#x17e;" 
d="M90 0v61l315 406h-299v69h396v-71l-305 -389h313v-76h-420zM264 606c-8.66699 15.333 -20.334 31.833 -35.001 49.5s-30 35.167 -46 52.5s-30 32.333 -42 45v13h60c17.333 -11.333 35.333 -25 54 -41s36.334 -33 53.001 -51c18 18 36.333 35 55 51s36.667 29.667 54 41
h62v-13c-12.667 -12.667 -27.167 -27.667 -43.5 -45s-32 -34.833 -47 -52.5s-26.5 -34.167 -34.5 -49.5h-90z" />
    <glyph glyph-name="uni00B9" unicode="&#xb9;" 
d="M283 692c0 17.333 0.166992 32.333 0.5 45s0.833008 26 1.5 40c-6.66699 -6 -13.667 -11.667 -21 -17s-15 -10.333 -23 -15l-59 -33l-34 56l133 76h67v-428h-65v276zM180 416v51l106 7h55l114 -7v-51h-275z" />
    <glyph glyph-name="ordmasculine" unicode="&#xba;" 
d="M298 383c-44 0 -79.166 14.5 -105.499 43.5s-39.5 71.167 -39.5 126.5c0 54.667 13.167 96.5 39.5 125.5s62.166 43.5 107.499 43.5c29.333 0 55 -6.5 77 -19.5s39 -32 51 -57s18 -55.833 18 -92.5c0 -56 -13.333 -98.333 -40 -127s-62.667 -43 -108 -43zM299.001 436
c29.333 0 50.499 9.83301 63.499 29.5s19.5 48.834 19.5 87.501c0 26.667 -2.83301 48.5 -8.5 65.5s-14.667 29.667 -27 38s-28.166 12.5 -47.499 12.5c-28.667 0 -49.667 -10.333 -63 -31s-20 -49 -20 -85c0 -38.667 6.5 -67.834 19.5 -87.501s34.167 -29.5 63.5 -29.5z
" />
    <glyph glyph-name="guillemotright" unicode="&#xbb;" 
d="M148 477l170 -205v-13l-170 -206l-58 42l136 170l-136 171zM344 476l168 -204v-13l-168 -206l-59 44l136 168l-135 171z" />
    <glyph glyph-name="OE" unicode="&#x152;" 
d="M240 -10c-47.333 0 -85.667 15.333 -115 46s-50.833 73.667 -64.5 129s-20.5 120 -20.5 194c0 55.333 4 105.333 12 150s20.5 83 37.5 115s39 56.667 66 74s59.167 26 96.5 26c13.333 0 26.333 -0.833008 39 -2.5s24.667 -4.16699 36 -7.5h243v-80h-173v-221h154v-79
h-154v-254h173v-80h-259c-10.667 -2.66699 -22 -5 -34 -7s-24.333 -3 -37 -3zM244.999 70c12.667 0 24.498 1.49902 35.498 4.49902s20.833 6.83301 29.5 11.5v543c-8.66699 5.33301 -18.5 9.33301 -29.5 12s-22.5 4 -34.5 4c-20 0 -37.333 -6.5 -52 -19.5
s-26.5 -32 -35.5 -57s-15.667 -55.167 -20 -90.5s-6.5 -75.333 -6.5 -120c0 -59.333 3.83301 -110.666 11.5 -153.999s19.834 -76.5 36.501 -99.5s38.334 -34.5 65.001 -34.5z" />
    <glyph glyph-name="oe" unicode="&#x153;" 
d="M190 -10c-36 0 -66.4941 11.167 -91.4941 33.5s-44 54.666 -57 96.999s-19.5 93.166 -19.5 152.499c0 44 3.5 83 10.5 117s17.667 62.667 32 86s31.833 41 52.5 53s44.667 18 72 18c32 0 57.833 -8.16699 77.5 -24.5s36.167 -40.166 49.5 -71.499
c8.66699 21.333 19 39 31 53s25.667 24.5 41 31.5s32 10.5 50 10.5c33.333 0 60.5 -10.5 81.5 -31.5s36.333 -49.5 46 -85.5s14.5 -76 14.5 -120v-56h-224c0.666992 -44 4.5 -80.333 11.5 -109s17.833 -50.167 32.5 -64.5s34 -21.5 58 -21.5
c15.333 0 31.166 2.83301 47.499 8.5s34.5 14.834 54.5 27.501v-70c-18.667 -11.333 -36.834 -19.833 -54.501 -25.5s-36.167 -8.5 -55.5 -8.5c-30.667 0 -56.834 7.66699 -78.501 23s-39.834 40 -54.501 74c-12.667 -32 -29.334 -56.167 -50.001 -72.5
s-46.334 -24.5 -77.001 -24.5zM194.006 60c19.333 0 35.166 7.33105 47.499 21.998s21.333 37.334 27 68.001s8.5 69.667 8.5 117c0 46.667 -2.83301 85.334 -8.5 116.001s-14.667 53.834 -27 69.501s-28.833 23.5 -49.5 23.5c-31.333 0 -54.166 -17.5 -68.499 -52.5
s-21.5 -86.167 -21.5 -153.5c0 -70.667 7.66699 -123.334 23 -158.001s38.333 -52 69 -52zM505.006 316.998c0 30 -2.33398 57.167 -7.00098 81.5s-12 43.833 -22 58.5s-23.667 22 -41 22c-11.333 0 -21.666 -3.5 -30.999 -10.5s-17.333 -17.333 -24 -31
s-12 -30.5 -16 -50.5s-6.33301 -43.333 -7 -70h148z" />
    <glyph glyph-name="Ydieresis" unicode="&#x178;" 
d="M257 0v278l-222 436h99l167 -361l168 361h96l-222 -436v-278h-86zM414 800c-14.667 0 -27.334 4.83301 -38.001 14.5s-16 24.5 -16 44.5c0 20.667 5.33301 35.334 16 44.001s23.334 13 38.001 13s27.5 -4.33301 38.5 -13s16.5 -23.334 16.5 -44.001
c0 -20 -5.5 -34.833 -16.5 -44.5s-23.833 -14.5 -38.5 -14.5zM185 800c-14.667 0 -27.334 4.83301 -38.001 14.5s-16 24.5 -16 44.5c0 20.667 5.33301 35.334 16 44.001s23.334 13 38.001 13s27.5 -4.33301 38.5 -13s16.5 -23.334 16.5 -44.001
c0 -20 -5.5 -34.833 -16.5 -44.5s-23.833 -14.5 -38.5 -14.5z" />
    <glyph glyph-name="questiondown" unicode="&#xbf;" 
d="M346 309c0 -25.333 -2.99902 -47.3301 -8.99902 -65.9971s-16.5 -36.5 -31.5 -53.5s-35.167 -34.5 -60.5 -52.5c-22.667 -16 -40.834 -31 -54.501 -45s-23.667 -29.333 -30 -46s-9.5 -37.334 -9.5 -62.001c0 -29.333 10.833 -53.5 32.5 -72.5s53.167 -28.5 94.5 -28.5
c34.667 0 65.834 4.16699 93.501 12.5s55.167 18.833 82.5 31.5l32 -75c-27.333 -12 -56.833 -22.833 -88.5 -32.5s-69.834 -14.5 -114.501 -14.5s-83.167 7.16699 -115.5 21.5s-57.333 34.5 -75 60.5s-26.5 57 -26.5 93c0 31.333 4 58.333 12 81s20.167 43.167 36.5 61.5
s37.5 37.166 63.5 56.499s45.5 35.833 58.5 49.5s21.5 27.167 25.5 40.5s6 29.666 6 48.999v9h78v-18zM303.001 539.003c17.333 0 32 -5.33301 44 -16s18 -28 18 -52c0 -25.333 -6 -43 -18 -53s-26.667 -15 -44 -15s-32 5 -44 15s-18 27.667 -18 53c0 24 6 41.333 18 52
s26.667 16 44 16z" />
    <glyph glyph-name="Agrave" unicode="&#xc0;" 
d="M20 0l232.002 717h95l233 -717h-92l-159 512c-2 8 -4.83301 17.833 -8.5 29.5s-7.33398 24.667 -11.001 39s-7.16699 28.166 -10.5 41.499c-2.66699 -13.333 -5.83398 -27.166 -9.50098 -41.499s-7.16699 -27.5 -10.5 -39.5s-6.33301 -21.667 -9 -29l-159 -512h-91z
M154.002 219l30 80h227l26 -80h-283zM311.002 784c-11.333 9.33301 -24 20.501 -38 33.501s-27.833 26.667 -41.5 41s-26 28.166 -37 41.499s-19.5 24.666 -25.5 33.999v10h105c7.33301 -14.667 16.5 -31.167 27.5 -49.5s22.667 -36.166 35 -53.499s23.5 -32.333 33.5 -45
v-12h-59z" />
    <glyph glyph-name="Aacute" unicode="&#xc1;" 
d="M20 0l232.002 717h95l233 -717h-92l-159 512c-2 8 -4.83301 17.833 -8.5 29.5s-7.33398 24.667 -11.001 39s-7.16699 28.166 -10.5 41.499c-2.66699 -13.333 -5.83398 -27.166 -9.50098 -41.499s-7.16699 -27.5 -10.5 -39.5s-6.33301 -21.667 -9 -29l-159 -512h-91z
M154.002 219l30 80h227l26 -80h-283zM259.002 796c10 12.667 20.834 27.668 32.501 45.001s23.167 35.166 34.5 53.499s20.666 34.833 27.999 49.5h106v-10c-8 -12 -20.333 -27.5 -37 -46.5s-34.5 -38 -53.5 -57s-36.5 -34.5 -52.5 -46.5h-58v12z" />
    <glyph glyph-name="Acircumflex" unicode="&#xc2;" 
d="M20 0l232.002 717h95l233 -717h-92l-159 512c-2 8 -4.83301 17.833 -8.5 29.5s-7.33398 24.667 -11.001 39s-7.16699 28.166 -10.5 41.499c-2.66699 -13.333 -5.83398 -27.166 -9.50098 -41.499s-7.16699 -27.5 -10.5 -39.5s-6.33301 -21.667 -9 -29l-159 -512h-91z
M154.002 219l30 80h227l26 -80h-283zM131.002 795c12.667 13.333 26.8311 28.6689 42.498 46.002s30.834 35.166 45.501 53.499s26.334 34.833 35.001 49.5h90c8 -14.667 19.5 -31.167 34.5 -49.5s30.667 -36.333 47 -54s30.833 -32.834 43.5 -45.501v-11h-62
c-17.333 10.667 -35.333 25 -54 43s-37 36 -55 54c-18 -18 -36 -35.833 -54 -53.5s-35.667 -32.167 -53 -43.5h-60v11z" />
    <glyph glyph-name="Atilde" unicode="&#xc3;" 
d="M20 0l232.002 717h95l233 -717h-92l-159 512c-2 8 -4.83301 17.833 -8.5 29.5s-7.33398 24.667 -11.001 39s-7.16699 28.166 -10.5 41.499c-2.66699 -13.333 -5.83398 -27.166 -9.50098 -41.499s-7.16699 -27.5 -10.5 -39.5s-6.33301 -21.667 -9 -29l-159 -512h-91z
M154.002 219l30 80h227l26 -80h-283zM120.002 784c2 20 5.83398 37.833 11.501 53.5s13.167 29 22.5 40s20.333 19.5 33 25.5s27 9 43 9c14 0 27.5 -2.83301 40.5 -8.5s25.5 -12.334 37.5 -20.001s23.5 -14.334 34.5 -20.001s21.833 -8.5 32.5 -8.5
c15.333 0 27.166 4.83301 35.499 14.5s14.833 24.167 19.5 43.5h50c-4 -38.667 -15.333 -69.667 -34 -93s-43.667 -35 -75 -35c-14 0 -27.333 2.83301 -40 8.5s-24.834 12.334 -36.501 20.001s-23.167 14.334 -34.5 20.001s-22.666 8.5 -33.999 8.5
c-16 0 -28 -4.83301 -36 -14.5s-14.333 -24.167 -19 -43.5h-51z" />
    <glyph glyph-name="Adieresis" unicode="&#xc4;" 
d="M20 0l232.002 717h95l233 -717h-92l-159 512c-2 8 -4.83301 17.833 -8.5 29.5s-7.33398 24.667 -11.001 39s-7.16699 28.166 -10.5 41.499c-2.66699 -13.333 -5.83398 -27.166 -9.50098 -41.499s-7.16699 -27.5 -10.5 -39.5s-6.33301 -21.667 -9 -29l-159 -512h-91z
M154.002 219l30 80h227l26 -80h-283zM414.002 800c-14.667 0 -27.334 4.83301 -38.001 14.5s-16 24.5 -16 44.5c0 20.667 5.33301 35.334 16 44.001s23.334 13 38.001 13s27.5 -4.33301 38.5 -13s16.5 -23.334 16.5 -44.001c0 -20 -5.5 -34.833 -16.5 -44.5
s-23.833 -14.5 -38.5 -14.5zM185.002 800c-14.667 0 -27.334 4.83301 -38.001 14.5s-16 24.5 -16 44.5c0 20.667 5.33301 35.334 16 44.001s23.334 13 38.001 13s27.5 -4.33301 38.5 -13s16.5 -23.334 16.5 -44.001c0 -20 -5.5 -34.833 -16.5 -44.5
s-23.833 -14.5 -38.5 -14.5z" />
    <glyph glyph-name="Aring" unicode="&#xc5;" 
d="M20 0l232.002 717h95l233 -717h-92l-159 512c-2 8 -4.83301 17.833 -8.5 29.5s-7.33398 24.667 -11.001 39s-7.16699 28.166 -10.5 41.499c-2.66699 -13.333 -5.83398 -27.166 -9.50098 -41.499s-7.16699 -27.5 -10.5 -39.5s-6.33301 -21.667 -9 -29l-159 -512h-91z
M154.002 219l30 80h227l26 -80h-283zM299.002 784c-32.667 0 -58.999 9.33398 -78.999 28.001s-30 44.667 -30 78s10 59.166 30 77.499s46.333 27.5 79 27.5c31.333 0 57.666 -9.16699 78.999 -27.5s32 -43.833 32 -76.5c0 -34 -10.5 -60.333 -31.5 -79s-47.5 -28 -79.5 -28
zM299.003 836.001c16 0 28.999 4.83301 38.999 14.5s15 22.834 15 39.501c0 17.333 -5.16699 30.666 -15.5 39.999s-23.166 14 -38.499 14c-14.667 0 -27.167 -4.66699 -37.5 -14s-15.5 -22.666 -15.5 -39.999c0 -16.667 5 -29.834 15 -39.501s22.667 -14.5 38 -14.5z" />
    <glyph glyph-name="AE" unicode="&#xc6;" 
d="M20 0l160 714h363v-80h-180v-221h161v-79h-161v-254h180v-80h-266v634h-35l-135 -634h-87zM123 219l21 77h156v-77h-177z" />
    <glyph glyph-name="Ccedilla" unicode="&#xc7;" 
d="M365 -10c-70 0 -127 15.668 -171 47.001s-76.333 74.5 -97 129.5s-31 118.5 -31 190.5c0 56.667 6.66699 107.5 20 152.5s33 83.5 59 115.5s57.667 56.5 95 73.5s80.333 25.5 129 25.5c34.667 0 67.167 -3.66699 97.5 -11s58.166 -17.666 83.499 -30.999l-34 -73
c-20.667 11.333 -44.167 20 -70.5 26s-51.833 9 -76.5 9c-34 0 -64.167 -6.33301 -90.5 -19s-48.333 -31.167 -66 -55.5s-31.167 -54.333 -40.5 -90s-14 -76.5 -14 -122.5c0 -58.667 7.16699 -109.334 21.5 -152.001s36.833 -75.334 67.5 -98.001s70.667 -34 120 -34
c22.667 0 47.167 2.5 73.5 7.5s52.5 12.833 78.5 23.5v-85c-26.667 -10 -52.167 -17.333 -76.5 -22s-50.166 -7 -77.499 -7zM298 -239.999c-10.667 0 -20.499 0.500977 -29.499 1.50098s-16.167 2.16699 -21.5 3.5v55c6 -1.33301 14 -2.5 24 -3.5s19.667 -1.5 29 -1.5
c23.333 0 41.5 3.16699 54.5 9.5s19.5 17.5 19.5 33.5c0 17.333 -7.83301 30 -23.5 38s-38.167 14 -67.5 18l43 91h58l-26 -58c24 -5.33301 44.5 -14.5 61.5 -27.5s25.5 -33.167 25.5 -60.5c0 -30.667 -12.333 -54.834 -37 -72.501s-61.334 -26.5 -110.001 -26.5z" />
    <glyph glyph-name="Egrave" unicode="&#xc8;" 
d="M95 0v714h420v-80h-330v-221h311v-80h-311v-253h330v-80h-420zM317 784c-11.333 9.33301 -24 20.501 -38 33.501s-27.833 26.667 -41.5 41s-26 28.166 -37 41.499s-19.5 24.666 -25.5 33.999v10h105c7.33301 -14.667 16.5 -31.167 27.5 -49.5s22.667 -36.166 35 -53.499
s23.5 -32.333 33.5 -45v-12h-59z" />
    <glyph glyph-name="Eacute" unicode="&#xc9;" 
d="M95 0v714h420v-80h-330v-221h311v-80h-311v-253h330v-80h-420zM265 796c10 12.667 20.834 27.668 32.501 45.001s23.167 35.166 34.5 53.499s20.666 34.833 27.999 49.5h106v-10c-8 -12 -20.333 -27.5 -37 -46.5s-34.5 -38 -53.5 -57s-36.5 -34.5 -52.5 -46.5h-58v12z
" />
    <glyph glyph-name="Ecircumflex" unicode="&#xca;" 
d="M95 0v714h420v-80h-330v-221h311v-80h-311v-253h330v-80h-420zM137 795c12.667 13.333 26.8311 28.6689 42.498 46.002s30.834 35.166 45.501 53.499s26.334 34.833 35.001 49.5h90c8 -14.667 19.5 -31.167 34.5 -49.5s30.667 -36.333 47 -54
s30.833 -32.834 43.5 -45.501v-11h-62c-17.333 10.667 -35.333 25 -54 43s-37 36 -55 54c-18 -18 -36 -35.833 -54 -53.5s-35.667 -32.167 -53 -43.5h-60v11z" />
    <glyph glyph-name="Edieresis" unicode="&#xcb;" 
d="M95 0v714h420v-80h-330v-221h311v-80h-311v-253h330v-80h-420zM420 800c-14.667 0 -27.334 4.83301 -38.001 14.5s-16 24.5 -16 44.5c0 20.667 5.33301 35.334 16 44.001s23.334 13 38.001 13s27.5 -4.33301 38.5 -13s16.5 -23.334 16.5 -44.001
c0 -20 -5.5 -34.833 -16.5 -44.5s-23.833 -14.5 -38.5 -14.5zM191 800c-14.667 0 -27.334 4.83301 -38.001 14.5s-16 24.5 -16 44.5c0 20.667 5.33301 35.334 16 44.001s23.334 13 38.001 13s27.5 -4.33301 38.5 -13s16.5 -23.334 16.5 -44.001
c0 -20 -5.5 -34.833 -16.5 -44.5s-23.833 -14.5 -38.5 -14.5z" />
    <glyph glyph-name="Igrave" unicode="&#xcc;" 
d="M110 0v62l144 13v564l-144 13v62h380v-62l-146 -13v-564l146 -13v-62h-380zM311 784c-11.333 9.33301 -24 20.501 -38 33.501s-27.833 26.667 -41.5 41s-26 28.166 -37 41.499s-19.5 24.666 -25.5 33.999v10h105c7.33301 -14.667 16.5 -31.167 27.5 -49.5
s22.667 -36.166 35 -53.499s23.5 -32.333 33.5 -45v-12h-59z" />
    <glyph glyph-name="Iacute" unicode="&#xcd;" 
d="M110 0v62l144 13v564l-144 13v62h380v-62l-146 -13v-564l146 -13v-62h-380zM259 796c10 12.667 20.834 27.668 32.501 45.001s23.167 35.166 34.5 53.499s20.666 34.833 27.999 49.5h106v-10c-8 -12 -20.333 -27.5 -37 -46.5s-34.5 -38 -53.5 -57
s-36.5 -34.5 -52.5 -46.5h-58v12z" />
    <glyph glyph-name="Icircumflex" unicode="&#xce;" 
d="M110 0v62l144 13v564l-144 13v62h380v-62l-146 -13v-564l146 -13v-62h-380zM131 795c12.667 13.333 26.8311 28.6689 42.498 46.002s30.834 35.166 45.501 53.499s26.334 34.833 35.001 49.5h90c8 -14.667 19.5 -31.167 34.5 -49.5s30.667 -36.333 47 -54
s30.833 -32.834 43.5 -45.501v-11h-62c-17.333 10.667 -35.333 25 -54 43s-37 36 -55 54c-18 -18 -36 -35.833 -54 -53.5s-35.667 -32.167 -53 -43.5h-60v11z" />
    <glyph glyph-name="Idieresis" unicode="&#xcf;" 
d="M110 0v62l144 13v564l-144 13v62h380v-62l-146 -13v-564l146 -13v-62h-380zM414 800c-14.667 0 -27.334 4.83301 -38.001 14.5s-16 24.5 -16 44.5c0 20.667 5.33301 35.334 16 44.001s23.334 13 38.001 13s27.5 -4.33301 38.5 -13s16.5 -23.334 16.5 -44.001
c0 -20 -5.5 -34.833 -16.5 -44.5s-23.833 -14.5 -38.5 -14.5zM185 800c-14.667 0 -27.334 4.83301 -38.001 14.5s-16 24.5 -16 44.5c0 20.667 5.33301 35.334 16 44.001s23.334 13 38.001 13s27.5 -4.33301 38.5 -13s16.5 -23.334 16.5 -44.001
c0 -20 -5.5 -34.833 -16.5 -44.5s-23.833 -14.5 -38.5 -14.5z" />
    <glyph glyph-name="Eth" unicode="&#xd0;" 
d="M0 314v78h292v-78h-292zM80 0l-0.00195312 714.002h173c63.333 0 118.333 -13.333 165 -40s82.834 -65.834 108.501 -117.501s38.5 -115.834 38.5 -192.501c0 -80 -13.167 -147 -39.5 -201s-64.166 -94.667 -113.499 -122s-109 -41 -179 -41h-153zM223.998 78.002
c85.333 0 148.166 24.001 188.499 72.001s60.5 118.333 60.5 211c0 63.333 -9.16699 115.166 -27.5 155.499s-44.666 70.333 -78.999 90s-75.5 29.5 -123.5 29.5h-73v-558h54z" />
    <glyph glyph-name="Ntilde" unicode="&#xd1;" 
d="M70 0v714.004h119l260 -595h3c-2 19.333 -3.5 37.833 -4.5 55.5s-1.83301 35 -2.5 52s-1.16699 34.5 -1.5 52.5s-0.5 37 -0.5 57v378h87v-714h-109l-273 622h-4c1.33301 -18.667 2.83301 -37.334 4.5 -56.001s3.16699 -37.334 4.5 -56.001s2.33301 -37.334 3 -56.001
s1 -37.334 1 -56.001v-398h-87zM125 784.004c2 20 5.83398 37.833 11.501 53.5s13.167 29 22.5 40s20.333 19.5 33 25.5s27 9 43 9c14 0 27.5 -2.83301 40.5 -8.5s25.5 -12.334 37.5 -20.001s23.5 -14.334 34.5 -20.001s21.833 -8.5 32.5 -8.5
c15.333 0 27.166 4.83301 35.499 14.5s14.833 24.167 19.5 43.5h50c-4 -38.667 -15.333 -69.667 -34 -93s-43.667 -35 -75 -35c-14 0 -27.333 2.83301 -40 8.5s-24.834 12.334 -36.501 20.001s-23.167 14.334 -34.5 20.001s-22.666 8.5 -33.999 8.5
c-16 0 -28 -4.83301 -36 -14.5s-14.333 -24.167 -19 -43.5h-51z" />
    <glyph glyph-name="Ograve" unicode="&#xd2;" 
d="M299 -10c-44.667 0 -83 8.83301 -115 26.5s-58.333 42.667 -79 75s-35.834 71 -45.501 116s-14.5 94.833 -14.5 149.5c0 73.333 8.83301 137.666 26.5 192.999s45.334 98.5 83.001 129.5s86.167 46.5 145.5 46.5c44.667 0 83 -8.66699 115 -26s58.333 -42.333 79 -75
s36 -71.334 46 -116.001s15 -94.667 15 -150s-5 -105.666 -15 -150.999s-25.333 -84.166 -46 -116.499s-47.167 -57.333 -79.5 -75s-70.833 -26.5 -115.5 -26.5zM301 70c40 0 71.833 11.499 95.5 34.499s40.667 56 51 99s15.5 94.5 15.5 154.5
c0 90.667 -12 161.334 -36 212.001s-65.667 76 -125 76c-40 0 -72.167 -11.5 -96.5 -34.5s-41.833 -56 -52.5 -99s-16 -94.5 -16 -154.5s5.33301 -111.5 16 -154.5s28 -76 52 -99s56 -34.5 96 -34.5zM311 783.999c-11.333 9.33301 -24 20.501 -38 33.501
s-27.833 26.667 -41.5 41s-26 28.166 -37 41.499s-19.5 24.666 -25.5 33.999v10h105c7.33301 -14.667 16.5 -31.167 27.5 -49.5s22.667 -36.166 35 -53.499s23.5 -32.333 33.5 -45v-12h-59z" />
    <glyph glyph-name="Oacute" unicode="&#xd3;" 
d="M299 -10c-44.667 0 -83 8.83301 -115 26.5s-58.333 42.667 -79 75s-35.834 71 -45.501 116s-14.5 94.833 -14.5 149.5c0 73.333 8.83301 137.666 26.5 192.999s45.334 98.5 83.001 129.5s86.167 46.5 145.5 46.5c44.667 0 83 -8.66699 115 -26s58.333 -42.333 79 -75
s36 -71.334 46 -116.001s15 -94.667 15 -150s-5 -105.666 -15 -150.999s-25.333 -84.166 -46 -116.499s-47.167 -57.333 -79.5 -75s-70.833 -26.5 -115.5 -26.5zM301 70c40 0 71.833 11.499 95.5 34.499s40.667 56 51 99s15.5 94.5 15.5 154.5
c0 90.667 -12 161.334 -36 212.001s-65.667 76 -125 76c-40 0 -72.167 -11.5 -96.5 -34.5s-41.833 -56 -52.5 -99s-16 -94.5 -16 -154.5s5.33301 -111.5 16 -154.5s28 -76 52 -99s56 -34.5 96 -34.5zM259 795.999c10 12.667 20.834 27.668 32.501 45.001
s23.167 35.166 34.5 53.499s20.666 34.833 27.999 49.5h106v-10c-8 -12 -20.333 -27.5 -37 -46.5s-34.5 -38 -53.5 -57s-36.5 -34.5 -52.5 -46.5h-58v12z" />
    <glyph glyph-name="Ocircumflex" unicode="&#xd4;" 
d="M299 -10c-44.667 0 -83 8.83301 -115 26.5s-58.333 42.667 -79 75s-35.834 71 -45.501 116s-14.5 94.833 -14.5 149.5c0 73.333 8.83301 137.666 26.5 192.999s45.334 98.5 83.001 129.5s86.167 46.5 145.5 46.5c44.667 0 83 -8.66699 115 -26s58.333 -42.333 79 -75
s36 -71.334 46 -116.001s15 -94.667 15 -150s-5 -105.666 -15 -150.999s-25.333 -84.166 -46 -116.499s-47.167 -57.333 -79.5 -75s-70.833 -26.5 -115.5 -26.5zM301 70c40 0 71.833 11.499 95.5 34.499s40.667 56 51 99s15.5 94.5 15.5 154.5
c0 90.667 -12 161.334 -36 212.001s-65.667 76 -125 76c-40 0 -72.167 -11.5 -96.5 -34.5s-41.833 -56 -52.5 -99s-16 -94.5 -16 -154.5s5.33301 -111.5 16 -154.5s28 -76 52 -99s56 -34.5 96 -34.5zM131 794.999c12.667 13.333 26.8311 28.6689 42.498 46.002
s30.834 35.166 45.501 53.499s26.334 34.833 35.001 49.5h90c8 -14.667 19.5 -31.167 34.5 -49.5s30.667 -36.333 47 -54s30.833 -32.834 43.5 -45.501v-11h-62c-17.333 10.667 -35.333 25 -54 43s-37 36 -55 54c-18 -18 -36 -35.833 -54 -53.5s-35.667 -32.167 -53 -43.5
h-60v11z" />
    <glyph glyph-name="Otilde" unicode="&#xd5;" 
d="M299 -10c-44.667 0 -83 8.83301 -115 26.5s-58.333 42.667 -79 75s-35.834 71 -45.501 116s-14.5 94.833 -14.5 149.5c0 73.333 8.83301 137.666 26.5 192.999s45.334 98.5 83.001 129.5s86.167 46.5 145.5 46.5c44.667 0 83 -8.66699 115 -26s58.333 -42.333 79 -75
s36 -71.334 46 -116.001s15 -94.667 15 -150s-5 -105.666 -15 -150.999s-25.333 -84.166 -46 -116.499s-47.167 -57.333 -79.5 -75s-70.833 -26.5 -115.5 -26.5zM301 70c40 0 71.833 11.499 95.5 34.499s40.667 56 51 99s15.5 94.5 15.5 154.5
c0 90.667 -12 161.334 -36 212.001s-65.667 76 -125 76c-40 0 -72.167 -11.5 -96.5 -34.5s-41.833 -56 -52.5 -99s-16 -94.5 -16 -154.5s5.33301 -111.5 16 -154.5s28 -76 52 -99s56 -34.5 96 -34.5zM120 783.999c2 20 5.83398 37.833 11.501 53.5s13.167 29 22.5 40
s20.333 19.5 33 25.5s27 9 43 9c14 0 27.5 -2.83301 40.5 -8.5s25.5 -12.334 37.5 -20.001s23.5 -14.334 34.5 -20.001s21.833 -8.5 32.5 -8.5c15.333 0 27.166 4.83301 35.499 14.5s14.833 24.167 19.5 43.5h50c-4 -38.667 -15.333 -69.667 -34 -93s-43.667 -35 -75 -35
c-14 0 -27.333 2.83301 -40 8.5s-24.834 12.334 -36.501 20.001s-23.167 14.334 -34.5 20.001s-22.666 8.5 -33.999 8.5c-16 0 -28 -4.83301 -36 -14.5s-14.333 -24.167 -19 -43.5h-51z" />
    <glyph glyph-name="Odieresis" unicode="&#xd6;" 
d="M299 -10c-44.667 0 -83 8.83301 -115 26.5s-58.333 42.667 -79 75s-35.834 71 -45.501 116s-14.5 94.833 -14.5 149.5c0 73.333 8.83301 137.666 26.5 192.999s45.334 98.5 83.001 129.5s86.167 46.5 145.5 46.5c44.667 0 83 -8.66699 115 -26s58.333 -42.333 79 -75
s36 -71.334 46 -116.001s15 -94.667 15 -150s-5 -105.666 -15 -150.999s-25.333 -84.166 -46 -116.499s-47.167 -57.333 -79.5 -75s-70.833 -26.5 -115.5 -26.5zM301 70c40 0 71.833 11.499 95.5 34.499s40.667 56 51 99s15.5 94.5 15.5 154.5
c0 90.667 -12 161.334 -36 212.001s-65.667 76 -125 76c-40 0 -72.167 -11.5 -96.5 -34.5s-41.833 -56 -52.5 -99s-16 -94.5 -16 -154.5s5.33301 -111.5 16 -154.5s28 -76 52 -99s56 -34.5 96 -34.5zM414 799.999c-14.667 0 -27.334 4.83301 -38.001 14.5s-16 24.5 -16 44.5
c0 20.667 5.33301 35.334 16 44.001s23.334 13 38.001 13s27.5 -4.33301 38.5 -13s16.5 -23.334 16.5 -44.001c0 -20 -5.5 -34.833 -16.5 -44.5s-23.833 -14.5 -38.5 -14.5zM185 799.999c-14.667 0 -27.334 4.83301 -38.001 14.5s-16 24.5 -16 44.5
c0 20.667 5.33301 35.334 16 44.001s23.334 13 38.001 13s27.5 -4.33301 38.5 -13s16.5 -23.334 16.5 -44.001c0 -20 -5.5 -34.833 -16.5 -44.5s-23.833 -14.5 -38.5 -14.5z" />
    <glyph glyph-name="multiply" unicode="&#xd7;" 
d="M136 138l-50 49l164 166l-165 165l50 50l165 -166l167 166l49 -49l-166 -166l165 -166l-49 -49l-167 164z" />
    <glyph glyph-name="Oslash" unicode="&#xd8;" 
d="M121 -38l-65 35l430 752l64 -35zM299 -10c-44.667 0 -83 8.83301 -115 26.5s-58.333 42.667 -79 75s-35.834 71 -45.501 116s-14.5 94.833 -14.5 149.5c0 73.333 8.83301 137.666 26.5 192.999s45.334 98.5 83.001 129.5s86.167 46.5 145.5 46.5
c44.667 0 83 -8.66699 115 -26s58.333 -42.333 79 -75s36 -71.334 46 -116.001s15 -94.667 15 -150s-5 -105.666 -15 -150.999s-25.333 -84.166 -46 -116.499s-47.167 -57.333 -79.5 -75s-70.833 -26.5 -115.5 -26.5zM301 70c40 0 71.833 11.499 95.5 34.499
s40.667 56 51 99s15.5 94.5 15.5 154.5c0 90.667 -12 161.334 -36 212.001s-65.667 76 -125 76c-40 0 -72.167 -11.5 -96.5 -34.5s-41.833 -56 -52.5 -99s-16 -94.5 -16 -154.5s5.33301 -111.5 16 -154.5s28 -76 52 -99s56 -34.5 96 -34.5z" />
    <glyph glyph-name="Ugrave" unicode="&#xd9;" 
d="M298 -10c-54.667 0 -98.8311 10.833 -132.498 32.5s-58 52.334 -73 92.001s-22.5 86.167 -22.5 139.5v460h90v-455c0 -37.333 4.16699 -70.333 12.5 -99s22.666 -50.834 42.999 -66.501s48.5 -23.5 84.5 -23.5c38 0 67.167 8.33301 87.5 25s34.166 39.5 41.499 68.5
s11 61.167 11 96.5v454h90v-462c0 -49.333 -7.33301 -93.833 -22 -133.5s-39 -71 -73 -94s-79.667 -34.5 -137 -34.5zM311.003 784c-11.333 9.33301 -24 20.501 -38 33.501s-27.833 26.667 -41.5 41s-26 28.166 -37 41.499s-19.5 24.666 -25.5 33.999v10h105
c7.33301 -14.667 16.5 -31.167 27.5 -49.5s22.667 -36.166 35 -53.499s23.5 -32.333 33.5 -45v-12h-59z" />
    <glyph glyph-name="Uacute" unicode="&#xda;" 
d="M298 -10c-54.667 0 -98.8311 10.833 -132.498 32.5s-58 52.334 -73 92.001s-22.5 86.167 -22.5 139.5v460h90v-455c0 -37.333 4.16699 -70.333 12.5 -99s22.666 -50.834 42.999 -66.501s48.5 -23.5 84.5 -23.5c38 0 67.167 8.33301 87.5 25s34.166 39.5 41.499 68.5
s11 61.167 11 96.5v454h90v-462c0 -49.333 -7.33301 -93.833 -22 -133.5s-39 -71 -73 -94s-79.667 -34.5 -137 -34.5zM259.003 796c10 12.667 20.834 27.668 32.501 45.001s23.167 35.166 34.5 53.499s20.666 34.833 27.999 49.5h106v-10c-8 -12 -20.333 -27.5 -37 -46.5
s-34.5 -38 -53.5 -57s-36.5 -34.5 -52.5 -46.5h-58v12z" />
    <glyph glyph-name="Ucircumflex" unicode="&#xdb;" 
d="M298 -10c-54.667 0 -98.8311 10.833 -132.498 32.5s-58 52.334 -73 92.001s-22.5 86.167 -22.5 139.5v460h90v-455c0 -37.333 4.16699 -70.333 12.5 -99s22.666 -50.834 42.999 -66.501s48.5 -23.5 84.5 -23.5c38 0 67.167 8.33301 87.5 25s34.166 39.5 41.499 68.5
s11 61.167 11 96.5v454h90v-462c0 -49.333 -7.33301 -93.833 -22 -133.5s-39 -71 -73 -94s-79.667 -34.5 -137 -34.5zM131.003 795c12.667 13.333 26.8311 28.6689 42.498 46.002s30.834 35.166 45.501 53.499s26.334 34.833 35.001 49.5h90
c8 -14.667 19.5 -31.167 34.5 -49.5s30.667 -36.333 47 -54s30.833 -32.834 43.5 -45.501v-11h-62c-17.333 10.667 -35.333 25 -54 43s-37 36 -55 54c-18 -18 -36 -35.833 -54 -53.5s-35.667 -32.167 -53 -43.5h-60v11z" />
    <glyph glyph-name="Udieresis" unicode="&#xdc;" 
d="M298 -10c-54.667 0 -98.8311 10.833 -132.498 32.5s-58 52.334 -73 92.001s-22.5 86.167 -22.5 139.5v460h90v-455c0 -37.333 4.16699 -70.333 12.5 -99s22.666 -50.834 42.999 -66.501s48.5 -23.5 84.5 -23.5c38 0 67.167 8.33301 87.5 25s34.166 39.5 41.499 68.5
s11 61.167 11 96.5v454h90v-462c0 -49.333 -7.33301 -93.833 -22 -133.5s-39 -71 -73 -94s-79.667 -34.5 -137 -34.5zM414.003 800c-14.667 0 -27.334 4.83301 -38.001 14.5s-16 24.5 -16 44.5c0 20.667 5.33301 35.334 16 44.001s23.334 13 38.001 13
s27.5 -4.33301 38.5 -13s16.5 -23.334 16.5 -44.001c0 -20 -5.5 -34.833 -16.5 -44.5s-23.833 -14.5 -38.5 -14.5zM185.003 800c-14.667 0 -27.334 4.83301 -38.001 14.5s-16 24.5 -16 44.5c0 20.667 5.33301 35.334 16 44.001s23.334 13 38.001 13s27.5 -4.33301 38.5 -13
s16.5 -23.334 16.5 -44.001c0 -20 -5.5 -34.833 -16.5 -44.5s-23.833 -14.5 -38.5 -14.5z" />
    <glyph glyph-name="Yacute" unicode="&#xdd;" 
d="M257 0v278l-222 436h99l167 -361l168 361h96l-222 -436v-278h-86zM259 796c10 12.667 20.834 27.668 32.501 45.001s23.167 35.166 34.5 53.499s20.666 34.833 27.999 49.5h106v-10c-8 -12 -20.333 -27.5 -37 -46.5s-34.5 -38 -53.5 -57s-36.5 -34.5 -52.5 -46.5h-58v12z
" />
    <glyph glyph-name="Thorn" unicode="&#xde;" 
d="M95 0l0.00195312 713.999h90v-130h114c85.333 0 147.666 -18.167 186.999 -54.5s59 -87.833 59 -154.5c0 -39.333 -8.16699 -76.666 -24.5 -111.999s-43.333 -63.833 -81 -85.5s-88.834 -32.5 -153.501 -32.5h-101v-145h-90zM276.002 222.999
c39.333 0 72.166 4.99902 98.499 14.999s46 25.833 59 47.5s19.5 49.834 19.5 84.501c0 45.333 -13.167 79.333 -39.5 102s-67.166 34 -122.499 34h-106v-283h91z" />
    <glyph glyph-name="germandbls" unicode="&#xdf;" 
d="M385 -10c-28.667 0 -54.9961 3 -78.9961 9s-44.667 14.333 -62 25v81c17.333 -10.667 38.666 -20.334 63.999 -29.001s52 -13 80 -13c35.333 0 60.666 7.83301 75.999 23.5s23 37.834 23 66.501c0 16.667 -2.83301 30.334 -8.5 41.001s-15.167 21.334 -28.5 32.001
s-32.333 24.334 -57 41.001c-24.667 17.333 -45 32.666 -61 45.999s-27.833 27 -35.5 41s-11.5 30.333 -11.5 49c0 22.667 4.5 41.667 13.5 57s20.333 28.5 34 39.5s27.167 21.667 40.5 32s24.5 21.666 33.5 33.999s13.5 27.166 13.5 44.499c0 27.333 -11.5 47.333 -34.5 60
s-53.167 19 -90.5 19c-23.333 0 -45 -3.16699 -65 -9.5s-36.167 -17.166 -48.5 -32.499s-18.5 -37.333 -18.5 -66v-581h-88v584c0 44.667 9.66699 80.167 29 106.5s45.5 45.333 78.5 57s70.5 17.5 112.5 17.5c43.333 0 81.166 -5.5 113.499 -16.5s57.5 -27.167 75.5 -48.5
s27 -48 27 -80c0 -24 -4.66699 -44.667 -14 -62s-21 -32.5 -35 -45.5s-28 -24.833 -42 -35.5s-25.667 -21.5 -35 -32.5s-14 -23.5 -14 -37.5c0 -8.66699 2.66699 -16.5 8 -23.5s14.5 -14.833 27.5 -23.5s30.5 -21 52.5 -37c23.333 -16 43.666 -31.667 60.999 -47
s30.833 -32.833 40.5 -52.5s14.5 -44.167 14.5 -73.5c0 -36.667 -8 -66.834 -24 -90.501s-38.167 -41.167 -66.5 -52.5s-61.5 -17 -99.5 -17z" />
    <glyph glyph-name="agrave" unicode="&#xe0;" 
d="M246 -10c-52.667 0 -95.165 12.9971 -127.498 38.9971s-48.5 65.333 -48.5 118c0 38.667 9.33301 70.834 28 96.501s46.167 45 82.5 58s80.5 20.167 132.5 21.5l115 3v22c0 48 -12 80.833 -36 98.5s-56.333 26.5 -97 26.5c-28.667 0 -56 -3.66699 -82 -11
s-50.667 -17.666 -74 -30.999l-31 68c25.333 12.667 53.5 23.667 84.5 33s66.833 14 107.5 14c67.333 0 119.166 -15.167 155.499 -45.5s54.5 -77.5 54.5 -141.5v-359h-72l-10 74h-4c-14.667 -18.667 -30.834 -34.167 -48.501 -46.5s-37.167 -21.666 -58.5 -27.999
s-45 -9.5 -71 -9.5zM261.002 62.9971c30 0 57.668 5.50098 83.001 16.501s45.666 27.667 60.999 50s23 50.5 23 84.5v48l-96 -3c-42.667 -1.33301 -77 -6.5 -103 -15.5s-44.833 -21.333 -56.5 -37s-17.5 -34.5 -17.5 -56.5c0 -30.667 9.66699 -52.834 29 -66.501
s45 -20.5 77 -20.5zM316.003 605.998c-11.333 9.33301 -24 20.501 -38 33.501s-27.833 26.667 -41.5 41s-26 28.166 -37 41.499s-19.5 24.666 -25.5 33.999v10h105c7.33301 -14.667 16.5 -31.167 27.5 -49.5s22.667 -36.166 35 -53.499s23.5 -32.333 33.5 -45v-12h-59z" />
    <glyph glyph-name="aacute" unicode="&#xe1;" 
d="M246 -10c-52.667 0 -95.165 12.9971 -127.498 38.9971s-48.5 65.333 -48.5 118c0 38.667 9.33301 70.834 28 96.501s46.167 45 82.5 58s80.5 20.167 132.5 21.5l115 3v22c0 48 -12 80.833 -36 98.5s-56.333 26.5 -97 26.5c-28.667 0 -56 -3.66699 -82 -11
s-50.667 -17.666 -74 -30.999l-31 68c25.333 12.667 53.5 23.667 84.5 33s66.833 14 107.5 14c67.333 0 119.166 -15.167 155.499 -45.5s54.5 -77.5 54.5 -141.5v-359h-72l-10 74h-4c-14.667 -18.667 -30.834 -34.167 -48.501 -46.5s-37.167 -21.666 -58.5 -27.999
s-45 -9.5 -71 -9.5zM261.002 62.9971c30 0 57.668 5.50098 83.001 16.501s45.666 27.667 60.999 50s23 50.5 23 84.5v48l-96 -3c-42.667 -1.33301 -77 -6.5 -103 -15.5s-44.833 -21.333 -56.5 -37s-17.5 -34.5 -17.5 -56.5c0 -30.667 9.66699 -52.834 29 -66.501
s45 -20.5 77 -20.5zM264.003 617.998c10 12.667 20.834 27.668 32.501 45.001s23.167 35.166 34.5 53.499s20.666 34.833 27.999 49.5h106v-10c-8 -12 -20.333 -27.5 -37 -46.5s-34.5 -38 -53.5 -57s-36.5 -34.5 -52.5 -46.5h-58v12z" />
    <glyph glyph-name="acircumflex" unicode="&#xe2;" 
d="M246 -10c-52.667 0 -95.165 12.9971 -127.498 38.9971s-48.5 65.333 -48.5 118c0 38.667 9.33301 70.834 28 96.501s46.167 45 82.5 58s80.5 20.167 132.5 21.5l115 3v22c0 48 -12 80.833 -36 98.5s-56.333 26.5 -97 26.5c-28.667 0 -56 -3.66699 -82 -11
s-50.667 -17.666 -74 -30.999l-31 68c25.333 12.667 53.5 23.667 84.5 33s66.833 14 107.5 14c67.333 0 119.166 -15.167 155.499 -45.5s54.5 -77.5 54.5 -141.5v-359h-72l-10 74h-4c-14.667 -18.667 -30.834 -34.167 -48.501 -46.5s-37.167 -21.666 -58.5 -27.999
s-45 -9.5 -71 -9.5zM261.002 62.9971c30 0 57.668 5.50098 83.001 16.501s45.666 27.667 60.999 50s23 50.5 23 84.5v48l-96 -3c-42.667 -1.33301 -77 -6.5 -103 -15.5s-44.833 -21.333 -56.5 -37s-17.5 -34.5 -17.5 -56.5c0 -30.667 9.66699 -52.834 29 -66.501
s45 -20.5 77 -20.5zM136.003 616.998c12.667 13.333 26.8311 28.6689 42.498 46.002s30.834 35.166 45.501 53.499s26.334 34.833 35.001 49.5h90c8 -14.667 19.5 -31.167 34.5 -49.5s30.667 -36.333 47 -54s30.833 -32.834 43.5 -45.501v-11h-62
c-17.333 10.667 -35.333 25 -54 43s-37 36 -55 54c-18 -18 -36 -35.833 -54 -53.5s-35.667 -32.167 -53 -43.5h-60v11z" />
    <glyph glyph-name="atilde" unicode="&#xe3;" 
d="M246 -10c-52.667 0 -95.165 12.9971 -127.498 38.9971s-48.5 65.333 -48.5 118c0 38.667 9.33301 70.834 28 96.501s46.167 45 82.5 58s80.5 20.167 132.5 21.5l115 3v22c0 48 -12 80.833 -36 98.5s-56.333 26.5 -97 26.5c-28.667 0 -56 -3.66699 -82 -11
s-50.667 -17.666 -74 -30.999l-31 68c25.333 12.667 53.5 23.667 84.5 33s66.833 14 107.5 14c67.333 0 119.166 -15.167 155.499 -45.5s54.5 -77.5 54.5 -141.5v-359h-72l-10 74h-4c-14.667 -18.667 -30.834 -34.167 -48.501 -46.5s-37.167 -21.666 -58.5 -27.999
s-45 -9.5 -71 -9.5zM261.002 62.9971c30 0 57.668 5.50098 83.001 16.501s45.666 27.667 60.999 50s23 50.5 23 84.5v48l-96 -3c-42.667 -1.33301 -77 -6.5 -103 -15.5s-44.833 -21.333 -56.5 -37s-17.5 -34.5 -17.5 -56.5c0 -30.667 9.66699 -52.834 29 -66.501
s45 -20.5 77 -20.5zM125.003 605.998c2 20 5.83398 37.833 11.501 53.5s13.167 29 22.5 40s20.333 19.5 33 25.5s27 9 43 9c14 0 27.5 -2.83301 40.5 -8.5s25.5 -12.334 37.5 -20.001s23.5 -14.334 34.5 -20.001s21.833 -8.5 32.5 -8.5c15.333 0 27.166 4.83301 35.499 14.5
s14.833 24.167 19.5 43.5h50c-4 -38.667 -15.333 -69.667 -34 -93s-43.667 -35 -75 -35c-14 0 -27.333 2.83301 -40 8.5s-24.834 12.334 -36.501 20.001s-23.167 14.334 -34.5 20.001s-22.666 8.5 -33.999 8.5c-16 0 -28 -4.83301 -36 -14.5s-14.333 -24.167 -19 -43.5h-51z
" />
    <glyph glyph-name="adieresis" unicode="&#xe4;" 
d="M246 -10c-52.667 0 -95.165 12.9971 -127.498 38.9971s-48.5 65.333 -48.5 118c0 38.667 9.33301 70.834 28 96.501s46.167 45 82.5 58s80.5 20.167 132.5 21.5l115 3v22c0 48 -12 80.833 -36 98.5s-56.333 26.5 -97 26.5c-28.667 0 -56 -3.66699 -82 -11
s-50.667 -17.666 -74 -30.999l-31 68c25.333 12.667 53.5 23.667 84.5 33s66.833 14 107.5 14c67.333 0 119.166 -15.167 155.499 -45.5s54.5 -77.5 54.5 -141.5v-359h-72l-10 74h-4c-14.667 -18.667 -30.834 -34.167 -48.501 -46.5s-37.167 -21.666 -58.5 -27.999
s-45 -9.5 -71 -9.5zM261.002 62.9971c30 0 57.668 5.50098 83.001 16.501s45.666 27.667 60.999 50s23 50.5 23 84.5v48l-96 -3c-42.667 -1.33301 -77 -6.5 -103 -15.5s-44.833 -21.333 -56.5 -37s-17.5 -34.5 -17.5 -56.5c0 -30.667 9.66699 -52.834 29 -66.501
s45 -20.5 77 -20.5zM419.003 621.998c-14.667 0 -27.334 4.83301 -38.001 14.5s-16 24.5 -16 44.5c0 20.667 5.33301 35.334 16 44.001s23.334 13 38.001 13s27.5 -4.33301 38.5 -13s16.5 -23.334 16.5 -44.001c0 -20 -5.5 -34.833 -16.5 -44.5s-23.833 -14.5 -38.5 -14.5z
M190.003 621.998c-14.667 0 -27.334 4.83301 -38.001 14.5s-16 24.5 -16 44.5c0 20.667 5.33301 35.334 16 44.001s23.334 13 38.001 13s27.5 -4.33301 38.5 -13s16.5 -23.334 16.5 -44.001c0 -20 -5.5 -34.833 -16.5 -44.5s-23.833 -14.5 -38.5 -14.5z" />
    <glyph glyph-name="aring" unicode="&#xe5;" 
d="M246 -10c-52.667 0 -95.165 12.9971 -127.498 38.9971s-48.5 65.333 -48.5 118c0 38.667 9.33301 70.834 28 96.501s46.167 45 82.5 58s80.5 20.167 132.5 21.5l115 3v22c0 48 -12 80.833 -36 98.5s-56.333 26.5 -97 26.5c-28.667 0 -56 -3.66699 -82 -11
s-50.667 -17.666 -74 -30.999l-31 68c25.333 12.667 53.5 23.667 84.5 33s66.833 14 107.5 14c67.333 0 119.166 -15.167 155.499 -45.5s54.5 -77.5 54.5 -141.5v-359h-72l-10 74h-4c-14.667 -18.667 -30.834 -34.167 -48.501 -46.5s-37.167 -21.666 -58.5 -27.999
s-45 -9.5 -71 -9.5zM261.002 62.9971c30 0 57.668 5.50098 83.001 16.501s45.666 27.667 60.999 50s23 50.5 23 84.5v48l-96 -3c-42.667 -1.33301 -77 -6.5 -103 -15.5s-44.833 -21.333 -56.5 -37s-17.5 -34.5 -17.5 -56.5c0 -30.667 9.66699 -52.834 29 -66.501
s45 -20.5 77 -20.5zM304.003 605.998c-32.667 0 -58.999 9.33398 -78.999 28.001s-30 44.667 -30 78s10 59.166 30 77.499s46.333 27.5 79 27.5c31.333 0 57.666 -9.16699 78.999 -27.5s32 -43.833 32 -76.5c0 -34 -10.5 -60.333 -31.5 -79s-47.5 -28 -79.5 -28z
M304.004 657.999c16 0 28.999 4.83301 38.999 14.5s15 22.834 15 39.501c0 17.333 -5.16699 30.666 -15.5 39.999s-23.166 14 -38.499 14c-14.667 0 -27.167 -4.66699 -37.5 -14s-15.5 -22.666 -15.5 -39.999c0 -16.667 5 -29.834 15 -39.501s22.667 -14.5 38 -14.5z" />
    <glyph glyph-name="ae" unicode="&#xe6;" 
d="M145 -10c-34 0 -63.3359 13.001 -88.0029 39.001s-37 66.333 -37 121c0 35.333 6.33301 65.5 19 90.5s31 44.333 55 58s52.667 20.834 86 21.501l78 2v34c0 43.333 -6.66699 73.666 -20 90.999s-32.666 26 -57.999 26c-15.333 0 -31.5 -3.5 -48.5 -10.5
s-32.167 -16.167 -45.5 -27.5l-31 64c16.667 13.333 37.167 24.5 61.5 33.5s46.833 13.5 67.5 13.5c32 0 58.5 -6.33301 79.5 -19s36.833 -32.667 47.5 -60c11.333 25.333 27.333 44.833 48 58.5s45.334 20.5 74.001 20.5c30.667 0 57 -9.33301 79 -28
s38.833 -45.834 50.5 -81.501s17.5 -79.167 17.5 -130.5v-55h-245c0.666992 -46 6 -82.833 16 -110.5s23.833 -47.5 41.5 -59.5s37.834 -18 60.501 -18c21.333 0 40.833 3.33301 58.5 10s36.167 17.334 55.5 32.001v-79c-18.667 -12.667 -37 -21.834 -55 -27.501
s-39 -8.5 -63 -8.5c-32 0 -61.667 7.83301 -89 23.5s-48.333 43.834 -63 84.501c-16.667 -38.667 -37.167 -66.334 -61.5 -83.001s-54.5 -25 -90.5 -25zM160.997 63.001c16.667 0 32.168 4.66992 46.501 14.0029s26 25.166 35 47.499s13.5 52.166 13.5 89.499v45l-45 -3
c-38.667 -2.66699 -66.834 -12.834 -84.501 -30.501s-26.5 -43.167 -26.5 -76.5c0 -30 6 -51.833 18 -65.5s26.333 -20.5 43 -20.5zM497.998 321.004c0 33.333 -2.50098 61.333 -7.50098 84s-12.833 39.667 -23.5 51s-25 17 -43 17c-23.333 0 -43.166 -13 -59.499 -39
s-25.5 -63.667 -27.5 -113h161z" />
    <glyph glyph-name="ccedilla" unicode="&#xe7;" 
d="M338 -10c-52 0 -97.002 9.49805 -135.002 28.498s-67.167 48.667 -87.5 89s-30.5 92.5 -30.5 156.5c0 68.667 11.167 123.667 33.5 165s53.333 71.166 93 89.499s84.834 27.5 135.501 27.5c31.333 0 59.833 -3.16699 85.5 -9.5s49.834 -15.5 72.501 -27.5l-27 -73
c-21.333 11.333 -42 19.5 -62 24.5s-41.667 7.5 -65 7.5c-40.667 0 -73.834 -7.5 -99.501 -22.5s-44.5 -37.333 -56.5 -67s-18 -67.167 -18 -112.5c0 -47.333 6.33301 -85.666 19 -114.999s31.834 -50.666 57.501 -63.999s57.167 -20 94.5 -20c29.333 0 57 3.16699 83 9.5
s48.667 13.833 68 22.5v-79c-20 -9.33301 -44.667 -16.666 -74 -21.999s-58.333 -8 -87 -8zM278.998 -240.002c-10.667 0 -20.499 0.500977 -29.499 1.50098s-16.167 2.16699 -21.5 3.5v55c6 -1.33301 14 -2.5 24 -3.5s19.667 -1.5 29 -1.5c23.333 0 41.5 3.16699 54.5 9.5
s19.5 17.5 19.5 33.5c0 17.333 -7.83301 30 -23.5 38s-38.167 14 -67.5 18l43 91h58l-26 -58c24 -5.33301 44.5 -14.5 61.5 -27.5s25.5 -33.167 25.5 -60.5c0 -30.667 -12.333 -54.834 -37 -72.501s-61.334 -26.5 -110.001 -26.5z" />
    <glyph glyph-name="egrave" unicode="&#xe8;" 
d="M337 -10c-57.333 0 -106.666 10.668 -147.999 32.001s-73.166 52.5 -95.499 93.5s-33.5 91.167 -33.5 150.5c0 58.667 10.667 108.834 32 150.501s51 73.667 89 96s82.333 33.5 133 33.5c46.667 0 86.834 -10.333 120.501 -31s59.667 -49.834 78 -87.501
s27.5 -82.834 27.5 -135.501v-41h-389c1.33301 -46.667 10.166 -83.667 26.499 -111s38.666 -46.833 66.999 -58.5s61.166 -17.5 98.499 -17.5c29.333 0 58.333 4 87 12s57.334 18.667 86.001 32v-80c-30.667 -13.333 -61.334 -23 -92.001 -29s-59.667 -9 -87 -9z
M450 323.001c-1.33301 31.333 -7.33008 58.167 -17.9971 80.5s-25.834 39.5 -45.501 51.5s-43.834 18 -72.501 18c-44.667 0 -80.834 -13.5 -108.501 -40.5s-45.167 -63.5 -52.5 -109.5h297zM315.003 606.002c-11.333 9.33301 -24 20.501 -38 33.501
s-27.833 26.667 -41.5 41s-26 28.166 -37 41.499s-19.5 24.666 -25.5 33.999v10h105c7.33301 -14.667 16.5 -31.167 27.5 -49.5s22.667 -36.166 35 -53.499s23.5 -32.333 33.5 -45v-12h-59z" />
    <glyph glyph-name="eacute" unicode="&#xe9;" 
d="M337 -10c-57.333 0 -106.666 10.668 -147.999 32.001s-73.166 52.5 -95.499 93.5s-33.5 91.167 -33.5 150.5c0 58.667 10.667 108.834 32 150.501s51 73.667 89 96s82.333 33.5 133 33.5c46.667 0 86.834 -10.333 120.501 -31s59.667 -49.834 78 -87.501
s27.5 -82.834 27.5 -135.501v-41h-389c1.33301 -46.667 10.166 -83.667 26.499 -111s38.666 -46.833 66.999 -58.5s61.166 -17.5 98.499 -17.5c29.333 0 58.333 4 87 12s57.334 18.667 86.001 32v-80c-30.667 -13.333 -61.334 -23 -92.001 -29s-59.667 -9 -87 -9z
M450 323.001c-1.33301 31.333 -7.33008 58.167 -17.9971 80.5s-25.834 39.5 -45.501 51.5s-43.834 18 -72.501 18c-44.667 0 -80.834 -13.5 -108.501 -40.5s-45.167 -63.5 -52.5 -109.5h297zM263.003 618.002c10 12.667 20.834 27.668 32.501 45.001
s23.167 35.166 34.5 53.499s20.666 34.833 27.999 49.5h106v-10c-8 -12 -20.333 -27.5 -37 -46.5s-34.5 -38 -53.5 -57s-36.5 -34.5 -52.5 -46.5h-58v12z" />
    <glyph glyph-name="ecircumflex" unicode="&#xea;" 
d="M337 -10c-57.333 0 -106.666 10.668 -147.999 32.001s-73.166 52.5 -95.499 93.5s-33.5 91.167 -33.5 150.5c0 58.667 10.667 108.834 32 150.501s51 73.667 89 96s82.333 33.5 133 33.5c46.667 0 86.834 -10.333 120.501 -31s59.667 -49.834 78 -87.501
s27.5 -82.834 27.5 -135.501v-41h-389c1.33301 -46.667 10.166 -83.667 26.499 -111s38.666 -46.833 66.999 -58.5s61.166 -17.5 98.499 -17.5c29.333 0 58.333 4 87 12s57.334 18.667 86.001 32v-80c-30.667 -13.333 -61.334 -23 -92.001 -29s-59.667 -9 -87 -9z
M450 323.001c-1.33301 31.333 -7.33008 58.167 -17.9971 80.5s-25.834 39.5 -45.501 51.5s-43.834 18 -72.501 18c-44.667 0 -80.834 -13.5 -108.501 -40.5s-45.167 -63.5 -52.5 -109.5h297zM135.003 617.002c12.667 13.333 26.8311 28.6689 42.498 46.002
s30.834 35.166 45.501 53.499s26.334 34.833 35.001 49.5h90c8 -14.667 19.5 -31.167 34.5 -49.5s30.667 -36.333 47 -54s30.833 -32.834 43.5 -45.501v-11h-62c-17.333 10.667 -35.333 25 -54 43s-37 36 -55 54c-18 -18 -36 -35.833 -54 -53.5s-35.667 -32.167 -53 -43.5
h-60v11z" />
    <glyph glyph-name="edieresis" unicode="&#xeb;" 
d="M337 -10c-57.333 0 -106.666 10.668 -147.999 32.001s-73.166 52.5 -95.499 93.5s-33.5 91.167 -33.5 150.5c0 58.667 10.667 108.834 32 150.501s51 73.667 89 96s82.333 33.5 133 33.5c46.667 0 86.834 -10.333 120.501 -31s59.667 -49.834 78 -87.501
s27.5 -82.834 27.5 -135.501v-41h-389c1.33301 -46.667 10.166 -83.667 26.499 -111s38.666 -46.833 66.999 -58.5s61.166 -17.5 98.499 -17.5c29.333 0 58.333 4 87 12s57.334 18.667 86.001 32v-80c-30.667 -13.333 -61.334 -23 -92.001 -29s-59.667 -9 -87 -9z
M450 323.001c-1.33301 31.333 -7.33008 58.167 -17.9971 80.5s-25.834 39.5 -45.501 51.5s-43.834 18 -72.501 18c-44.667 0 -80.834 -13.5 -108.501 -40.5s-45.167 -63.5 -52.5 -109.5h297zM418.003 622.002c-14.667 0 -27.334 4.83301 -38.001 14.5s-16 24.5 -16 44.5
c0 20.667 5.33301 35.334 16 44.001s23.334 13 38.001 13s27.5 -4.33301 38.5 -13s16.5 -23.334 16.5 -44.001c0 -20 -5.5 -34.833 -16.5 -44.5s-23.833 -14.5 -38.5 -14.5zM189.003 622.002c-14.667 0 -27.334 4.83301 -38.001 14.5s-16 24.5 -16 44.5
c0 20.667 5.33301 35.334 16 44.001s23.334 13 38.001 13s27.5 -4.33301 38.5 -13s16.5 -23.334 16.5 -44.001c0 -20 -5.5 -34.833 -16.5 -44.5s-23.833 -14.5 -38.5 -14.5z" />
    <glyph glyph-name="igrave" unicode="&#xec;" 
d="M80 0v60l191 15v386l-175 13v62h265v-461l179 -15v-60h-460zM311 606c-11.333 9.33301 -24 20.501 -38 33.501s-27.833 26.667 -41.5 41s-26 28.166 -37 41.499s-19.5 24.666 -25.5 33.999v10h105c7.33301 -14.667 16.5 -31.167 27.5 -49.5s22.667 -36.166 35 -53.499
s23.5 -32.333 33.5 -45v-12h-59z" />
    <glyph glyph-name="iacute" unicode="&#xed;" 
d="M80 0v60l191 15v386l-175 13v62h265v-461l179 -15v-60h-460zM259 618c10 12.667 20.834 27.668 32.501 45.001s23.167 35.166 34.5 53.499s20.666 34.833 27.999 49.5h106v-10c-8 -12 -20.333 -27.5 -37 -46.5s-34.5 -38 -53.5 -57s-36.5 -34.5 -52.5 -46.5h-58v12z" />
    <glyph glyph-name="icircumflex" unicode="&#xee;" 
d="M80 0v60l191 15v386l-175 13v62h265v-461l179 -15v-60h-460zM131 617c12.667 13.333 26.8311 28.6689 42.498 46.002s30.834 35.166 45.501 53.499s26.334 34.833 35.001 49.5h90c8 -14.667 19.5 -31.167 34.5 -49.5s30.667 -36.333 47 -54s30.833 -32.834 43.5 -45.501
v-11h-62c-17.333 10.667 -35.333 25 -54 43s-37 36 -55 54c-18 -18 -36 -35.833 -54 -53.5s-35.667 -32.167 -53 -43.5h-60v11z" />
    <glyph glyph-name="idieresis" unicode="&#xef;" 
d="M80 0v60l191 15v386l-175 13v62h265v-461l179 -15v-60h-460zM414 622c-14.667 0 -27.334 4.83301 -38.001 14.5s-16 24.5 -16 44.5c0 20.667 5.33301 35.334 16 44.001s23.334 13 38.001 13s27.5 -4.33301 38.5 -13s16.5 -23.334 16.5 -44.001
c0 -20 -5.5 -34.833 -16.5 -44.5s-23.833 -14.5 -38.5 -14.5zM185 622c-14.667 0 -27.334 4.83301 -38.001 14.5s-16 24.5 -16 44.5c0 20.667 5.33301 35.334 16 44.001s23.334 13 38.001 13s27.5 -4.33301 38.5 -13s16.5 -23.334 16.5 -44.001
c0 -20 -5.5 -34.833 -16.5 -44.5s-23.833 -14.5 -38.5 -14.5z" />
    <glyph glyph-name="eth" unicode="&#xf0;" 
d="M301 -10c-48 0 -90.499 9.83496 -127.499 29.502s-66 47.667 -87 84s-31.5 79.5 -31.5 129.5s9.66699 92.833 29 128.5s46.5 63.167 81.5 82.5s76.5 29 124.5 29c35.333 0 66.166 -4.66699 92.499 -14s47.5 -24 63.5 -44l4 2c-10 31.333 -24 61 -42 89
s-38.833 54 -62.5 78s-49.5 46.167 -77.5 66.5s-57.333 38.5 -88 54.5l36 60c50 -24 95.167 -53 135.5 -87s75 -72.167 104 -114.5s51.167 -87.833 66.5 -136.5s23 -99.334 23 -152.001c0 -94.667 -21.833 -165.834 -65.5 -213.501s-103.167 -71.5 -178.5 -71.5z
M303.001 62.002c35.333 0 64.3311 7.16406 86.998 21.4971s39.334 35.666 50.001 63.999s16 62.833 16 103.5c0 28 -5.5 53.333 -16.5 76s-27.833 40.834 -50.5 54.501s-51.334 20.5 -86.001 20.5c-37.333 0 -67.666 -6.66699 -90.999 -20s-40.5 -32.666 -51.5 -57.999
s-16.5 -56.666 -16.5 -93.999c0 -32.667 5.5 -61.667 16.5 -87s28.333 -45.166 52 -59.499s53.834 -21.5 90.501 -21.5zM195.999 532.999l-38 55l299 172l38 -54z" />
    <glyph glyph-name="ntilde" unicode="&#xf1;" 
d="M80 0l-0.000976562 536.001h72l13 -79h5c10.667 20.667 24.5 37.5 41.5 50.5s36.833 22.667 59.5 29s47.334 9.5 74.001 9.5c54 0 97.5 -15.167 130.5 -45.5s49.5 -77.833 49.5 -142.5v-358h-90v342c0 45.333 -9.16699 78.5 -27.5 99.5s-47.833 31.5 -88.5 31.5
c-54.667 0 -93.167 -17.333 -115.5 -52s-33.5 -83.334 -33.5 -146.001v-275h-90zM131.999 606.001c2 20 5.83398 37.833 11.501 53.5s13.167 29 22.5 40s20.333 19.5 33 25.5s27 9 43 9c14 0 27.5 -2.83301 40.5 -8.5s25.5 -12.334 37.5 -20.001s23.5 -14.334 34.5 -20.001
s21.833 -8.5 32.5 -8.5c15.333 0 27.166 4.83301 35.499 14.5s14.833 24.167 19.5 43.5h50c-4 -38.667 -15.333 -69.667 -34 -93s-43.667 -35 -75 -35c-14 0 -27.333 2.83301 -40 8.5s-24.834 12.334 -36.501 20.001s-23.167 14.334 -34.5 20.001s-22.666 8.5 -33.999 8.5
c-16 0 -28 -4.83301 -36 -14.5s-14.333 -24.167 -19 -43.5h-51z" />
    <glyph glyph-name="ograve" unicode="&#xf2;" 
d="M301 -10c-34.667 0 -67.001 5.66895 -97.001 17.002s-56.167 28.666 -78.5 51.999s-39.666 52.5 -51.999 87.5s-18.5 76.167 -18.5 123.5c0 62 10.5 113.333 31.5 154s49.833 71.167 86.5 91.5s78.334 30.5 125.001 30.5s88.667 -10.167 126 -30.5s66.833 -51 88.5 -92
s32.5 -93.167 32.5 -156.5c0 -46.667 -6.16699 -87.334 -18.5 -122.001s-29.333 -63.5 -51 -86.5s-47.334 -40.167 -77.001 -51.5s-62.167 -17 -97.5 -17zM299.999 63.002c34.667 0 63.333 8.33301 86 25s39.667 40.5 51 71.5s17 67.5 17 109.5
c0 42.667 -5.66699 79.167 -17 109.5s-28.5 53.666 -51.5 69.999s-51.833 24.5 -86.5 24.5c-52 0 -90.833 -18.167 -116.5 -54.5s-38.5 -86.166 -38.5 -149.499c0 -42 5.83301 -78.5 17.5 -109.5s29 -54.833 52 -71.5s51.833 -25 86.5 -25zM310.998 606.002
c-11.333 9.33301 -24 20.501 -38 33.501s-27.833 26.667 -41.5 41s-26 28.166 -37 41.499s-19.5 24.666 -25.5 33.999v10h105c7.33301 -14.667 16.5 -31.167 27.5 -49.5s22.667 -36.166 35 -53.499s23.5 -32.333 33.5 -45v-12h-59z" />
    <glyph glyph-name="oacute" unicode="&#xf3;" 
d="M301 -10c-34.667 0 -67.001 5.66895 -97.001 17.002s-56.167 28.666 -78.5 51.999s-39.666 52.5 -51.999 87.5s-18.5 76.167 -18.5 123.5c0 62 10.5 113.333 31.5 154s49.833 71.167 86.5 91.5s78.334 30.5 125.001 30.5s88.667 -10.167 126 -30.5s66.833 -51 88.5 -92
s32.5 -93.167 32.5 -156.5c0 -46.667 -6.16699 -87.334 -18.5 -122.001s-29.333 -63.5 -51 -86.5s-47.334 -40.167 -77.001 -51.5s-62.167 -17 -97.5 -17zM299.999 63.002c34.667 0 63.333 8.33301 86 25s39.667 40.5 51 71.5s17 67.5 17 109.5
c0 42.667 -5.66699 79.167 -17 109.5s-28.5 53.666 -51.5 69.999s-51.833 24.5 -86.5 24.5c-52 0 -90.833 -18.167 -116.5 -54.5s-38.5 -86.166 -38.5 -149.499c0 -42 5.83301 -78.5 17.5 -109.5s29 -54.833 52 -71.5s51.833 -25 86.5 -25zM258.998 618.002
c10 12.667 20.834 27.668 32.501 45.001s23.167 35.166 34.5 53.499s20.666 34.833 27.999 49.5h106v-10c-8 -12 -20.333 -27.5 -37 -46.5s-34.5 -38 -53.5 -57s-36.5 -34.5 -52.5 -46.5h-58v12z" />
    <glyph glyph-name="ocircumflex" unicode="&#xf4;" 
d="M301 -10c-34.667 0 -67.001 5.66895 -97.001 17.002s-56.167 28.666 -78.5 51.999s-39.666 52.5 -51.999 87.5s-18.5 76.167 -18.5 123.5c0 62 10.5 113.333 31.5 154s49.833 71.167 86.5 91.5s78.334 30.5 125.001 30.5s88.667 -10.167 126 -30.5s66.833 -51 88.5 -92
s32.5 -93.167 32.5 -156.5c0 -46.667 -6.16699 -87.334 -18.5 -122.001s-29.333 -63.5 -51 -86.5s-47.334 -40.167 -77.001 -51.5s-62.167 -17 -97.5 -17zM299.999 63.002c34.667 0 63.333 8.33301 86 25s39.667 40.5 51 71.5s17 67.5 17 109.5
c0 42.667 -5.66699 79.167 -17 109.5s-28.5 53.666 -51.5 69.999s-51.833 24.5 -86.5 24.5c-52 0 -90.833 -18.167 -116.5 -54.5s-38.5 -86.166 -38.5 -149.499c0 -42 5.83301 -78.5 17.5 -109.5s29 -54.833 52 -71.5s51.833 -25 86.5 -25zM130.998 617.002
c12.667 13.333 26.8311 28.6689 42.498 46.002s30.834 35.166 45.501 53.499s26.334 34.833 35.001 49.5h90c8 -14.667 19.5 -31.167 34.5 -49.5s30.667 -36.333 47 -54s30.833 -32.834 43.5 -45.501v-11h-62c-17.333 10.667 -35.333 25 -54 43s-37 36 -55 54
c-18 -18 -36 -35.833 -54 -53.5s-35.667 -32.167 -53 -43.5h-60v11z" />
    <glyph glyph-name="otilde" unicode="&#xf5;" 
d="M301 -10c-34.667 0 -67.001 5.66895 -97.001 17.002s-56.167 28.666 -78.5 51.999s-39.666 52.5 -51.999 87.5s-18.5 76.167 -18.5 123.5c0 62 10.5 113.333 31.5 154s49.833 71.167 86.5 91.5s78.334 30.5 125.001 30.5s88.667 -10.167 126 -30.5s66.833 -51 88.5 -92
s32.5 -93.167 32.5 -156.5c0 -46.667 -6.16699 -87.334 -18.5 -122.001s-29.333 -63.5 -51 -86.5s-47.334 -40.167 -77.001 -51.5s-62.167 -17 -97.5 -17zM299.999 63.002c34.667 0 63.333 8.33301 86 25s39.667 40.5 51 71.5s17 67.5 17 109.5
c0 42.667 -5.66699 79.167 -17 109.5s-28.5 53.666 -51.5 69.999s-51.833 24.5 -86.5 24.5c-52 0 -90.833 -18.167 -116.5 -54.5s-38.5 -86.166 -38.5 -149.499c0 -42 5.83301 -78.5 17.5 -109.5s29 -54.833 52 -71.5s51.833 -25 86.5 -25zM119.998 606.002
c2 20 5.83398 37.833 11.501 53.5s13.167 29 22.5 40s20.333 19.5 33 25.5s27 9 43 9c14 0 27.5 -2.83301 40.5 -8.5s25.5 -12.334 37.5 -20.001s23.5 -14.334 34.5 -20.001s21.833 -8.5 32.5 -8.5c15.333 0 27.166 4.83301 35.499 14.5s14.833 24.167 19.5 43.5h50
c-4 -38.667 -15.333 -69.667 -34 -93s-43.667 -35 -75 -35c-14 0 -27.333 2.83301 -40 8.5s-24.834 12.334 -36.501 20.001s-23.167 14.334 -34.5 20.001s-22.666 8.5 -33.999 8.5c-16 0 -28 -4.83301 -36 -14.5s-14.333 -24.167 -19 -43.5h-51z" />
    <glyph glyph-name="odieresis" unicode="&#xf6;" 
d="M301 -10c-34.667 0 -67.001 5.66895 -97.001 17.002s-56.167 28.666 -78.5 51.999s-39.666 52.5 -51.999 87.5s-18.5 76.167 -18.5 123.5c0 62 10.5 113.333 31.5 154s49.833 71.167 86.5 91.5s78.334 30.5 125.001 30.5s88.667 -10.167 126 -30.5s66.833 -51 88.5 -92
s32.5 -93.167 32.5 -156.5c0 -46.667 -6.16699 -87.334 -18.5 -122.001s-29.333 -63.5 -51 -86.5s-47.334 -40.167 -77.001 -51.5s-62.167 -17 -97.5 -17zM299.999 63.002c34.667 0 63.333 8.33301 86 25s39.667 40.5 51 71.5s17 67.5 17 109.5
c0 42.667 -5.66699 79.167 -17 109.5s-28.5 53.666 -51.5 69.999s-51.833 24.5 -86.5 24.5c-52 0 -90.833 -18.167 -116.5 -54.5s-38.5 -86.166 -38.5 -149.499c0 -42 5.83301 -78.5 17.5 -109.5s29 -54.833 52 -71.5s51.833 -25 86.5 -25zM413.998 622.002
c-14.667 0 -27.334 4.83301 -38.001 14.5s-16 24.5 -16 44.5c0 20.667 5.33301 35.334 16 44.001s23.334 13 38.001 13s27.5 -4.33301 38.5 -13s16.5 -23.334 16.5 -44.001c0 -20 -5.5 -34.833 -16.5 -44.5s-23.833 -14.5 -38.5 -14.5zM184.998 622.002
c-14.667 0 -27.334 4.83301 -38.001 14.5s-16 24.5 -16 44.5c0 20.667 5.33301 35.334 16 44.001s23.334 13 38.001 13s27.5 -4.33301 38.5 -13s16.5 -23.334 16.5 -44.001c0 -20 -5.5 -34.833 -16.5 -44.5s-23.833 -14.5 -38.5 -14.5z" />
    <glyph glyph-name="divide" unicode="&#xf7;" 
d="M80 317v71h440v-71h-440zM299 121c-15.333 0 -28.5 4.83301 -39.5 14.5s-16.5 25.167 -16.5 46.5c0 22.667 5.5 38.334 16.5 47.001s24.167 13 39.5 13s28.333 -4.33301 39 -13s16 -24.334 16 -47.001c0 -21.333 -5.33301 -36.833 -16 -46.5s-23.667 -14.5 -39 -14.5z
M299 462c-15.333 0 -28.5 4.83301 -39.5 14.5s-16.5 25.167 -16.5 46.5c0 22.667 5.5 38.334 16.5 47.001s24.167 13 39.5 13s28.333 -4.33301 39 -13s16 -24.334 16 -47.001c0 -21.333 -5.33301 -36.833 -16 -46.5s-23.667 -14.5 -39 -14.5z" />
    <glyph glyph-name="oslash" unicode="&#xf8;" 
d="M132 -33l-58 39l400 560l59 -38zM301 -10c-34.667 0 -67.001 5.66895 -97.001 17.002s-56.167 28.666 -78.5 51.999s-39.666 52.5 -51.999 87.5s-18.5 76.167 -18.5 123.5c0 62 10.5 113.333 31.5 154s49.833 71.167 86.5 91.5s78.334 30.5 125.001 30.5
s88.667 -10.167 126 -30.5s66.833 -51 88.5 -92s32.5 -93.167 32.5 -156.5c0 -46.667 -6.16699 -87.334 -18.5 -122.001s-29.333 -63.5 -51 -86.5s-47.334 -40.167 -77.001 -51.5s-62.167 -17 -97.5 -17zM299.999 63.002c34.667 0 63.333 8.33301 86 25s39.667 40.5 51 71.5
s17 67.5 17 109.5c0 42.667 -5.66699 79.167 -17 109.5s-28.5 53.666 -51.5 69.999s-51.833 24.5 -86.5 24.5c-52 0 -90.833 -18.167 -116.5 -54.5s-38.5 -86.166 -38.5 -149.499c0 -42 5.83301 -78.5 17.5 -109.5s29 -54.833 52 -71.5s51.833 -25 86.5 -25z" />
    <glyph glyph-name="ugrave" unicode="&#xf9;" 
d="M261 -10c-63.333 0 -110.164 15.833 -140.497 47.5s-45.5 78.834 -45.5 141.501v357h90v-343c0 -42.667 8.83301 -75 26.5 -97s48.167 -33 91.5 -33c37.333 0 66.666 7.83301 87.999 23.5s36.5 38.167 45.5 67.5s13.5 64.666 13.5 105.999v276h90v-536h-72l-13 72h-5
c-12.667 -20 -27.334 -36 -44.001 -48s-35.334 -20.667 -56.001 -26s-43.667 -8 -69 -8zM311.002 606c-11.333 9.33301 -24 20.501 -38 33.501s-27.833 26.667 -41.5 41s-26 28.166 -37 41.499s-19.5 24.666 -25.5 33.999v10h105c7.33301 -14.667 16.5 -31.167 27.5 -49.5
s22.667 -36.166 35 -53.499s23.5 -32.333 33.5 -45v-12h-59z" />
    <glyph glyph-name="uacute" unicode="&#xfa;" 
d="M261 -10c-63.333 0 -110.164 15.833 -140.497 47.5s-45.5 78.834 -45.5 141.501v357h90v-343c0 -42.667 8.83301 -75 26.5 -97s48.167 -33 91.5 -33c37.333 0 66.666 7.83301 87.999 23.5s36.5 38.167 45.5 67.5s13.5 64.666 13.5 105.999v276h90v-536h-72l-13 72h-5
c-12.667 -20 -27.334 -36 -44.001 -48s-35.334 -20.667 -56.001 -26s-43.667 -8 -69 -8zM259.002 618c10 12.667 20.834 27.668 32.501 45.001s23.167 35.166 34.5 53.499s20.666 34.833 27.999 49.5h106v-10c-8 -12 -20.333 -27.5 -37 -46.5s-34.5 -38 -53.5 -57
s-36.5 -34.5 -52.5 -46.5h-58v12z" />
    <glyph glyph-name="ucircumflex" unicode="&#xfb;" 
d="M261 -10c-63.333 0 -110.164 15.833 -140.497 47.5s-45.5 78.834 -45.5 141.501v357h90v-343c0 -42.667 8.83301 -75 26.5 -97s48.167 -33 91.5 -33c37.333 0 66.666 7.83301 87.999 23.5s36.5 38.167 45.5 67.5s13.5 64.666 13.5 105.999v276h90v-536h-72l-13 72h-5
c-12.667 -20 -27.334 -36 -44.001 -48s-35.334 -20.667 -56.001 -26s-43.667 -8 -69 -8zM131.002 617c12.667 13.333 26.8311 28.6689 42.498 46.002s30.834 35.166 45.501 53.499s26.334 34.833 35.001 49.5h90c8 -14.667 19.5 -31.167 34.5 -49.5s30.667 -36.333 47 -54
s30.833 -32.834 43.5 -45.501v-11h-62c-17.333 10.667 -35.333 25 -54 43s-37 36 -55 54c-18 -18 -36 -35.833 -54 -53.5s-35.667 -32.167 -53 -43.5h-60v11z" />
    <glyph glyph-name="udieresis" unicode="&#xfc;" 
d="M261 -10c-63.333 0 -110.164 15.833 -140.497 47.5s-45.5 78.834 -45.5 141.501v357h90v-343c0 -42.667 8.83301 -75 26.5 -97s48.167 -33 91.5 -33c37.333 0 66.666 7.83301 87.999 23.5s36.5 38.167 45.5 67.5s13.5 64.666 13.5 105.999v276h90v-536h-72l-13 72h-5
c-12.667 -20 -27.334 -36 -44.001 -48s-35.334 -20.667 -56.001 -26s-43.667 -8 -69 -8zM414.002 622c-14.667 0 -27.334 4.83301 -38.001 14.5s-16 24.5 -16 44.5c0 20.667 5.33301 35.334 16 44.001s23.334 13 38.001 13s27.5 -4.33301 38.5 -13
s16.5 -23.334 16.5 -44.001c0 -20 -5.5 -34.833 -16.5 -44.5s-23.833 -14.5 -38.5 -14.5zM185.002 622c-14.667 0 -27.334 4.83301 -38.001 14.5s-16 24.5 -16 44.5c0 20.667 5.33301 35.334 16 44.001s23.334 13 38.001 13s27.5 -4.33301 38.5 -13
s16.5 -23.334 16.5 -44.001c0 -20 -5.5 -34.833 -16.5 -44.5s-23.833 -14.5 -38.5 -14.5z" />
    <glyph glyph-name="yacute" unicode="&#xfd;" 
d="M136 -245c-13.333 0 -26.333 0.831055 -39 2.49805s-23.667 3.5 -33 5.5v69c8 -1.33301 17.5 -2.66602 28.5 -3.99902s21.833 -2 32.5 -2c20.667 0 37.834 3.33301 51.501 10s25.667 17 36 31s19.833 32.333 28.5 55l29 73l-225 541h88l128 -315
c8.66699 -20.667 17.167 -43.667 25.5 -69s15.833 -49.666 22.5 -72.999h3c4.66699 16.667 9.66699 33.167 15 49.5s10.5 32.5 15.5 48.5s9.83301 31 14.5 45l105 314h92l-225 -606c-12.667 -34.667 -26.5 -65.167 -41.5 -91.5s-34.333 -46.833 -58 -61.5
s-54.834 -22 -93.501 -22zM259 617.998c10 12.667 20.834 27.668 32.501 45.001s23.167 35.166 34.5 53.499s20.666 34.833 27.999 49.5h106v-10c-8 -12 -20.333 -27.5 -37 -46.5s-34.5 -38 -53.5 -57s-36.5 -34.5 -52.5 -46.5h-58v12z" />
    <glyph glyph-name="thorn" unicode="&#xfe;" 
d="M80 -240l-0.000976562 1000h89v-209c0 -14.667 -0.333008 -29.334 -1 -44.001s-1.66699 -29.334 -3 -44.001h4c10.667 17.333 23.334 32.166 38.001 44.499s32 21.833 52 28.5s43.333 10 70 10c32.667 0 62.334 -5.83301 89.001 -17.5s49.5 -29.167 68.5 -52.5
s33.5 -52.333 43.5 -87s15 -74.667 15 -120c0 -60.667 -8.83301 -111.834 -26.5 -153.501s-42.667 -73 -75 -94s-70.5 -31.5 -114.5 -31.5c-26 0 -49.167 3.66699 -69.5 11s-37.833 17 -52.5 29s-27.334 25 -38.001 39h-6c2 -12.667 3.5 -25.834 4.5 -39.501
s1.5 -27.167 1.5 -40.5v-229h-89zM309.999 63.0049c50 0 86.333 17.167 109 51.5s34 86.5 34 156.5c0 68.667 -11.167 119.5 -33.5 152.5s-59.166 49.5 -110.499 49.5c-48.667 0 -84.167 -15.833 -106.5 -47.5s-33.5 -77.167 -33.5 -136.5v-20
c0 -63.333 10.167 -113.5 30.5 -150.5s57.166 -55.5 110.499 -55.5z" />
    <glyph glyph-name="ydieresis" unicode="&#xff;" 
d="M136 -245c-13.333 0 -26.333 0.831055 -39 2.49805s-23.667 3.5 -33 5.5v69c8 -1.33301 17.5 -2.66602 28.5 -3.99902s21.833 -2 32.5 -2c20.667 0 37.834 3.33301 51.501 10s25.667 17 36 31s19.833 32.333 28.5 55l29 73l-225 541h88l128 -315
c8.66699 -20.667 17.167 -43.667 25.5 -69s15.833 -49.666 22.5 -72.999h3c4.66699 16.667 9.66699 33.167 15 49.5s10.5 32.5 15.5 48.5s9.83301 31 14.5 45l105 314h92l-225 -606c-12.667 -34.667 -26.5 -65.167 -41.5 -91.5s-34.333 -46.833 -58 -61.5
s-54.834 -22 -93.501 -22zM414 621.998c-14.667 0 -27.334 4.83301 -38.001 14.5s-16 24.5 -16 44.5c0 20.667 5.33301 35.334 16 44.001s23.334 13 38.001 13s27.5 -4.33301 38.5 -13s16.5 -23.334 16.5 -44.001c0 -20 -5.5 -34.833 -16.5 -44.5s-23.833 -14.5 -38.5 -14.5
zM185 621.998c-14.667 0 -27.334 4.83301 -38.001 14.5s-16 24.5 -16 44.5c0 20.667 5.33301 35.334 16 44.001s23.334 13 38.001 13s27.5 -4.33301 38.5 -13s16.5 -23.334 16.5 -44.001c0 -20 -5.5 -34.833 -16.5 -44.5s-23.833 -14.5 -38.5 -14.5z" />
    <glyph glyph-name="currency" unicode="&#xa4;" 
d="M413 196c-16 -10.667 -33.333 -19.167 -52 -25.5s-38.667 -9.5 -60 -9.5s-41.833 3.33301 -61.5 10s-37.167 15.334 -52.5 26.001l-67 -65l-49 48l66 67c-10.667 16 -19.334 33.667 -26.001 53s-10 39.333 -10 60s3.33301 40.667 10 60s15.334 36.666 26.001 51.999
l-67 69l50 48l67 -65c15.333 11.333 32.833 20.166 52.5 26.499s40.167 9.5 61.5 9.5s41.166 -3.16699 59.499 -9.5s35.833 -15.166 52.5 -26.499l68 65l49 -48l-65 -68c10 -15.333 18.5 -32.833 25.5 -52.5s10.5 -40.167 10.5 -61.5c0 -20.667 -3.16699 -40.667 -9.5 -60
s-15.166 -37 -26.499 -53l64 -67l-48 -48zM301 229c24.667 0 47 5.16699 67 15.5s35.833 25.333 47.5 45s17.5 43.167 17.5 70.5c0 28 -5.83301 52 -17.5 72s-27.5 35.333 -47.5 46s-42.333 16 -67 16c-24 0 -46 -5.33301 -66 -16s-36 -26 -48 -46s-18 -44 -18 -72
c0 -27.333 6 -50.833 18 -70.5s28 -34.667 48 -45s42 -15.5 66 -15.5z" />
    <glyph glyph-name="brokenbar" unicode="&#xa6;" 
d="M263 379v381h73v-381h-73zM263 -241v381h73v-381h-73z" />
    <glyph glyph-name="dieresis" unicode="&#xa8;" 
d="M415 622c-14.667 0 -27.334 4.83301 -38.001 14.5s-16 24.5 -16 44.5c0 20.667 5.33301 35.334 16 44.001s23.334 13 38.001 13s27.5 -4.33301 38.5 -13s16.5 -23.334 16.5 -44.001c0 -20 -5.5 -34.833 -16.5 -44.5s-23.833 -14.5 -38.5 -14.5zM186 622
c-14.667 0 -27.334 4.83301 -38.001 14.5s-16 24.5 -16 44.5c0 20.667 5.33301 35.334 16 44.001s23.334 13 38.001 13s27.5 -4.33301 38.5 -13s16.5 -23.334 16.5 -44.001c0 -20 -5.5 -34.833 -16.5 -44.5s-23.833 -14.5 -38.5 -14.5z" />
    <glyph glyph-name="acute" unicode="&#xb4;" 
d="M246 618c10 12.667 20.834 27.668 32.501 45.001s23.167 35.166 34.5 53.499s20.666 34.833 27.999 49.5h106v-10c-8 -12 -20.333 -27.5 -37 -46.5s-34.5 -38 -53.5 -57s-36.5 -34.5 -52.5 -46.5h-58v12z" />
    <glyph glyph-name="cedilla" unicode="&#xb8;" 
d="M250 -240c-10.667 0 -20.499 0.500977 -29.499 1.50098s-16.167 2.16699 -21.5 3.5v55c6 -1.33301 14 -2.5 24 -3.5s19.667 -1.5 29 -1.5c23.333 0 41.5 3.16699 54.5 9.5s19.5 17.5 19.5 33.5c0 17.333 -7.83301 30 -23.5 38s-38.167 14 -67.5 18l43 91h58l-26 -58
c24 -5.33301 44.5 -14.5 61.5 -27.5s25.5 -33.167 25.5 -60.5c0 -30.667 -12.333 -54.834 -37 -72.501s-61.334 -26.5 -110.001 -26.5z" />
    <glyph glyph-name="onequarter" unicode="&#xbc;" 
d="M83 0l370 714h76l-369 -714h-77zM32 367v51l80 7h55l88 -7v-51h-223zM458 0v78h-158v52l155 219h67v-215h52v-56h-52v-78h-64zM370 134l88 0.000976562v74c0 13.333 0.333008 24.166 1 32.499s1 18.5 1 30.5c-2.66699 -6 -6.5 -13 -11.5 -21s-10.167 -16 -15.5 -24z
M109 562.001c0 17.333 0.166992 32.333 0.5 45s0.833008 26 1.5 40c-6.66699 -6 -13.667 -11.667 -21 -17s-15 -10.333 -23 -15l-29 -16l-34 56l103 59h67v-347h-65v195z" />
    <glyph glyph-name="onehalf" unicode="&#xbd;" 
d="M83 0l370 714h76l-369 -714h-77zM32 367v51l80 7h55l88 -7v-51h-223zM331 0l0.00390625 54.001l89 84c21.333 20 37.5 35.833 48.5 47.5s18.667 22.167 23 31.5s6.5 19.666 6.5 30.999c0 16 -4.83301 28.167 -14.5 36.5s-22.167 12.5 -37.5 12.5
c-14.667 0 -27.834 -3.16699 -39.501 -9.5s-23.834 -14.5 -36.501 -24.5l-35 46c15.333 13.333 32.166 24.333 50.499 33s38.833 13 61.5 13c37.333 0 66.5 -9.16699 87.5 -27.5s31.5 -43.5 31.5 -75.5c0 -17.333 -3.33301 -33 -10 -47s-16.834 -28.333 -30.501 -43
s-31.167 -31.667 -52.5 -51l-55 -49h156v-62h-243zM109.004 562.001c0 17.333 0.166992 32.333 0.5 45s0.833008 26 1.5 40c-6.66699 -6 -13.667 -11.667 -21 -17s-15 -10.333 -23 -15l-29 -16l-34 56l103 59h67v-347h-65v195z" />
    <glyph glyph-name="threequarters" unicode="&#xbe;" 
d="M83 0l370 714h76l-369 -714h-77zM458 0v78h-158v52l155 219h67v-215h52v-56h-52v-78h-64zM370 134l88 0.000976562v74c0 13.333 0.333008 24.166 1 32.499s1 18.5 1 30.5c-2.66699 -6 -6.5 -13 -11.5 -21s-10.167 -16 -15.5 -24zM118 361.001
c-16.667 0 -32.3311 1.50195 -46.998 4.50195s-29.334 7.83301 -44.001 14.5v63c17.333 -8 33.833 -14.167 49.5 -18.5s30.834 -6.5 45.501 -6.5c23.333 0 40.5 4.83301 51.5 14.5s16.5 22.5 16.5 38.5c0 17.333 -6.83301 29.5 -20.5 36.5s-32.167 10.5 -55.5 10.5h-48v55
h48c23.333 0 40.333 4.5 51 13.5s16 20.833 16 35.5c0 15.333 -4.66699 26.5 -14 33.5s-21.333 10.5 -36 10.5c-12.667 0 -25.167 -2.66699 -37.5 -8s-25.166 -12.333 -38.499 -21l-36 46c17.333 12 34.666 21.667 51.999 29s38 11 62 11
c39.333 0 69.166 -8.83301 89.499 -26.5s30.5 -40.834 30.5 -69.501c0 -20.667 -4.83301 -37.334 -14.5 -50.001s-21.5 -21 -35.5 -25v-3c39.333 -11.333 59 -37.333 59 -78c0 -32.667 -11.333 -59.167 -34 -79.5s-59.334 -30.5 -110.001 -30.5z" />
    <glyph glyph-name="Amacron" unicode="&#x100;" 
d="M20 0l232.002 717h95l233 -717h-92l-159 512c-2 8 -4.83301 17.833 -8.5 29.5s-7.33398 24.667 -11.001 39s-7.16699 28.166 -10.5 41.499c-2.66699 -13.333 -5.83398 -27.166 -9.50098 -41.499s-7.16699 -27.5 -10.5 -39.5s-6.33301 -21.667 -9 -29l-159 -512h-91z
M154.002 219l30 80h227l26 -80h-283zM151.002 796v71h297v-71h-297z" />
    <glyph glyph-name="amacron" unicode="&#x101;" 
d="M246 -10c-52.667 0 -95.165 12.9971 -127.498 38.9971s-48.5 65.333 -48.5 118c0 38.667 9.33301 70.834 28 96.501s46.167 45 82.5 58s80.5 20.167 132.5 21.5l115 3v22c0 48 -12 80.833 -36 98.5s-56.333 26.5 -97 26.5c-28.667 0 -56 -3.66699 -82 -11
s-50.667 -17.666 -74 -30.999l-31 68c25.333 12.667 53.5 23.667 84.5 33s66.833 14 107.5 14c67.333 0 119.166 -15.167 155.499 -45.5s54.5 -77.5 54.5 -141.5v-359h-72l-10 74h-4c-14.667 -18.667 -30.834 -34.167 -48.501 -46.5s-37.167 -21.666 -58.5 -27.999
s-45 -9.5 -71 -9.5zM261.002 62.9971c30 0 57.668 5.50098 83.001 16.501s45.666 27.667 60.999 50s23 50.5 23 84.5v48l-96 -3c-42.667 -1.33301 -77 -6.5 -103 -15.5s-44.833 -21.333 -56.5 -37s-17.5 -34.5 -17.5 -56.5c0 -30.667 9.66699 -52.834 29 -66.501
s45 -20.5 77 -20.5zM156.003 617.998v71h297v-71h-297z" />
    <glyph glyph-name="Abreve" unicode="&#x102;" 
d="M20 0l232.002 717h95l233 -717h-92l-159 512c-2 8 -4.83301 17.833 -8.5 29.5s-7.33398 24.667 -11.001 39s-7.16699 28.166 -10.5 41.499c-2.66699 -13.333 -5.83398 -27.166 -9.50098 -41.499s-7.16699 -27.5 -10.5 -39.5s-6.33301 -21.667 -9 -29l-159 -512h-91z
M154.002 219l30 80h227l26 -80h-283zM296.002 784c-47.333 0 -84.166 12.667 -110.499 38s-40.166 57.333 -41.499 96h58c4.66699 -20 12.167 -35 22.5 -45s22.166 -16.833 35.499 -20.5s26.333 -5.5 39 -5.5c20.667 0 40.5 4.5 59.5 13.5s31.5 28.167 37.5 57.5h59
c-0.666992 -38.667 -14.834 -70.667 -42.501 -96s-66.5 -38 -116.5 -38z" />
    <glyph glyph-name="abreve" unicode="&#x103;" 
d="M246 -10c-52.667 0 -95.165 12.9971 -127.498 38.9971s-48.5 65.333 -48.5 118c0 38.667 9.33301 70.834 28 96.501s46.167 45 82.5 58s80.5 20.167 132.5 21.5l115 3v22c0 48 -12 80.833 -36 98.5s-56.333 26.5 -97 26.5c-28.667 0 -56 -3.66699 -82 -11
s-50.667 -17.666 -74 -30.999l-31 68c25.333 12.667 53.5 23.667 84.5 33s66.833 14 107.5 14c67.333 0 119.166 -15.167 155.499 -45.5s54.5 -77.5 54.5 -141.5v-359h-72l-10 74h-4c-14.667 -18.667 -30.834 -34.167 -48.501 -46.5s-37.167 -21.666 -58.5 -27.999
s-45 -9.5 -71 -9.5zM261.002 62.9971c30 0 57.668 5.50098 83.001 16.501s45.666 27.667 60.999 50s23 50.5 23 84.5v48l-96 -3c-42.667 -1.33301 -77 -6.5 -103 -15.5s-44.833 -21.333 -56.5 -37s-17.5 -34.5 -17.5 -56.5c0 -30.667 9.66699 -52.834 29 -66.501
s45 -20.5 77 -20.5zM301.003 605.998c-47.333 0 -84.166 12.667 -110.499 38s-40.166 57.333 -41.499 96h58c4.66699 -20 12.167 -35 22.5 -45s22.166 -16.833 35.499 -20.5s26.333 -5.5 39 -5.5c20.667 0 40.5 4.5 59.5 13.5s31.5 28.167 37.5 57.5h59
c-0.666992 -38.667 -14.834 -70.667 -42.501 -96s-66.5 -38 -116.5 -38z" />
    <glyph glyph-name="Aogonek" unicode="&#x104;" 
d="M20 0l232.002 717h95l233 -717h-92l-159 512c-2 8 -4.83301 17.833 -8.5 29.5s-7.33398 24.667 -11.001 39s-7.16699 28.166 -10.5 41.499c-2.66699 -13.333 -5.83398 -27.166 -9.50098 -41.499s-7.16699 -27.5 -10.5 -39.5s-6.33301 -21.667 -9 -29l-159 -512h-91z
M154.002 219l30 80h227l26 -80h-283zM544.002 -220c-36 0 -62.333 8.33496 -79 25.002s-25 38 -25 64c0 22 4.83301 42.167 14.5 60.5s21.667 34.666 36 48.999s28.166 26.5 41.499 36.5l48 -15c-22 -20.667 -38.833 -40 -50.5 -58s-17.5 -37 -17.5 -57
c0 -16.667 4.33301 -28.5 13 -35.5s21.334 -10.5 38.001 -10.5c7.33301 0 14.833 0.5 22.5 1.5s14.167 2.5 19.5 4.5v-56c-9.33301 -2.66699 -18.833 -4.83398 -28.5 -6.50098s-20.5 -2.5 -32.5 -2.5z" />
    <glyph glyph-name="aogonek" unicode="&#x105;" 
d="M246 -10c-52.667 0 -95.165 12.9971 -127.498 38.9971s-48.5 65.333 -48.5 118c0 38.667 9.33301 70.834 28 96.501s46.167 45 82.5 58s80.5 20.167 132.5 21.5l115 3v22c0 48 -12 80.833 -36 98.5s-56.333 26.5 -97 26.5c-28.667 0 -56 -3.66699 -82 -11
s-50.667 -17.666 -74 -30.999l-31 68c25.333 12.667 53.5 23.667 84.5 33s66.833 14 107.5 14c67.333 0 119.166 -15.167 155.499 -45.5s54.5 -77.5 54.5 -141.5v-359h-72l-10 74h-4c-14.667 -18.667 -30.834 -34.167 -48.501 -46.5s-37.167 -21.666 -58.5 -27.999
s-45 -9.5 -71 -9.5zM261.002 62.9971c30 0 57.668 5.50098 83.001 16.501s45.666 27.667 60.999 50s23 50.5 23 84.5v48l-96 -3c-42.667 -1.33301 -77 -6.5 -103 -15.5s-44.833 -21.333 -56.5 -37s-17.5 -34.5 -17.5 -56.5c0 -30.667 9.66699 -52.834 29 -66.501
s45 -20.5 77 -20.5zM468.003 -220.002c-36 0 -62.333 8.33496 -79 25.002s-25 38 -25 64c0 22 4.83301 42.167 14.5 60.5s21.667 34.666 36 48.999s28.166 26.5 41.499 36.5l48 -15c-22 -20.667 -38.833 -40 -50.5 -58s-17.5 -37 -17.5 -57
c0 -16.667 4.33301 -28.5 13 -35.5s21.334 -10.5 38.001 -10.5c7.33301 0 14.833 0.5 22.5 1.5s14.167 2.5 19.5 4.5v-56c-9.33301 -2.66699 -18.833 -4.83398 -28.5 -6.50098s-20.5 -2.5 -32.5 -2.5z" />
    <glyph glyph-name="Cacute" unicode="&#x106;" 
d="M365 -10c-70 0 -127 15.668 -171 47.001s-76.333 74.5 -97 129.5s-31 118.5 -31 190.5c0 56.667 6.66699 107.5 20 152.5s33 83.5 59 115.5s57.667 56.5 95 73.5s80.333 25.5 129 25.5c34.667 0 67.167 -3.66699 97.5 -11s58.166 -17.666 83.499 -30.999l-34 -73
c-20.667 11.333 -44.167 20 -70.5 26s-51.833 9 -76.5 9c-34 0 -64.167 -6.33301 -90.5 -19s-48.333 -31.167 -66 -55.5s-31.167 -54.333 -40.5 -90s-14 -76.5 -14 -122.5c0 -58.667 7.16699 -109.334 21.5 -152.001s36.833 -75.334 67.5 -98.001s70.667 -34 120 -34
c22.667 0 47.167 2.5 73.5 7.5s52.5 12.833 78.5 23.5v-85c-26.667 -10 -52.167 -17.333 -76.5 -22s-50.166 -7 -77.499 -7zM318 796.001c10 12.667 20.834 27.668 32.501 45.001s23.167 35.166 34.5 53.499s20.666 34.833 27.999 49.5h106v-10
c-8 -12 -20.333 -27.5 -37 -46.5s-34.5 -38 -53.5 -57s-36.5 -34.5 -52.5 -46.5h-58v12z" />
    <glyph glyph-name="cacute" unicode="&#x107;" 
d="M338 -10c-52 0 -97.002 9.49805 -135.002 28.498s-67.167 48.667 -87.5 89s-30.5 92.5 -30.5 156.5c0 68.667 11.167 123.667 33.5 165s53.333 71.166 93 89.499s84.834 27.5 135.501 27.5c31.333 0 59.833 -3.16699 85.5 -9.5s49.834 -15.5 72.501 -27.5l-27 -73
c-21.333 11.333 -42 19.5 -62 24.5s-41.667 7.5 -65 7.5c-40.667 0 -73.834 -7.5 -99.501 -22.5s-44.5 -37.333 -56.5 -67s-18 -67.167 -18 -112.5c0 -47.333 6.33301 -85.666 19 -114.999s31.834 -50.666 57.501 -63.999s57.167 -20 94.5 -20c29.333 0 57 3.16699 83 9.5
s48.667 13.833 68 22.5v-79c-20 -9.33301 -44.667 -16.666 -74 -21.999s-58.333 -8 -87 -8zM286.998 617.998c10 12.667 20.834 27.668 32.501 45.001s23.167 35.166 34.5 53.499s20.666 34.833 27.999 49.5h106v-10c-8 -12 -20.333 -27.5 -37 -46.5s-34.5 -38 -53.5 -57
s-36.5 -34.5 -52.5 -46.5h-58v12z" />
    <glyph glyph-name="Ccircumflex" unicode="&#x108;" 
d="M365 -10c-70 0 -127 15.668 -171 47.001s-76.333 74.5 -97 129.5s-31 118.5 -31 190.5c0 56.667 6.66699 107.5 20 152.5s33 83.5 59 115.5s57.667 56.5 95 73.5s80.333 25.5 129 25.5c34.667 0 67.167 -3.66699 97.5 -11s58.166 -17.666 83.499 -30.999l-34 -73
c-20.667 11.333 -44.167 20 -70.5 26s-51.833 9 -76.5 9c-34 0 -64.167 -6.33301 -90.5 -19s-48.333 -31.167 -66 -55.5s-31.167 -54.333 -40.5 -90s-14 -76.5 -14 -122.5c0 -58.667 7.16699 -109.334 21.5 -152.001s36.833 -75.334 67.5 -98.001s70.667 -34 120 -34
c22.667 0 47.167 2.5 73.5 7.5s52.5 12.833 78.5 23.5v-85c-26.667 -10 -52.167 -17.333 -76.5 -22s-50.166 -7 -77.499 -7zM190 795.001c12.667 13.333 26.8311 28.6689 42.498 46.002s30.834 35.166 45.501 53.499s26.334 34.833 35.001 49.5h90
c8 -14.667 19.5 -31.167 34.5 -49.5s30.667 -36.333 47 -54s30.833 -32.834 43.5 -45.501v-11h-62c-17.333 10.667 -35.333 25 -54 43s-37 36 -55 54c-18 -18 -36 -35.833 -54 -53.5s-35.667 -32.167 -53 -43.5h-60v11z" />
    <glyph glyph-name="ccircumflex" unicode="&#x109;" 
d="M338 -10c-52 0 -97.002 9.49805 -135.002 28.498s-67.167 48.667 -87.5 89s-30.5 92.5 -30.5 156.5c0 68.667 11.167 123.667 33.5 165s53.333 71.166 93 89.499s84.834 27.5 135.501 27.5c31.333 0 59.833 -3.16699 85.5 -9.5s49.834 -15.5 72.501 -27.5l-27 -73
c-21.333 11.333 -42 19.5 -62 24.5s-41.667 7.5 -65 7.5c-40.667 0 -73.834 -7.5 -99.501 -22.5s-44.5 -37.333 -56.5 -67s-18 -67.167 -18 -112.5c0 -47.333 6.33301 -85.666 19 -114.999s31.834 -50.666 57.501 -63.999s57.167 -20 94.5 -20c29.333 0 57 3.16699 83 9.5
s48.667 13.833 68 22.5v-79c-20 -9.33301 -44.667 -16.666 -74 -21.999s-58.333 -8 -87 -8zM158.998 616.998c12.667 13.333 26.8311 28.6689 42.498 46.002s30.834 35.166 45.501 53.499s26.334 34.833 35.001 49.5h90c8 -14.667 19.5 -31.167 34.5 -49.5
s30.667 -36.333 47 -54s30.833 -32.834 43.5 -45.501v-11h-62c-17.333 10.667 -35.333 25 -54 43s-37 36 -55 54c-18 -18 -36 -35.833 -54 -53.5s-35.667 -32.167 -53 -43.5h-60v11z" />
    <glyph glyph-name="Cdot" unicode="&#x10a;" 
d="M365 -10c-70 0 -127 15.668 -171 47.001s-76.333 74.5 -97 129.5s-31 118.5 -31 190.5c0 56.667 6.66699 107.5 20 152.5s33 83.5 59 115.5s57.667 56.5 95 73.5s80.333 25.5 129 25.5c34.667 0 67.167 -3.66699 97.5 -11s58.166 -17.666 83.499 -30.999l-34 -73
c-20.667 11.333 -44.167 20 -70.5 26s-51.833 9 -76.5 9c-34 0 -64.167 -6.33301 -90.5 -19s-48.333 -31.167 -66 -55.5s-31.167 -54.333 -40.5 -90s-14 -76.5 -14 -122.5c0 -58.667 7.16699 -109.334 21.5 -152.001s36.833 -75.334 67.5 -98.001s70.667 -34 120 -34
c22.667 0 47.167 2.5 73.5 7.5s52.5 12.833 78.5 23.5v-85c-26.667 -10 -52.167 -17.333 -76.5 -22s-50.166 -7 -77.499 -7zM358 811.001c-17.333 0 -32.166 5.33301 -44.499 16s-18.5 26.334 -18.5 47.001c0 22 6.16699 38.167 18.5 48.5s27.166 15.5 44.499 15.5
s32.166 -5.16699 44.499 -15.5s18.5 -26.5 18.5 -48.5c0 -20.667 -6.16699 -36.334 -18.5 -47.001s-27.166 -16 -44.499 -16z" />
    <glyph glyph-name="cdot" unicode="&#x10b;" 
d="M338 -10c-52 0 -97.002 9.49805 -135.002 28.498s-67.167 48.667 -87.5 89s-30.5 92.5 -30.5 156.5c0 68.667 11.167 123.667 33.5 165s53.333 71.166 93 89.499s84.834 27.5 135.501 27.5c31.333 0 59.833 -3.16699 85.5 -9.5s49.834 -15.5 72.501 -27.5l-27 -73
c-21.333 11.333 -42 19.5 -62 24.5s-41.667 7.5 -65 7.5c-40.667 0 -73.834 -7.5 -99.501 -22.5s-44.5 -37.333 -56.5 -67s-18 -67.167 -18 -112.5c0 -47.333 6.33301 -85.666 19 -114.999s31.834 -50.666 57.501 -63.999s57.167 -20 94.5 -20c29.333 0 57 3.16699 83 9.5
s48.667 13.833 68 22.5v-79c-20 -9.33301 -44.667 -16.666 -74 -21.999s-58.333 -8 -87 -8zM326.998 632.998c-17.333 0 -32.166 5.33301 -44.499 16s-18.5 26.334 -18.5 47.001c0 22 6.16699 38.167 18.5 48.5s27.166 15.5 44.499 15.5s32.166 -5.16699 44.499 -15.5
s18.5 -26.5 18.5 -48.5c0 -20.667 -6.16699 -36.334 -18.5 -47.001s-27.166 -16 -44.499 -16z" />
    <glyph glyph-name="Ccaron" unicode="&#x10c;" 
d="M365 -10c-70 0 -127 15.668 -171 47.001s-76.333 74.5 -97 129.5s-31 118.5 -31 190.5c0 56.667 6.66699 107.5 20 152.5s33 83.5 59 115.5s57.667 56.5 95 73.5s80.333 25.5 129 25.5c34.667 0 67.167 -3.66699 97.5 -11s58.166 -17.666 83.499 -30.999l-34 -73
c-20.667 11.333 -44.167 20 -70.5 26s-51.833 9 -76.5 9c-34 0 -64.167 -6.33301 -90.5 -19s-48.333 -31.167 -66 -55.5s-31.167 -54.333 -40.5 -90s-14 -76.5 -14 -122.5c0 -58.667 7.16699 -109.334 21.5 -152.001s36.833 -75.334 67.5 -98.001s70.667 -34 120 -34
c22.667 0 47.167 2.5 73.5 7.5s52.5 12.833 78.5 23.5v-85c-26.667 -10 -52.167 -17.333 -76.5 -22s-50.166 -7 -77.499 -7zM313 784.001c-8.66699 15.333 -20.334 31.833 -35.001 49.5s-30 35.167 -46 52.5s-30 32.333 -42 45v13h60c17.333 -11.333 35.333 -25 54 -41
s36.334 -33 53.001 -51c18 18 36.333 35 55 51s36.667 29.667 54 41h62v-13c-12.667 -12.667 -27.167 -27.667 -43.5 -45s-32 -34.833 -47 -52.5s-26.5 -34.167 -34.5 -49.5h-90z" />
    <glyph glyph-name="ccaron" unicode="&#x10d;" 
d="M338 -10c-52 0 -97.002 9.49805 -135.002 28.498s-67.167 48.667 -87.5 89s-30.5 92.5 -30.5 156.5c0 68.667 11.167 123.667 33.5 165s53.333 71.166 93 89.499s84.834 27.5 135.501 27.5c31.333 0 59.833 -3.16699 85.5 -9.5s49.834 -15.5 72.501 -27.5l-27 -73
c-21.333 11.333 -42 19.5 -62 24.5s-41.667 7.5 -65 7.5c-40.667 0 -73.834 -7.5 -99.501 -22.5s-44.5 -37.333 -56.5 -67s-18 -67.167 -18 -112.5c0 -47.333 6.33301 -85.666 19 -114.999s31.834 -50.666 57.501 -63.999s57.167 -20 94.5 -20c29.333 0 57 3.16699 83 9.5
s48.667 13.833 68 22.5v-79c-20 -9.33301 -44.667 -16.666 -74 -21.999s-58.333 -8 -87 -8zM281.998 605.998c-8.66699 15.333 -20.334 31.833 -35.001 49.5s-30 35.167 -46 52.5s-30 32.333 -42 45v13h60c17.333 -11.333 35.333 -25 54 -41s36.334 -33 53.001 -51
c18 18 36.333 35 55 51s36.667 29.667 54 41h62v-13c-12.667 -12.667 -27.167 -27.667 -43.5 -45s-32 -34.833 -47 -52.5s-26.5 -34.167 -34.5 -49.5h-90z" />
    <glyph glyph-name="Dcaron" unicode="&#x10e;" 
d="M70 0l-0.00195312 714.002h173c63.333 0 118.333 -13.333 165 -40s82.834 -65.834 108.501 -117.501s38.5 -115.834 38.5 -192.501c0 -80 -13.167 -147 -39.5 -201s-64.166 -94.667 -113.499 -122s-109 -41 -179 -41h-153zM213.998 78.002
c85.333 0 148.166 24.001 188.499 72.001s60.5 118.333 60.5 211c0 63.333 -9.16699 115.166 -27.5 155.499s-44.666 70.333 -78.999 90s-75.5 29.5 -123.5 29.5h-73v-558h54zM230.998 784.003c-8.66699 15.333 -20.334 31.833 -35.001 49.5s-30 35.167 -46 52.5
s-30 32.333 -42 45v13h60c17.333 -11.333 35.333 -25 54 -41s36.334 -33 53.001 -51c18 18 36.333 35 55 51s36.667 29.667 54 41h62v-13c-12.667 -12.667 -27.167 -27.667 -43.5 -45s-32 -34.833 -47 -52.5s-26.5 -34.167 -34.5 -49.5h-90z" />
    <glyph glyph-name="dcaron" unicode="&#x10f;" 
d="M245 -10c-30 0 -57.3311 5.66895 -81.998 17.002s-45.834 28.666 -63.501 51.999s-31.167 52.5 -40.5 87.5s-14 76.167 -14 123.5c0 60 7.83301 110.5 23.5 151.5s38.667 72 69 93s67.5 31.5 111.5 31.5c26 0 48 -3.33301 66 -10s33 -15.834 45 -27.501
s22.333 -25.167 31 -40.5h6c-0.666992 8 -1.5 16.333 -2.5 25s-1.83301 18 -2.5 28s-1 20 -1 30v209h89v-760h-74l-10 72h-4c-14.667 -24.667 -33.834 -44.5 -57.501 -59.5s-53.5 -22.5 -89.5 -22.5zM261.002 63.002c44 0 76.666 16.5 97.999 49.5s32 77.833 32 134.5v20
c0 38.667 -4 73.5 -12 104.5s-21.167 55.667 -39.5 74s-43.166 27.5 -74.499 27.5c-27.333 0 -50.5 -7.66699 -69.5 -23s-33.5 -38.5 -43.5 -69.5s-15 -70.5 -15 -118.5c0 -66.667 10.167 -116.5 30.5 -149.5s51.5 -49.5 93.5 -49.5zM522.001 612.002
c3.33301 9.33301 6.66895 20.332 10.002 32.999s6.5 25.834 9.5 39.501s5.66699 27 8 40s4.16602 24.833 5.49902 35.5h87v-8c-2.66699 -12 -7.83398 -27.167 -15.501 -45.5s-16.5 -37 -26.5 -56s-20 -35.833 -30 -50.5h-48v12z" />
    <glyph glyph-name="Dcroat" unicode="&#x110;" 
d="M0 314v78h292v-78h-292zM80 0l-0.00195312 714.002h173c63.333 0 118.333 -13.333 165 -40s82.834 -65.834 108.501 -117.501s38.5 -115.834 38.5 -192.501c0 -80 -13.167 -147 -39.5 -201s-64.166 -94.667 -113.499 -122s-109 -41 -179 -41h-153zM223.998 78.002
c85.333 0 148.166 24.001 188.499 72.001s60.5 118.333 60.5 211c0 63.333 -9.16699 115.166 -27.5 155.499s-44.666 70.333 -78.999 90s-75.5 29.5 -123.5 29.5h-73v-558h54z" />
    <glyph glyph-name="dcroat" unicode="&#x111;" 
d="M274 -10c-32.667 0 -62.501 5.66699 -89.501 17s-50.167 28.5 -69.5 51.5s-34.166 52 -44.499 87s-15.5 76.167 -15.5 123.5c0 58.667 8.5 108.167 25.5 148.5s42.5 71 76.5 92s76.333 31.5 127 31.5c24.667 0 46.5 -3.33301 65.5 -10s35.333 -15.834 49 -27.501
s24.5 -25.167 32.5 -40.5h6c-0.666992 8.66699 -1.5 17.334 -2.5 26.001s-1.83301 17.5 -2.5 26.5s-1 17.833 -1 26.5v218h89v-760h-74l-10 72h-4c-10 -16 -22.167 -30.167 -36.5 -42.5s-31.333 -22 -51 -29s-43.167 -10.5 -70.5 -10.5zM290.999 63
c47.333 0 82.5 16.333 105.5 49s34.5 77 34.5 133v20c0 38.667 -4.33301 73.167 -13 103.5s-23 54.5 -43 72.5s-47 27 -81 27c-46.667 0 -82.834 -17 -108.501 -51s-38.5 -86.333 -38.5 -157c0 -65.333 11.833 -114.5 35.5 -147.5s59.834 -49.5 108.501 -49.5zM253.999 604
v66h346v-66h-346z" />
    <glyph glyph-name="Emacron" unicode="&#x112;" 
d="M95 0v714h420v-80h-330v-221h311v-80h-311v-253h330v-80h-420zM157 796v71h297v-71h-297z" />
    <glyph glyph-name="emacron" unicode="&#x113;" 
d="M337 -10c-57.333 0 -106.666 10.668 -147.999 32.001s-73.166 52.5 -95.499 93.5s-33.5 91.167 -33.5 150.5c0 58.667 10.667 108.834 32 150.501s51 73.667 89 96s82.333 33.5 133 33.5c46.667 0 86.834 -10.333 120.501 -31s59.667 -49.834 78 -87.501
s27.5 -82.834 27.5 -135.501v-41h-389c1.33301 -46.667 10.166 -83.667 26.499 -111s38.666 -46.833 66.999 -58.5s61.166 -17.5 98.499 -17.5c29.333 0 58.333 4 87 12s57.334 18.667 86.001 32v-80c-30.667 -13.333 -61.334 -23 -92.001 -29s-59.667 -9 -87 -9z
M450 323.001c-1.33301 31.333 -7.33008 58.167 -17.9971 80.5s-25.834 39.5 -45.501 51.5s-43.834 18 -72.501 18c-44.667 0 -80.834 -13.5 -108.501 -40.5s-45.167 -63.5 -52.5 -109.5h297zM155.003 618.002v71h297v-71h-297z" />
    <glyph glyph-name="Ebreve" unicode="&#x114;" 
d="M95 0v714h420v-80h-330v-221h311v-80h-311v-253h330v-80h-420zM302 784c-47.333 0 -84.166 12.667 -110.499 38s-40.166 57.333 -41.499 96h58c4.66699 -20 12.167 -35 22.5 -45s22.166 -16.833 35.499 -20.5s26.333 -5.5 39 -5.5c20.667 0 40.5 4.5 59.5 13.5
s31.5 28.167 37.5 57.5h59c-0.666992 -38.667 -14.834 -70.667 -42.501 -96s-66.5 -38 -116.5 -38z" />
    <glyph glyph-name="ebreve" unicode="&#x115;" 
d="M337 -10c-57.333 0 -106.666 10.668 -147.999 32.001s-73.166 52.5 -95.499 93.5s-33.5 91.167 -33.5 150.5c0 58.667 10.667 108.834 32 150.501s51 73.667 89 96s82.333 33.5 133 33.5c46.667 0 86.834 -10.333 120.501 -31s59.667 -49.834 78 -87.501
s27.5 -82.834 27.5 -135.501v-41h-389c1.33301 -46.667 10.166 -83.667 26.499 -111s38.666 -46.833 66.999 -58.5s61.166 -17.5 98.499 -17.5c29.333 0 58.333 4 87 12s57.334 18.667 86.001 32v-80c-30.667 -13.333 -61.334 -23 -92.001 -29s-59.667 -9 -87 -9z
M450 323.001c-1.33301 31.333 -7.33008 58.167 -17.9971 80.5s-25.834 39.5 -45.501 51.5s-43.834 18 -72.501 18c-44.667 0 -80.834 -13.5 -108.501 -40.5s-45.167 -63.5 -52.5 -109.5h297zM300.003 606.002c-47.333 0 -84.166 12.667 -110.499 38
s-40.166 57.333 -41.499 96h58c4.66699 -20 12.167 -35 22.5 -45s22.166 -16.833 35.499 -20.5s26.333 -5.5 39 -5.5c20.667 0 40.5 4.5 59.5 13.5s31.5 28.167 37.5 57.5h59c-0.666992 -38.667 -14.834 -70.667 -42.501 -96s-66.5 -38 -116.5 -38z" />
    <glyph glyph-name="Edotaccent" unicode="&#x116;" 
d="M95 0v714h420v-80h-330v-221h311v-80h-311v-253h330v-80h-420zM305 811c-17.333 0 -32.166 5.33301 -44.499 16s-18.5 26.334 -18.5 47.001c0 22 6.16699 38.167 18.5 48.5s27.166 15.5 44.499 15.5s32.166 -5.16699 44.499 -15.5s18.5 -26.5 18.5 -48.5
c0 -20.667 -6.16699 -36.334 -18.5 -47.001s-27.166 -16 -44.499 -16z" />
    <glyph glyph-name="edotaccent" unicode="&#x117;" 
d="M337 -10c-57.333 0 -106.666 10.668 -147.999 32.001s-73.166 52.5 -95.499 93.5s-33.5 91.167 -33.5 150.5c0 58.667 10.667 108.834 32 150.501s51 73.667 89 96s82.333 33.5 133 33.5c46.667 0 86.834 -10.333 120.501 -31s59.667 -49.834 78 -87.501
s27.5 -82.834 27.5 -135.501v-41h-389c1.33301 -46.667 10.166 -83.667 26.499 -111s38.666 -46.833 66.999 -58.5s61.166 -17.5 98.499 -17.5c29.333 0 58.333 4 87 12s57.334 18.667 86.001 32v-80c-30.667 -13.333 -61.334 -23 -92.001 -29s-59.667 -9 -87 -9z
M450 323.001c-1.33301 31.333 -7.33008 58.167 -17.9971 80.5s-25.834 39.5 -45.501 51.5s-43.834 18 -72.501 18c-44.667 0 -80.834 -13.5 -108.501 -40.5s-45.167 -63.5 -52.5 -109.5h297zM303.003 633.002c-17.333 0 -32.166 5.33301 -44.499 16
s-18.5 26.334 -18.5 47.001c0 22 6.16699 38.167 18.5 48.5s27.166 15.5 44.499 15.5s32.166 -5.16699 44.499 -15.5s18.5 -26.5 18.5 -48.5c0 -20.667 -6.16699 -36.334 -18.5 -47.001s-27.166 -16 -44.499 -16z" />
    <glyph glyph-name="Eogonek" unicode="&#x118;" 
d="M95 0v714h420v-80h-330v-221h311v-80h-311v-253h330v-80h-420zM425 -220c-36 0 -62.333 8.33496 -79 25.002s-25 38 -25 64c0 22 4.83301 42.167 14.5 60.5s21.667 34.666 36 48.999s28.166 26.5 41.499 36.5l48 -15c-22 -20.667 -38.833 -40 -50.5 -58
s-17.5 -37 -17.5 -57c0 -16.667 4.33301 -28.5 13 -35.5s21.334 -10.5 38.001 -10.5c7.33301 0 14.833 0.5 22.5 1.5s14.167 2.5 19.5 4.5v-56c-9.33301 -2.66699 -18.833 -4.83398 -28.5 -6.50098s-20.5 -2.5 -32.5 -2.5z" />
    <glyph glyph-name="eogonek" unicode="&#x119;" 
d="M447 -220c-36.667 0 -63.333 9.33301 -80 28s-25 41.334 -25 68.001c0 24 5.66699 45.5 17 64.5s25.833 35.667 43.5 50s36.167 26.833 55.5 37.5h58c-18 -13.333 -34.833 -27.166 -50.5 -41.499s-28.167 -29.333 -37.5 -45s-14 -32.834 -14 -51.501
c0 -18 4.5 -31 13.5 -39s21.833 -12 38.5 -12c6 0 13 0.5 21 1.5s14.667 2.5 20 4.5v-56c-9.33301 -2.66699 -18.833 -4.83398 -28.5 -6.50098s-20.167 -2.5 -31.5 -2.5zM337.001 -10c-57.333 0 -106.666 10.668 -147.999 32.001s-73.166 52.5 -95.499 93.5
s-33.5 91.167 -33.5 150.5c0 58.667 10.667 108.834 32 150.501s51 73.667 89 96s82.333 33.5 133 33.5c46.667 0 86.834 -10.333 120.501 -31s59.667 -49.834 78 -87.501s27.5 -82.834 27.5 -135.501v-41h-389c1.33301 -46.667 10.166 -83.667 26.499 -111
s38.666 -46.833 66.999 -58.5s61.166 -17.5 98.499 -17.5c29.333 0 58.333 4 87 12s57.334 18.667 86.001 32v-80c-30.667 -13.333 -61.334 -23 -92.001 -29s-59.667 -9 -87 -9zM450.001 323.001c-1.33301 31.333 -7.33008 58.167 -17.9971 80.5s-25.834 39.5 -45.501 51.5
s-43.834 18 -72.501 18c-44.667 0 -80.834 -13.5 -108.501 -40.5s-45.167 -63.5 -52.5 -109.5h297z" />
    <glyph glyph-name="Ecaron" unicode="&#x11a;" 
d="M95 0v714h420v-80h-330v-221h311v-80h-311v-253h330v-80h-420zM260 784c-8.66699 15.333 -20.334 31.833 -35.001 49.5s-30 35.167 -46 52.5s-30 32.333 -42 45v13h60c17.333 -11.333 35.333 -25 54 -41s36.334 -33 53.001 -51c18 18 36.333 35 55 51
s36.667 29.667 54 41h62v-13c-12.667 -12.667 -27.167 -27.667 -43.5 -45s-32 -34.833 -47 -52.5s-26.5 -34.167 -34.5 -49.5h-90z" />
    <glyph glyph-name="ecaron" unicode="&#x11b;" 
d="M337 -10c-57.333 0 -106.666 10.668 -147.999 32.001s-73.166 52.5 -95.499 93.5s-33.5 91.167 -33.5 150.5c0 58.667 10.667 108.834 32 150.501s51 73.667 89 96s82.333 33.5 133 33.5c46.667 0 86.834 -10.333 120.501 -31s59.667 -49.834 78 -87.501
s27.5 -82.834 27.5 -135.501v-41h-389c1.33301 -46.667 10.166 -83.667 26.499 -111s38.666 -46.833 66.999 -58.5s61.166 -17.5 98.499 -17.5c29.333 0 58.333 4 87 12s57.334 18.667 86.001 32v-80c-30.667 -13.333 -61.334 -23 -92.001 -29s-59.667 -9 -87 -9z
M450 323.001c-1.33301 31.333 -7.33008 58.167 -17.9971 80.5s-25.834 39.5 -45.501 51.5s-43.834 18 -72.501 18c-44.667 0 -80.834 -13.5 -108.501 -40.5s-45.167 -63.5 -52.5 -109.5h297zM258.003 606.002c-8.66699 15.333 -20.334 31.833 -35.001 49.5
s-30 35.167 -46 52.5s-30 32.333 -42 45v13h60c17.333 -11.333 35.333 -25 54 -41s36.334 -33 53.001 -51c18 18 36.333 35 55 51s36.667 29.667 54 41h62v-13c-12.667 -12.667 -27.167 -27.667 -43.5 -45s-32 -34.833 -47 -52.5s-26.5 -34.167 -34.5 -49.5h-90z" />
    <glyph glyph-name="Gcircumflex" unicode="&#x11c;" 
d="M340 -10c-64.667 0 -118.999 13.4971 -162.999 40.4971s-77 67 -99 120s-33 118.167 -33 195.5c0 80 11.667 148.167 35 204.5s57.833 99.333 103.5 129s101.834 44.5 168.501 44.5c34 0 64.667 -3.66699 92 -11s53.333 -17.666 78 -30.999l-32 -75
c-16.667 10.667 -36.334 19.334 -59.001 26.001s-48.334 10 -77.001 10c-48 0 -88.167 -11.5 -120.5 -34.5s-56.5 -56.167 -72.5 -99.5s-24 -96.333 -24 -159c0 -53.333 6.5 -101.166 19.5 -143.499s34.667 -75.666 65 -99.999s71.166 -36.5 122.499 -36.5
c21.333 0 40 1.66699 56 5s30.333 6.66602 43 9.99902v212h-130v80h217v-350c-24.667 -10 -53.167 -18.667 -85.5 -26s-67.166 -11 -104.499 -11zM153.001 794.997c12.667 13.333 26.8311 28.6689 42.498 46.002s30.834 35.166 45.501 53.499s26.334 34.833 35.001 49.5h90
c8 -14.667 19.5 -31.167 34.5 -49.5s30.667 -36.333 47 -54s30.833 -32.834 43.5 -45.501v-11h-62c-17.333 10.667 -35.333 25 -54 43s-37 36 -55 54c-18 -18 -36 -35.833 -54 -53.5s-35.667 -32.167 -53 -43.5h-60v11z" />
    <glyph glyph-name="gcircumflex" unicode="&#x11d;" 
d="M276 -245c-36.667 0 -71.167 3.5 -103.5 10.5s-62.166 16.167 -89.499 27.5v80c26.667 -15.333 57.5 -26.833 92.5 -34.5s67.5 -11.5 97.5 -11.5c60.667 0 103 14.167 127 42.5s36 67.166 36 116.499v19c0 8 0.166992 15.667 0.5 23s1.16602 18.666 2.49902 33.999h-4
c-18.667 -27.333 -40.5 -46.166 -65.5 -56.499s-55.167 -15.5 -90.5 -15.5c-70.667 0 -125.667 24.167 -165 72.5s-59 115.833 -59 202.5c0 87.333 19.5 156 58.5 206s92.5 75 160.5 75c36 0 66.333 -5.83301 91 -17.5s46.667 -31.167 66 -58.5h5l12 66h72v-550
c0 -50.667 -8.66699 -93.167 -26 -127.5s-44 -60.166 -80 -77.499s-82 -26 -138 -26zM296 63c22 0 41.833 3.5 59.5 10.5s32.667 18 45 33s21.833 34 28.5 57s10 50.5 10 82.5v21c0 48.667 -5.83301 88.167 -17.5 118.5s-28.5 52.5 -50.5 66.5s-48 21 -78 21
c-50.667 0 -87.667 -17.833 -111 -53.5s-35 -86.167 -35 -151.5c0 -66.667 12.167 -117.5 36.5 -152.5s61.833 -52.5 112.5 -52.5zM131 617c12.667 13.333 26.8311 28.6689 42.498 46.002s30.834 35.166 45.501 53.499s26.334 34.833 35.001 49.5h90
c8 -14.667 19.5 -31.167 34.5 -49.5s30.667 -36.333 47 -54s30.833 -32.834 43.5 -45.501v-11h-62c-17.333 10.667 -35.333 25 -54 43s-37 36 -55 54c-18 -18 -36 -35.833 -54 -53.5s-35.667 -32.167 -53 -43.5h-60v11z" />
    <glyph glyph-name="Gbreve" unicode="&#x11e;" 
d="M340 -10c-64.667 0 -118.999 13.4971 -162.999 40.4971s-77 67 -99 120s-33 118.167 -33 195.5c0 80 11.667 148.167 35 204.5s57.833 99.333 103.5 129s101.834 44.5 168.501 44.5c34 0 64.667 -3.66699 92 -11s53.333 -17.666 78 -30.999l-32 -75
c-16.667 10.667 -36.334 19.334 -59.001 26.001s-48.334 10 -77.001 10c-48 0 -88.167 -11.5 -120.5 -34.5s-56.5 -56.167 -72.5 -99.5s-24 -96.333 -24 -159c0 -53.333 6.5 -101.166 19.5 -143.499s34.667 -75.666 65 -99.999s71.166 -36.5 122.499 -36.5
c21.333 0 40 1.66699 56 5s30.333 6.66602 43 9.99902v212h-130v80h217v-350c-24.667 -10 -53.167 -18.667 -85.5 -26s-67.166 -11 -104.499 -11zM318.001 783.997c-47.333 0 -84.166 12.667 -110.499 38s-40.166 57.333 -41.499 96h58c4.66699 -20 12.167 -35 22.5 -45
s22.166 -16.833 35.499 -20.5s26.333 -5.5 39 -5.5c20.667 0 40.5 4.5 59.5 13.5s31.5 28.167 37.5 57.5h59c-0.666992 -38.667 -14.834 -70.667 -42.501 -96s-66.5 -38 -116.5 -38z" />
    <glyph glyph-name="gbreve" unicode="&#x11f;" 
d="M276 -245c-36.667 0 -71.167 3.5 -103.5 10.5s-62.166 16.167 -89.499 27.5v80c26.667 -15.333 57.5 -26.833 92.5 -34.5s67.5 -11.5 97.5 -11.5c60.667 0 103 14.167 127 42.5s36 67.166 36 116.499v19c0 8 0.166992 15.667 0.5 23s1.16602 18.666 2.49902 33.999h-4
c-18.667 -27.333 -40.5 -46.166 -65.5 -56.499s-55.167 -15.5 -90.5 -15.5c-70.667 0 -125.667 24.167 -165 72.5s-59 115.833 -59 202.5c0 87.333 19.5 156 58.5 206s92.5 75 160.5 75c36 0 66.333 -5.83301 91 -17.5s46.667 -31.167 66 -58.5h5l12 66h72v-550
c0 -50.667 -8.66699 -93.167 -26 -127.5s-44 -60.166 -80 -77.499s-82 -26 -138 -26zM296 63c22 0 41.833 3.5 59.5 10.5s32.667 18 45 33s21.833 34 28.5 57s10 50.5 10 82.5v21c0 48.667 -5.83301 88.167 -17.5 118.5s-28.5 52.5 -50.5 66.5s-48 21 -78 21
c-50.667 0 -87.667 -17.833 -111 -53.5s-35 -86.167 -35 -151.5c0 -66.667 12.167 -117.5 36.5 -152.5s61.833 -52.5 112.5 -52.5zM296 606c-47.333 0 -84.166 12.667 -110.499 38s-40.166 57.333 -41.499 96h58c4.66699 -20 12.167 -35 22.5 -45
s22.166 -16.833 35.499 -20.5s26.333 -5.5 39 -5.5c20.667 0 40.5 4.5 59.5 13.5s31.5 28.167 37.5 57.5h59c-0.666992 -38.667 -14.834 -70.667 -42.501 -96s-66.5 -38 -116.5 -38z" />
    <glyph glyph-name="Gdot" unicode="&#x120;" 
d="M340 -10c-64.667 0 -118.999 13.4971 -162.999 40.4971s-77 67 -99 120s-33 118.167 -33 195.5c0 80 11.667 148.167 35 204.5s57.833 99.333 103.5 129s101.834 44.5 168.501 44.5c34 0 64.667 -3.66699 92 -11s53.333 -17.666 78 -30.999l-32 -75
c-16.667 10.667 -36.334 19.334 -59.001 26.001s-48.334 10 -77.001 10c-48 0 -88.167 -11.5 -120.5 -34.5s-56.5 -56.167 -72.5 -99.5s-24 -96.333 -24 -159c0 -53.333 6.5 -101.166 19.5 -143.499s34.667 -75.666 65 -99.999s71.166 -36.5 122.499 -36.5
c21.333 0 40 1.66699 56 5s30.333 6.66602 43 9.99902v212h-130v80h217v-350c-24.667 -10 -53.167 -18.667 -85.5 -26s-67.166 -11 -104.499 -11zM321.001 810.997c-17.333 0 -32.166 5.33301 -44.499 16s-18.5 26.334 -18.5 47.001c0 22 6.16699 38.167 18.5 48.5
s27.166 15.5 44.499 15.5s32.166 -5.16699 44.499 -15.5s18.5 -26.5 18.5 -48.5c0 -20.667 -6.16699 -36.334 -18.5 -47.001s-27.166 -16 -44.499 -16z" />
    <glyph glyph-name="gdot" unicode="&#x121;" 
d="M276 -245c-36.667 0 -71.167 3.5 -103.5 10.5s-62.166 16.167 -89.499 27.5v80c26.667 -15.333 57.5 -26.833 92.5 -34.5s67.5 -11.5 97.5 -11.5c60.667 0 103 14.167 127 42.5s36 67.166 36 116.499v19c0 8 0.166992 15.667 0.5 23s1.16602 18.666 2.49902 33.999h-4
c-18.667 -27.333 -40.5 -46.166 -65.5 -56.499s-55.167 -15.5 -90.5 -15.5c-70.667 0 -125.667 24.167 -165 72.5s-59 115.833 -59 202.5c0 87.333 19.5 156 58.5 206s92.5 75 160.5 75c36 0 66.333 -5.83301 91 -17.5s46.667 -31.167 66 -58.5h5l12 66h72v-550
c0 -50.667 -8.66699 -93.167 -26 -127.5s-44 -60.166 -80 -77.499s-82 -26 -138 -26zM296 63c22 0 41.833 3.5 59.5 10.5s32.667 18 45 33s21.833 34 28.5 57s10 50.5 10 82.5v21c0 48.667 -5.83301 88.167 -17.5 118.5s-28.5 52.5 -50.5 66.5s-48 21 -78 21
c-50.667 0 -87.667 -17.833 -111 -53.5s-35 -86.167 -35 -151.5c0 -66.667 12.167 -117.5 36.5 -152.5s61.833 -52.5 112.5 -52.5zM299 633c-17.333 0 -32.166 5.33301 -44.499 16s-18.5 26.334 -18.5 47.001c0 22 6.16699 38.167 18.5 48.5s27.166 15.5 44.499 15.5
s32.166 -5.16699 44.499 -15.5s18.5 -26.5 18.5 -48.5c0 -20.667 -6.16699 -36.334 -18.5 -47.001s-27.166 -16 -44.499 -16z" />
    <glyph glyph-name="uni0122" unicode="&#x122;" 
d="M340 -10c-64.667 0 -118.999 13.4971 -162.999 40.4971s-77 67 -99 120s-33 118.167 -33 195.5c0 80 11.667 148.167 35 204.5s57.833 99.333 103.5 129s101.834 44.5 168.501 44.5c34 0 64.667 -3.66699 92 -11s53.333 -17.666 78 -30.999l-32 -75
c-16.667 10.667 -36.334 19.334 -59.001 26.001s-48.334 10 -77.001 10c-48 0 -88.167 -11.5 -120.5 -34.5s-56.5 -56.167 -72.5 -99.5s-24 -96.333 -24 -159c0 -53.333 6.5 -101.166 19.5 -143.499s34.667 -75.666 65 -99.999s71.166 -36.5 122.499 -36.5
c21.333 0 40 1.66699 56 5s30.333 6.66602 43 9.99902v212h-130v80h217v-350c-24.667 -10 -53.167 -18.667 -85.5 -26s-67.166 -11 -104.499 -11zM254.001 -209.003c5.33301 11.333 10.832 25.833 16.499 43.5s10.834 36 15.501 55s7.66699 35.5 9 49.5h87v-7
c-2.66699 -12 -8.16699 -27.333 -16.5 -46s-18 -37.5 -29 -56.5s-22.5 -35.833 -34.5 -50.5h-48v12z" />
    <glyph glyph-name="uni0123" unicode="&#x123;" 
d="M235 614c3.33301 12 9.00098 27.1689 17.001 45.502s17.5 37 28.5 56s22.5 35.833 34.5 50.5h49v-12c-5.33301 -11.333 -10.833 -25.833 -16.5 -43.5s-10.834 -35.834 -15.501 -54.501s-8 -35.334 -10 -50.001h-87v8zM276.001 -244.998
c-36.667 0 -71.167 3.5 -103.5 10.5s-62.166 16.167 -89.499 27.5v80c26.667 -15.333 57.5 -26.833 92.5 -34.5s67.5 -11.5 97.5 -11.5c60.667 0 103 14.167 127 42.5s36 67.166 36 116.499v19c0 8 0.166992 15.667 0.5 23s1.16602 18.666 2.49902 33.999h-4
c-18.667 -27.333 -40.5 -46.166 -65.5 -56.499s-55.167 -15.5 -90.5 -15.5c-70.667 0 -125.667 24.167 -165 72.5s-59 115.833 -59 202.5c0 87.333 19.5 156 58.5 206s92.5 75 160.5 75c36 0 66.333 -5.83301 91 -17.5s46.667 -31.167 66 -58.5h5l12 66h72v-550
c0 -50.667 -8.66699 -93.167 -26 -127.5s-44 -60.166 -80 -77.499s-82 -26 -138 -26zM296.001 63.002c22 0 41.833 3.5 59.5 10.5s32.667 18 45 33s21.833 34 28.5 57s10 50.5 10 82.5v21c0 48.667 -5.83301 88.167 -17.5 118.5s-28.5 52.5 -50.5 66.5s-48 21 -78 21
c-50.667 0 -87.667 -17.833 -111 -53.5s-35 -86.167 -35 -151.5c0 -66.667 12.167 -117.5 36.5 -152.5s61.833 -52.5 112.5 -52.5z" />
    <glyph glyph-name="Hcircumflex" unicode="&#x124;" 
d="M70 0v714h90v-301h280v301h90v-714h-90v333h-280v-333h-90zM131 795c12.667 13.333 26.8311 28.6689 42.498 46.002s30.834 35.166 45.501 53.499s26.334 34.833 35.001 49.5h90c8 -14.667 19.5 -31.167 34.5 -49.5s30.667 -36.333 47 -54s30.833 -32.834 43.5 -45.501
v-11h-62c-17.333 10.667 -35.333 25 -54 43s-37 36 -55 54c-18 -18 -36 -35.833 -54 -53.5s-35.667 -32.167 -53 -43.5h-60v11z" />
    <glyph glyph-name="hcircumflex" unicode="&#x125;" 
d="M80 0l0.000976562 759.998h90v-216c0 -12.667 -0.5 -28.667 -1.5 -48s-1.83301 -34.666 -2.5 -45.999h5c11.333 22 25.5 40 42.5 54s36.167 24.5 57.5 31.5s44 10.5 68 10.5c55.333 0 100.166 -15.5 134.499 -46.5s51.5 -80.833 51.5 -149.5v-350h-90v332
c0 48.667 -10.333 84.334 -31 107.001s-50 34 -88 34c-29.333 0 -55 -7.66699 -77 -23s-39 -37.5 -51 -66.5s-18 -64.167 -18 -105.5v-278h-90zM-42.999 840.998c12.667 13.333 26.8311 28.6689 42.498 46.002s30.834 35.166 45.501 53.499s26.334 34.833 35.001 49.5h90
c8 -14.667 19.5 -31.167 34.5 -49.5s30.667 -36.333 47 -54s30.833 -32.834 43.5 -45.501v-11h-62c-17.333 10.667 -35.333 25 -54 43s-37 36 -55 54c-18 -18 -36 -35.833 -54 -53.5s-35.667 -32.167 -53 -43.5h-60v11z" />
    <glyph glyph-name="Hbar" unicode="&#x126;" 
d="M0 523v72h600v-72h-600zM70 0v714h90v-301h280v301h90v-714h-90v333h-280v-333h-90z" />
    <glyph glyph-name="hbar" unicode="&#x127;" 
d="M0 604v66h346v-66h-346zM80 0l0.000976562 759.998h90v-216c0 -12.667 -0.5 -28.667 -1.5 -48s-1.83301 -34.666 -2.5 -45.999h5c11.333 22 25.5 40 42.5 54s36.167 24.5 57.5 31.5s44 10.5 68 10.5c55.333 0 100.166 -15.5 134.499 -46.5s51.5 -80.833 51.5 -149.5v-350
h-90v332c0 48.667 -10.333 84.334 -31 107.001s-50 34 -88 34c-29.333 0 -55 -7.66699 -77 -23s-39 -37.5 -51 -66.5s-18 -64.167 -18 -105.5v-278h-90z" />
    <glyph glyph-name="Itilde" unicode="&#x128;" 
d="M110 0v62l144 13v564l-144 13v62h380v-62l-146 -13v-564l146 -13v-62h-380zM120 784c2 20 5.83398 37.833 11.501 53.5s13.167 29 22.5 40s20.333 19.5 33 25.5s27 9 43 9c14 0 27.5 -2.83301 40.5 -8.5s25.5 -12.334 37.5 -20.001s23.5 -14.334 34.5 -20.001
s21.833 -8.5 32.5 -8.5c15.333 0 27.166 4.83301 35.499 14.5s14.833 24.167 19.5 43.5h50c-4 -38.667 -15.333 -69.667 -34 -93s-43.667 -35 -75 -35c-14 0 -27.333 2.83301 -40 8.5s-24.834 12.334 -36.501 20.001s-23.167 14.334 -34.5 20.001s-22.666 8.5 -33.999 8.5
c-16 0 -28 -4.83301 -36 -14.5s-14.333 -24.167 -19 -43.5h-51z" />
    <glyph glyph-name="itilde" unicode="&#x129;" 
d="M80 0v60l191 15v386l-175 13v62h265v-461l179 -15v-60h-460zM120 606c2 20 5.83398 37.833 11.501 53.5s13.167 29 22.5 40s20.333 19.5 33 25.5s27 9 43 9c14 0 27.5 -2.83301 40.5 -8.5s25.5 -12.334 37.5 -20.001s23.5 -14.334 34.5 -20.001s21.833 -8.5 32.5 -8.5
c15.333 0 27.166 4.83301 35.499 14.5s14.833 24.167 19.5 43.5h50c-4 -38.667 -15.333 -69.667 -34 -93s-43.667 -35 -75 -35c-14 0 -27.333 2.83301 -40 8.5s-24.834 12.334 -36.501 20.001s-23.167 14.334 -34.5 20.001s-22.666 8.5 -33.999 8.5
c-16 0 -28 -4.83301 -36 -14.5s-14.333 -24.167 -19 -43.5h-51z" />
    <glyph glyph-name="Imacron" unicode="&#x12a;" 
d="M110 0v62l144 13v564l-144 13v62h380v-62l-146 -13v-564l146 -13v-62h-380zM151 796v71h297v-71h-297z" />
    <glyph glyph-name="imacron" unicode="&#x12b;" 
d="M80 0v60l191 15v386l-175 13v62h265v-461l179 -15v-60h-460zM151 618v71h297v-71h-297z" />
    <glyph glyph-name="Ibreve" unicode="&#x12c;" 
d="M110 0v62l144 13v564l-144 13v62h380v-62l-146 -13v-564l146 -13v-62h-380zM296 784c-47.333 0 -84.166 12.667 -110.499 38s-40.166 57.333 -41.499 96h58c4.66699 -20 12.167 -35 22.5 -45s22.166 -16.833 35.499 -20.5s26.333 -5.5 39 -5.5
c20.667 0 40.5 4.5 59.5 13.5s31.5 28.167 37.5 57.5h59c-0.666992 -38.667 -14.834 -70.667 -42.501 -96s-66.5 -38 -116.5 -38z" />
    <glyph glyph-name="ibreve" unicode="&#x12d;" 
d="M80 0v60l191 15v386l-175 13v62h265v-461l179 -15v-60h-460zM296 606c-47.333 0 -84.166 12.667 -110.499 38s-40.166 57.333 -41.499 96h58c4.66699 -20 12.167 -35 22.5 -45s22.166 -16.833 35.499 -20.5s26.333 -5.5 39 -5.5c20.667 0 40.5 4.5 59.5 13.5
s31.5 28.167 37.5 57.5h59c-0.666992 -38.667 -14.834 -70.667 -42.501 -96s-66.5 -38 -116.5 -38z" />
    <glyph glyph-name="Iogonek" unicode="&#x12e;" 
d="M110 0v62l144 13v564l-144 13v62h380v-62l-146 -13v-564l146 -13v-62h-380zM407 -220c-36 0 -62.333 8.33496 -79 25.002s-25 38 -25 64c0 22 4.83301 42.167 14.5 60.5s21.667 34.666 36 48.999s28.166 26.5 41.499 36.5l48 -15c-22 -20.667 -38.833 -40 -50.5 -58
s-17.5 -37 -17.5 -57c0 -16.667 4.33301 -28.5 13 -35.5s21.334 -10.5 38.001 -10.5c7.33301 0 14.833 0.5 22.5 1.5s14.167 2.5 19.5 4.5v-56c-9.33301 -2.66699 -18.833 -4.83398 -28.5 -6.50098s-20.5 -2.5 -32.5 -2.5z" />
    <glyph glyph-name="iogonek" unicode="&#x12f;" 
d="M80 0v60l191 15v386l-175 13v62h265v-461l179 -15v-60h-460zM307 633c-17.333 0 -32.166 5.33301 -44.499 16s-18.5 26.334 -18.5 47.001c0 22 6.16699 38.167 18.5 48.5s27.166 15.5 44.499 15.5s32.166 -5.16699 44.499 -15.5s18.5 -26.5 18.5 -48.5
c0 -20.667 -6.16699 -36.334 -18.5 -47.001s-27.166 -16 -44.499 -16zM425 -220c-36 0 -62.333 8.33496 -79 25.002s-25 38 -25 64c0 22 4.83301 42.167 14.5 60.5s21.667 34.666 36 48.999s28.166 26.5 41.499 36.5l48 -15c-22 -20.667 -38.833 -40 -50.5 -58
s-17.5 -37 -17.5 -57c0 -16.667 4.33301 -28.5 13 -35.5s21.334 -10.5 38.001 -10.5c7.33301 0 14.833 0.5 22.5 1.5s14.167 2.5 19.5 4.5v-56c-9.33301 -2.66699 -18.833 -4.83398 -28.5 -6.50098s-20.5 -2.5 -32.5 -2.5z" />
    <glyph glyph-name="Idotaccent" unicode="&#x130;" 
d="M110 0v62l144 13v564l-144 13v62h380v-62l-146 -13v-564l146 -13v-62h-380zM299 811c-17.333 0 -32.166 5.33301 -44.499 16s-18.5 26.334 -18.5 47.001c0 22 6.16699 38.167 18.5 48.5s27.166 15.5 44.499 15.5s32.166 -5.16699 44.499 -15.5s18.5 -26.5 18.5 -48.5
c0 -20.667 -6.16699 -36.334 -18.5 -47.001s-27.166 -16 -44.499 -16z" />
    <glyph glyph-name="IJ" unicode="&#x132;" 
d="M270 -10c-19.333 0 -39.999 1.16699 -61.999 3.5s-42.5 5.83301 -61.5 10.5s-33.833 9.66699 -44.5 15v85c9.33301 -4 22.666 -8.5 39.999 -13.5s36.833 -9.16699 58.5 -12.5s42.5 -5 62.5 -5c29.333 0 55 5.16699 77 15.5s39.167 26.833 51.5 49.5s18.5 53 18.5 91v485
h90v-497c0 -48 -8.83301 -89 -26.5 -123s-43.5 -59.833 -77.5 -77.5s-76 -26.5 -126 -26.5zM100.001 200v514h90v-514h-90z" />
    <glyph glyph-name="ij" unicode="&#x133;" 
d="M271 -245c-22 0 -46.333 1.66602 -73 4.99902s-49.334 7.33301 -68.001 12v79c12.667 -4 26.5 -7.5 41.5 -10.5s30.333 -5.5 46 -7.5s30.5 -3 44.5 -3c32 0 58 4.83301 78 14.5s34.5 24.334 43.5 44.001s13.5 44.5 13.5 74.5v573h90v-588
c0 -62 -18.667 -109.667 -56 -143s-90.666 -50 -159.999 -50zM117 -0.000976562v536h90v-536h-90zM163 632.999c-17.333 0 -32.165 5.33301 -44.498 16s-18.5 26.667 -18.5 48s6 37.166 18 47.499s27 15.5 45 15.5c17.333 0 32.166 -5.16699 44.499 -15.5
s18.5 -26.166 18.5 -47.499c0 -22 -6.33301 -38.167 -19 -48.5s-27.334 -15.5 -44.001 -15.5zM437.001 632.999c-17.333 0 -31.998 5.33301 -43.998 16s-18 26.667 -18 48s5.83301 37.166 17.5 47.499s26.5 15.5 44.5 15.5c17.333 0 32.166 -5.16699 44.499 -15.5
s18.5 -26.166 18.5 -47.499c0 -22 -6.33301 -38.167 -19 -48.5s-27.334 -15.5 -44.001 -15.5z" />
    <glyph glyph-name="Jcircumflex" unicode="&#x134;" 
d="M252 -10c-25.333 0 -52.3301 2.66699 -80.9971 8s-52.334 12.333 -71.001 21v85c15.333 -6.66699 36.666 -13.5 63.999 -20.5s54.333 -10.5 81 -10.5s49.667 5.16699 69 15.5s34.333 26.833 45 49.5s16 53 16 91v485h90v-497c0 -48 -8 -89 -24 -123
s-39.833 -59.833 -71.5 -77.5s-70.834 -26.5 -117.501 -26.5zM251.003 795c12.667 13.333 26.8311 28.6689 42.498 46.002s30.834 35.166 45.501 53.499s26.334 34.833 35.001 49.5h90c8 -14.667 19.5 -31.167 34.5 -49.5s30.667 -36.333 47 -54
s30.833 -32.834 43.5 -45.501v-11h-62c-17.333 10.667 -35.333 25 -54 43s-37 36 -55 54c-18 -18 -36 -35.833 -54 -53.5s-35.667 -32.167 -53 -43.5h-60v11z" />
    <glyph glyph-name="jcircumflex" unicode="&#x135;" 
d="M192 -245c-20.667 0 -43.498 1.66602 -68.498 4.99902s-46.167 7.33301 -63.5 12v79c12 -4 24.833 -7.5 38.5 -10.5s27.667 -5.5 42 -7.5s28.166 -3 41.499 -3c30 0 54.167 4.83301 72.5 14.5s31.666 24.334 39.999 44.001s12.5 44.5 12.5 74.5v498l-175 13v62h265v-588
c0 -62 -17.833 -109.667 -53.5 -143s-86.167 -50 -151.5 -50zM171.002 616.999c12.667 13.333 26.8311 28.6689 42.498 46.002s30.834 35.166 45.501 53.499s26.334 34.833 35.001 49.5h90c8 -14.667 19.5 -31.167 34.5 -49.5s30.667 -36.333 47 -54
s30.833 -32.834 43.5 -45.501v-11h-62c-17.333 10.667 -35.333 25 -54 43s-37 36 -55 54c-18 -18 -36 -35.833 -54 -53.5s-35.667 -32.167 -53 -43.5h-60v11z" />
    <glyph glyph-name="uni0136" unicode="&#x136;" 
d="M70 0v713.999h90v-384c11.333 18 23 36.333 35 55s25 37.334 39 56.001l204 273h103l-239 -323l248 -391h-103l-206 330l-81 -93v-237h-90zM227 -209.001c5.33301 11.333 10.832 25.833 16.499 43.5s10.834 36 15.501 55s7.66699 35.5 9 49.5h87v-7
c-2.66699 -12 -8.16699 -27.333 -16.5 -46s-18 -37.5 -29 -56.5s-22.5 -35.833 -34.5 -50.5h-48v12z" />
    <glyph glyph-name="uni0137" unicode="&#x137;" 
d="M105 0l-0.00195312 759.998h90v-366c0 -14 -0.333008 -29.667 -1 -47s-1.5 -35 -2.5 -53s-2.16699 -35 -3.5 -51h2c12.667 16.667 24.834 31.834 36.501 45.501s23.834 27.834 36.501 42.501l185 205h108l-213 -231l227 -305h-104l-183 252l-88 -85v-167h-90z
M255.998 -209.002c5.33301 11.333 10.832 25.833 16.499 43.5s10.834 36 15.501 55s7.66699 35.5 9 49.5h87v-7c-2.66699 -12 -8.16699 -27.333 -16.5 -46s-18 -37.5 -29 -56.5s-22.5 -35.833 -34.5 -50.5h-48v12z" />
    <glyph glyph-name="kgreenlandic" unicode="&#x138;" 
d="M105 0l0.000976562 535.998h90v-142c0 -14 -0.333008 -29.667 -1 -47s-1.5 -35 -2.5 -53s-2.16699 -35 -3.5 -51h2c12.667 16.667 24.667 31.834 36 45.501s23.666 27.834 36.999 42.501l185 205h108l-213 -231l227 -305h-104l-183 252l-88 -85v-167h-90z" />
    <glyph glyph-name="Lacute" unicode="&#x139;" 
d="M115 0v714h90v-631h310v-83h-400zM120 796c10 12.667 20.834 27.668 32.501 45.001s23.167 35.166 34.5 53.499s20.666 34.833 27.999 49.5h106v-10c-8 -12 -20.333 -27.5 -37 -46.5s-34.5 -38 -53.5 -57s-36.5 -34.5 -52.5 -46.5h-58v12z" />
    <glyph glyph-name="lacute" unicode="&#x13a;" 
d="M80 0v60l196 15v610l-190 13v62h280v-685l174 -15v-60h-460zM259 842c10 12.667 20.834 27.668 32.501 45.001s23.167 35.166 34.5 53.499s20.666 34.833 27.999 49.5h106v-10c-8 -12 -20.333 -27.5 -37 -46.5s-34.5 -38 -53.5 -57s-36.5 -34.5 -52.5 -46.5h-58v12z" />
    <glyph glyph-name="uni013B" unicode="&#x13b;" 
d="M115 0v714h90v-631h310v-83h-400zM247 -209c5.33301 11.333 10.832 25.833 16.499 43.5s10.834 36 15.501 55s7.66699 35.5 9 49.5h87v-7c-2.66699 -12 -8.16699 -27.333 -16.5 -46s-18 -37.5 -29 -56.5s-22.5 -35.833 -34.5 -50.5h-48v12z" />
    <glyph glyph-name="uni013C" unicode="&#x13c;" 
d="M80 0v60l196 15v610l-190 13v62h280v-685l174 -15v-60h-460zM239 -209c5.33301 11.333 10.832 25.833 16.499 43.5s10.834 36 15.501 55s7.66699 35.5 9 49.5h87v-7c-2.66699 -12 -8.16699 -27.333 -16.5 -46s-18 -37.5 -29 -56.5s-22.5 -35.833 -34.5 -50.5h-48v12z" />
    <glyph glyph-name="Lcaron" unicode="&#x13d;" 
d="M384 566c3.33301 9.33301 6.66895 20.332 10.002 32.999s6.5 25.834 9.5 39.501s5.66699 27 8 40s4.16602 24.833 5.49902 35.5h87v-8c-2.66699 -12 -7.83398 -27.167 -15.501 -45.5s-16.5 -37 -26.5 -56s-20 -35.833 -30 -50.5h-48v12zM115.003 -0.000976562v714h90
v-631h310v-83h-400z" />
    <glyph glyph-name="lcaron" unicode="&#x13e;" 
d="M443 612c3.33301 9.33301 6.66895 20.332 10.002 32.999s6.5 25.834 9.5 39.501s5.66699 27 8 40s4.16602 24.833 5.49902 35.5h87v-8c-2.66699 -12 -7.83398 -27.167 -15.501 -45.5s-16.5 -37 -26.5 -56s-20 -35.833 -30 -50.5h-48v12zM80.0029 -0.000976562v60l196 15
v610l-190 13v62h280v-685l174 -15v-60h-460z" />
    <glyph glyph-name="Ldot" unicode="&#x13f;" 
d="M115 0v714h90v-631h310v-83h-400zM453 304c-17.333 0 -32 5.33301 -44 16s-18 28 -18 52c0 25.333 6 43 18 53s26.667 15 44 15s32 -5 44 -15s18 -27.667 18 -53c0 -24 -6 -41.333 -18 -52s-26.667 -16 -44 -16z" />
    <glyph glyph-name="ldot" unicode="&#x140;" 
d="M600 343c-17.333 0 -32 5.33301 -44 16s-18 28 -18 52c0 25.333 6 43 18 53s26.667 15 44 15s32 -5 44 -15s18 -27.667 18 -53c0 -24 -6 -41.333 -18 -52s-26.667 -16 -44 -16zM80 0v60l196 15v610l-190 13v62h280v-685l174 -15v-60h-460z" />
    <glyph glyph-name="Lslash" unicode="&#x141;" 
d="M89 213l-35 60l311 184l36 -63zM155 0v714h90v-631h310v-83h-400z" />
    <glyph glyph-name="lslash" unicode="&#x142;" 
d="M180 237l-36 59l308 191l37 -59zM80 0v60l196 15v610l-190 13v62h280v-685l174 -15v-60h-460z" />
    <glyph glyph-name="Nacute" unicode="&#x143;" 
d="M70 0v714.004h119l260 -595h3c-2 19.333 -3.5 37.833 -4.5 55.5s-1.83301 35 -2.5 52s-1.16699 34.5 -1.5 52.5s-0.5 37 -0.5 57v378h87v-714h-109l-273 622h-4c1.33301 -18.667 2.83301 -37.334 4.5 -56.001s3.16699 -37.334 4.5 -56.001s2.33301 -37.334 3 -56.001
s1 -37.334 1 -56.001v-398h-87zM264 796.004c10 12.667 20.834 27.668 32.501 45.001s23.167 35.166 34.5 53.499s20.666 34.833 27.999 49.5h106v-10c-8 -12 -20.333 -27.5 -37 -46.5s-34.5 -38 -53.5 -57s-36.5 -34.5 -52.5 -46.5h-58v12z" />
    <glyph glyph-name="nacute" unicode="&#x144;" 
d="M80 0l-0.000976562 536.001h72l13 -79h5c10.667 20.667 24.5 37.5 41.5 50.5s36.833 22.667 59.5 29s47.334 9.5 74.001 9.5c54 0 97.5 -15.167 130.5 -45.5s49.5 -77.833 49.5 -142.5v-358h-90v342c0 45.333 -9.16699 78.5 -27.5 99.5s-47.833 31.5 -88.5 31.5
c-54.667 0 -93.167 -17.333 -115.5 -52s-33.5 -83.334 -33.5 -146.001v-275h-90zM270.999 618.001c10 12.667 20.834 27.668 32.501 45.001s23.167 35.166 34.5 53.499s20.666 34.833 27.999 49.5h106v-10c-8 -12 -20.333 -27.5 -37 -46.5s-34.5 -38 -53.5 -57
s-36.5 -34.5 -52.5 -46.5h-58v12z" />
    <glyph glyph-name="uni0145" unicode="&#x145;" 
d="M70 0v714.004h119l260 -595h3c-2 19.333 -3.5 37.833 -4.5 55.5s-1.83301 35 -2.5 52s-1.16699 34.5 -1.5 52.5s-0.5 37 -0.5 57v378h87v-714h-109l-273 622h-4c1.33301 -18.667 2.83301 -37.334 4.5 -56.001s3.16699 -37.334 4.5 -56.001s2.33301 -37.334 3 -56.001
s1 -37.334 1 -56.001v-398h-87zM217 -208.996c5.33301 11.333 10.832 25.833 16.499 43.5s10.834 36 15.501 55s7.66699 35.5 9 49.5h87v-7c-2.66699 -12 -8.16699 -27.333 -16.5 -46s-18 -37.5 -29 -56.5s-22.5 -35.833 -34.5 -50.5h-48v12z" />
    <glyph glyph-name="uni0146" unicode="&#x146;" 
d="M80 0l-0.000976562 536.001h72l13 -79h5c10.667 20.667 24.5 37.5 41.5 50.5s36.833 22.667 59.5 29s47.334 9.5 74.001 9.5c54 0 97.5 -15.167 130.5 -45.5s49.5 -77.833 49.5 -142.5v-358h-90v342c0 45.333 -9.16699 78.5 -27.5 99.5s-47.833 31.5 -88.5 31.5
c-54.667 0 -93.167 -17.333 -115.5 -52s-33.5 -83.334 -33.5 -146.001v-275h-90zM222.999 -208.999c5.33301 11.333 10.832 25.833 16.499 43.5s10.834 36 15.501 55s7.66699 35.5 9 49.5h87v-7c-2.66699 -12 -8.16699 -27.333 -16.5 -46s-18 -37.5 -29 -56.5
s-22.5 -35.833 -34.5 -50.5h-48v12z" />
    <glyph glyph-name="Ncaron" unicode="&#x147;" 
d="M70 0v714.004h119l260 -595h3c-2 19.333 -3.5 37.833 -4.5 55.5s-1.83301 35 -2.5 52s-1.16699 34.5 -1.5 52.5s-0.5 37 -0.5 57v378h87v-714h-109l-273 622h-4c1.33301 -18.667 2.83301 -37.334 4.5 -56.001s3.16699 -37.334 4.5 -56.001s2.33301 -37.334 3 -56.001
s1 -37.334 1 -56.001v-398h-87zM259 784.004c-8.66699 15.333 -20.334 31.833 -35.001 49.5s-30 35.167 -46 52.5s-30 32.333 -42 45v13h60c17.333 -11.333 35.333 -25 54 -41s36.334 -33 53.001 -51c18 18 36.333 35 55 51s36.667 29.667 54 41h62v-13
c-12.667 -12.667 -27.167 -27.667 -43.5 -45s-32 -34.833 -47 -52.5s-26.5 -34.167 -34.5 -49.5h-90z" />
    <glyph glyph-name="ncaron" unicode="&#x148;" 
d="M80 0l-0.000976562 536.001h72l13 -79h5c10.667 20.667 24.5 37.5 41.5 50.5s36.833 22.667 59.5 29s47.334 9.5 74.001 9.5c54 0 97.5 -15.167 130.5 -45.5s49.5 -77.833 49.5 -142.5v-358h-90v342c0 45.333 -9.16699 78.5 -27.5 99.5s-47.833 31.5 -88.5 31.5
c-54.667 0 -93.167 -17.333 -115.5 -52s-33.5 -83.334 -33.5 -146.001v-275h-90zM265.999 606.001c-8.66699 15.333 -20.334 31.833 -35.001 49.5s-30 35.167 -46 52.5s-30 32.333 -42 45v13h60c17.333 -11.333 35.333 -25 54 -41s36.334 -33 53.001 -51
c18 18 36.333 35 55 51s36.667 29.667 54 41h62v-13c-12.667 -12.667 -27.167 -27.667 -43.5 -45s-32 -34.833 -47 -52.5s-26.5 -34.167 -34.5 -49.5h-90z" />
    <glyph glyph-name="napostrophe" unicode="&#x149;" 
d="M95 0l-0.000976562 536.001h72l13 -79h5c10.667 20.667 24 37.5 40 50.5s34.5 22.667 55.5 29s44.167 9.5 69.5 9.5c52.667 0 95 -15.167 127 -45.5s48 -77.833 48 -142.5v-358h-90v342c0 45.333 -9.66699 78.5 -29 99.5s-46.666 31.5 -81.999 31.5
c-49.333 0 -84.833 -17.333 -106.5 -52s-32.5 -83.334 -32.5 -146.001v-275h-90zM-50.001 469.001c4.66699 20 9.33203 40.667 13.999 62s9.16699 42.833 13.5 64.5s8.33301 42.5 12 62.5s6.83398 38.667 9.50098 56h103l7 -11c-6 -23.333 -13.667 -48.5 -23 -75.5
s-19.333 -54 -30 -81s-21.667 -52.833 -33 -77.5h-73z" />
    <glyph glyph-name="Eng" unicode="&#x14a;" 
d="M342 -190c-16.667 0 -31.167 1.16797 -43.5 3.50098s-23.166 5.5 -32.499 9.5v76c10.667 -2.66699 22.5 -5 35.5 -7s25.167 -3 36.5 -3c18.667 0 36.167 3.33301 52.5 10s29.666 18.667 39.999 36s15.5 41.666 15.5 72.999v74h84v-76c0 -66.667 -17 -116 -51 -148
s-79.667 -48 -137 -48zM70 0.000976562v714.004h119l260 -595h3c-2 19.333 -3.5 37.833 -4.5 55.5s-1.83301 35 -2.5 52s-1.16699 34.5 -1.5 52.5s-0.5 37 -0.5 57v378h87v-714h-109l-273 622h-4c1.33301 -18.667 2.83301 -37.334 4.5 -56.001s3.16699 -37.334 4.5 -56.001
s2.33301 -37.334 3 -56.001s1 -37.334 1 -56.001v-398h-87z" />
    <glyph glyph-name="eng" unicode="&#x14b;" 
d="M380 -240c-16 0 -29.667 1.16699 -41 3.5s-21.333 5.16602 -30 8.49902v71c9.33301 -2.66699 18.666 -5 27.999 -7s20 -3 32 -3c19.333 0 35.166 5.83301 47.499 17.5s18.5 33.834 18.5 66.501v327l90 6v-330c0 -33.333 -5.16699 -62 -15.5 -86
s-26.166 -42.333 -47.499 -55s-48.666 -19 -81.999 -19zM80 0l-0.000976562 536.001h72l13 -79h5c10.667 20.667 24.5 37.5 41.5 50.5s36.833 22.667 59.5 29s47.334 9.5 74.001 9.5c54 0 97.5 -15.167 130.5 -45.5s49.5 -77.833 49.5 -142.5v-358h-90v342
c0 45.333 -9.16699 78.5 -27.5 99.5s-47.833 31.5 -88.5 31.5c-54.667 0 -93.167 -17.333 -115.5 -52s-33.5 -83.334 -33.5 -146.001v-275h-90z" />
    <glyph glyph-name="Omacron" unicode="&#x14c;" 
d="M299 -10c-44.667 0 -83 8.83301 -115 26.5s-58.333 42.667 -79 75s-35.834 71 -45.501 116s-14.5 94.833 -14.5 149.5c0 73.333 8.83301 137.666 26.5 192.999s45.334 98.5 83.001 129.5s86.167 46.5 145.5 46.5c44.667 0 83 -8.66699 115 -26s58.333 -42.333 79 -75
s36 -71.334 46 -116.001s15 -94.667 15 -150s-5 -105.666 -15 -150.999s-25.333 -84.166 -46 -116.499s-47.167 -57.333 -79.5 -75s-70.833 -26.5 -115.5 -26.5zM301 70c40 0 71.833 11.499 95.5 34.499s40.667 56 51 99s15.5 94.5 15.5 154.5
c0 90.667 -12 161.334 -36 212.001s-65.667 76 -125 76c-40 0 -72.167 -11.5 -96.5 -34.5s-41.833 -56 -52.5 -99s-16 -94.5 -16 -154.5s5.33301 -111.5 16 -154.5s28 -76 52 -99s56 -34.5 96 -34.5zM151 795.999v71h297v-71h-297z" />
    <glyph glyph-name="omacron" unicode="&#x14d;" 
d="M301 -10c-34.667 0 -67.001 5.66895 -97.001 17.002s-56.167 28.666 -78.5 51.999s-39.666 52.5 -51.999 87.5s-18.5 76.167 -18.5 123.5c0 62 10.5 113.333 31.5 154s49.833 71.167 86.5 91.5s78.334 30.5 125.001 30.5s88.667 -10.167 126 -30.5s66.833 -51 88.5 -92
s32.5 -93.167 32.5 -156.5c0 -46.667 -6.16699 -87.334 -18.5 -122.001s-29.333 -63.5 -51 -86.5s-47.334 -40.167 -77.001 -51.5s-62.167 -17 -97.5 -17zM299.999 63.002c34.667 0 63.333 8.33301 86 25s39.667 40.5 51 71.5s17 67.5 17 109.5
c0 42.667 -5.66699 79.167 -17 109.5s-28.5 53.666 -51.5 69.999s-51.833 24.5 -86.5 24.5c-52 0 -90.833 -18.167 -116.5 -54.5s-38.5 -86.166 -38.5 -149.499c0 -42 5.83301 -78.5 17.5 -109.5s29 -54.833 52 -71.5s51.833 -25 86.5 -25zM150.998 618.002v71h297v-71h-297
z" />
    <glyph glyph-name="Obreve" unicode="&#x14e;" 
d="M299 -10c-44.667 0 -83 8.83301 -115 26.5s-58.333 42.667 -79 75s-35.834 71 -45.501 116s-14.5 94.833 -14.5 149.5c0 73.333 8.83301 137.666 26.5 192.999s45.334 98.5 83.001 129.5s86.167 46.5 145.5 46.5c44.667 0 83 -8.66699 115 -26s58.333 -42.333 79 -75
s36 -71.334 46 -116.001s15 -94.667 15 -150s-5 -105.666 -15 -150.999s-25.333 -84.166 -46 -116.499s-47.167 -57.333 -79.5 -75s-70.833 -26.5 -115.5 -26.5zM301 70c40 0 71.833 11.499 95.5 34.499s40.667 56 51 99s15.5 94.5 15.5 154.5
c0 90.667 -12 161.334 -36 212.001s-65.667 76 -125 76c-40 0 -72.167 -11.5 -96.5 -34.5s-41.833 -56 -52.5 -99s-16 -94.5 -16 -154.5s5.33301 -111.5 16 -154.5s28 -76 52 -99s56 -34.5 96 -34.5zM296 783.999c-47.333 0 -84.166 12.667 -110.499 38
s-40.166 57.333 -41.499 96h58c4.66699 -20 12.167 -35 22.5 -45s22.166 -16.833 35.499 -20.5s26.333 -5.5 39 -5.5c20.667 0 40.5 4.5 59.5 13.5s31.5 28.167 37.5 57.5h59c-0.666992 -38.667 -14.834 -70.667 -42.501 -96s-66.5 -38 -116.5 -38z" />
    <glyph glyph-name="obreve" unicode="&#x14f;" 
d="M301 -10c-34.667 0 -67.001 5.66895 -97.001 17.002s-56.167 28.666 -78.5 51.999s-39.666 52.5 -51.999 87.5s-18.5 76.167 -18.5 123.5c0 62 10.5 113.333 31.5 154s49.833 71.167 86.5 91.5s78.334 30.5 125.001 30.5s88.667 -10.167 126 -30.5s66.833 -51 88.5 -92
s32.5 -93.167 32.5 -156.5c0 -46.667 -6.16699 -87.334 -18.5 -122.001s-29.333 -63.5 -51 -86.5s-47.334 -40.167 -77.001 -51.5s-62.167 -17 -97.5 -17zM299.999 63.002c34.667 0 63.333 8.33301 86 25s39.667 40.5 51 71.5s17 67.5 17 109.5
c0 42.667 -5.66699 79.167 -17 109.5s-28.5 53.666 -51.5 69.999s-51.833 24.5 -86.5 24.5c-52 0 -90.833 -18.167 -116.5 -54.5s-38.5 -86.166 -38.5 -149.499c0 -42 5.83301 -78.5 17.5 -109.5s29 -54.833 52 -71.5s51.833 -25 86.5 -25zM295.998 606.002
c-47.333 0 -84.166 12.667 -110.499 38s-40.166 57.333 -41.499 96h58c4.66699 -20 12.167 -35 22.5 -45s22.166 -16.833 35.499 -20.5s26.333 -5.5 39 -5.5c20.667 0 40.5 4.5 59.5 13.5s31.5 28.167 37.5 57.5h59c-0.666992 -38.667 -14.834 -70.667 -42.501 -96
s-66.5 -38 -116.5 -38z" />
    <glyph glyph-name="Ohungarumlaut" unicode="&#x150;" 
d="M299 -10c-44.667 0 -83 8.83301 -115 26.5s-58.333 42.667 -79 75s-35.834 71 -45.501 116s-14.5 94.833 -14.5 149.5c0 73.333 8.83301 137.666 26.5 192.999s45.334 98.5 83.001 129.5s86.167 46.5 145.5 46.5c44.667 0 83 -8.66699 115 -26s58.333 -42.333 79 -75
s36 -71.334 46 -116.001s15 -94.667 15 -150s-5 -105.666 -15 -150.999s-25.333 -84.166 -46 -116.499s-47.167 -57.333 -79.5 -75s-70.833 -26.5 -115.5 -26.5zM301 70c40 0 71.833 11.499 95.5 34.499s40.667 56 51 99s15.5 94.5 15.5 154.5
c0 90.667 -12 161.334 -36 212.001s-65.667 76 -125 76c-40 0 -72.167 -11.5 -96.5 -34.5s-41.833 -56 -52.5 -99s-16 -94.5 -16 -154.5s5.33301 -111.5 16 -154.5s28 -76 52 -99s56 -34.5 96 -34.5zM316 795.999c9.33301 12.667 19.333 27.667 30 45
s21.167 35.166 31.5 53.499s18.833 34.833 25.5 49.5h96v-10c-6.66699 -11.333 -17.667 -26.666 -33 -45.999s-32 -38.5 -50 -57.5s-34.667 -34.5 -50 -46.5h-50v12zM140 795.999c9.33301 12.667 19.333 27.667 30 45s21 35.166 31 53.499s18.667 34.833 26 49.5h96v-10
c-6.66699 -11.333 -17.667 -26.666 -33 -45.999s-32 -38.5 -50 -57.5s-34.667 -34.5 -50 -46.5h-50v12z" />
    <glyph glyph-name="ohungarumlaut" unicode="&#x151;" 
d="M301 -10c-34.667 0 -67.001 5.66895 -97.001 17.002s-56.167 28.666 -78.5 51.999s-39.666 52.5 -51.999 87.5s-18.5 76.167 -18.5 123.5c0 62 10.5 113.333 31.5 154s49.833 71.167 86.5 91.5s78.334 30.5 125.001 30.5s88.667 -10.167 126 -30.5s66.833 -51 88.5 -92
s32.5 -93.167 32.5 -156.5c0 -46.667 -6.16699 -87.334 -18.5 -122.001s-29.333 -63.5 -51 -86.5s-47.334 -40.167 -77.001 -51.5s-62.167 -17 -97.5 -17zM299.999 63.002c34.667 0 63.333 8.33301 86 25s39.667 40.5 51 71.5s17 67.5 17 109.5
c0 42.667 -5.66699 79.167 -17 109.5s-28.5 53.666 -51.5 69.999s-51.833 24.5 -86.5 24.5c-52 0 -90.833 -18.167 -116.5 -54.5s-38.5 -86.166 -38.5 -149.499c0 -42 5.83301 -78.5 17.5 -109.5s29 -54.833 52 -71.5s51.833 -25 86.5 -25zM315.998 618.002
c9.33301 12.667 19.333 27.667 30 45s21.167 35.166 31.5 53.499s18.833 34.833 25.5 49.5h96v-10c-6.66699 -11.333 -17.667 -26.666 -33 -45.999s-32 -38.5 -50 -57.5s-34.667 -34.5 -50 -46.5h-50v12zM139.998 618.002c9.33301 12.667 19.333 27.667 30 45
s21 35.166 31 53.499s18.667 34.833 26 49.5h96v-10c-6.66699 -11.333 -17.667 -26.666 -33 -45.999s-32 -38.5 -50 -57.5s-34.667 -34.5 -50 -46.5h-50v12z" />
    <glyph glyph-name="Racute" unicode="&#x154;" 
d="M95 0l-0.000976562 713.999h167c56 0 102.5 -7.5 139.5 -22.5s64.833 -37.167 83.5 -66.5s28 -66.333 28 -111c0 -37.333 -6 -68.833 -18 -94.5s-28.167 -46.667 -48.5 -63s-43.166 -29.166 -68.499 -38.499l191 -318h-100l-172 292h-112v-292h-90zM258.999 369.999
c39.333 0 70.667 5.16895 94 15.502s40.333 25.666 51 45.999s16 45.166 16 74.499c0 47.333 -12.833 80.833 -38.5 100.5s-67.167 29.5 -124.5 29.5h-72v-266h74zM259 796.001c10 12.667 20.834 27.668 32.501 45.001s23.167 35.166 34.5 53.499s20.666 34.833 27.999 49.5
h106v-10c-8 -12 -20.333 -27.5 -37 -46.5s-34.5 -38 -53.5 -57s-36.5 -34.5 -52.5 -46.5h-58v12z" />
    <glyph glyph-name="racute" unicode="&#x155;" 
d="M62 0v60.001l163 15v386l-147 13v62h219l12 -98h4c18.667 35.333 39.167 62.166 61.5 80.499s51.833 27.5 88.5 27.5c22.667 0 42.834 -2 60.501 -6s33.834 -9.33301 48.501 -16l-24 -79c-10.667 6 -23.334 11.167 -38.001 15.5s-30.334 6.5 -47.001 6.5
c-28.667 0 -54 -9 -76 -27s-39.333 -42 -52 -72s-19 -63 -19 -99v-194l156 -15v-60h-410zM299 618.001c10 12.667 20.834 27.668 32.501 45.001s23.167 35.166 34.5 53.499s20.666 34.833 27.999 49.5h106v-10c-8 -12 -20.333 -27.5 -37 -46.5s-34.5 -38 -53.5 -57
s-36.5 -34.5 -52.5 -46.5h-58v12z" />
    <glyph glyph-name="uni0156" unicode="&#x156;" 
d="M95 0l-0.000976562 713.999h167c56 0 102.5 -7.5 139.5 -22.5s64.833 -37.167 83.5 -66.5s28 -66.333 28 -111c0 -37.333 -6 -68.833 -18 -94.5s-28.167 -46.667 -48.5 -63s-43.166 -29.166 -68.499 -38.499l191 -318h-100l-172 292h-112v-292h-90zM258.999 369.999
c39.333 0 70.667 5.16895 94 15.502s40.333 25.666 51 45.999s16 45.166 16 74.499c0 47.333 -12.833 80.833 -38.5 100.5s-67.167 29.5 -124.5 29.5h-72v-266h74zM247 -208.999c5.33301 11.333 10.832 25.833 16.499 43.5s10.834 36 15.501 55s7.66699 35.5 9 49.5h87v-7
c-2.66699 -12 -8.16699 -27.333 -16.5 -46s-18 -37.5 -29 -56.5s-22.5 -35.833 -34.5 -50.5h-48v12z" />
    <glyph glyph-name="uni0157" unicode="&#x157;" 
d="M62 0v60.001l163 15v386l-147 13v62h219l12 -98h4c18.667 35.333 39.167 62.166 61.5 80.499s51.833 27.5 88.5 27.5c22.667 0 42.834 -2 60.501 -6s33.834 -9.33301 48.501 -16l-24 -79c-10.667 6 -23.334 11.167 -38.001 15.5s-30.334 6.5 -47.001 6.5
c-28.667 0 -54 -9 -76 -27s-39.333 -42 -52 -72s-19 -63 -19 -99v-194l156 -15v-60h-410zM188 -208.999c5.33301 11.333 10.832 25.833 16.499 43.5s10.834 36 15.501 55s7.66699 35.5 9 49.5h87v-7c-2.66699 -12 -8.16699 -27.333 -16.5 -46s-18 -37.5 -29 -56.5
s-22.5 -35.833 -34.5 -50.5h-48v12z" />
    <glyph glyph-name="Rcaron" unicode="&#x158;" 
d="M95 0l-0.000976562 713.999h167c56 0 102.5 -7.5 139.5 -22.5s64.833 -37.167 83.5 -66.5s28 -66.333 28 -111c0 -37.333 -6 -68.833 -18 -94.5s-28.167 -46.667 -48.5 -63s-43.166 -29.166 -68.499 -38.499l191 -318h-100l-172 292h-112v-292h-90zM258.999 369.999
c39.333 0 70.667 5.16895 94 15.502s40.333 25.666 51 45.999s16 45.166 16 74.499c0 47.333 -12.833 80.833 -38.5 100.5s-67.167 29.5 -124.5 29.5h-72v-266h74zM254 784.001c-8.66699 15.333 -20.334 31.833 -35.001 49.5s-30 35.167 -46 52.5s-30 32.333 -42 45v13h60
c17.333 -11.333 35.333 -25 54 -41s36.334 -33 53.001 -51c18 18 36.333 35 55 51s36.667 29.667 54 41h62v-13c-12.667 -12.667 -27.167 -27.667 -43.5 -45s-32 -34.833 -47 -52.5s-26.5 -34.167 -34.5 -49.5h-90z" />
    <glyph glyph-name="rcaron" unicode="&#x159;" 
d="M62 0v60.001l163 15v386l-147 13v62h219l12 -98h4c18.667 35.333 39.167 62.166 61.5 80.499s51.833 27.5 88.5 27.5c22.667 0 42.834 -2 60.501 -6s33.834 -9.33301 48.501 -16l-24 -79c-10.667 6 -23.334 11.167 -38.001 15.5s-30.334 6.5 -47.001 6.5
c-28.667 0 -54 -9 -76 -27s-39.333 -42 -52 -72s-19 -63 -19 -99v-194l156 -15v-60h-410zM294 606.001c-8.66699 15.333 -20.334 31.833 -35.001 49.5s-30 35.167 -46 52.5s-30 32.333 -42 45v13h60c17.333 -11.333 35.333 -25 54 -41s36.334 -33 53.001 -51
c18 18 36.333 35 55 51s36.667 29.667 54 41h62v-13c-12.667 -12.667 -27.167 -27.667 -43.5 -45s-32 -34.833 -47 -52.5s-26.5 -34.167 -34.5 -49.5h-90z" />
    <glyph glyph-name="Sacute" unicode="&#x15a;" 
d="M281 -10c-38 0 -74.832 3.50098 -110.499 10.501s-64.167 15.833 -85.5 26.5v83c24.667 -10.667 54.667 -20.5 90 -29.5s71.333 -13.5 108 -13.5c34 0 62.5 4.66699 85.5 14s40.167 23.333 51.5 42s17 41.667 17 69c0 22.667 -4.66699 40.667 -14 54
s-25.833 26.166 -49.5 38.499s-56.834 27.833 -99.501 46.5c-28 12.667 -55.333 26.667 -82 42s-48.5 35.666 -65.5 60.999s-25.5 58.666 -25.5 99.999s9.16699 76 27.5 104s44.5 49.333 78.5 64s74.667 22 122 22c36 0 70 -3.83301 102 -11.5s60 -17.167 84 -28.5l-29 -75
c-22.667 10.667 -48 19.167 -76 25.5s-55.667 9.5 -83 9.5c-26 0 -49.167 -3.66699 -69.5 -11s-36.166 -19.166 -47.499 -35.499s-17 -38.166 -17 -65.499c0 -23.333 4.83301 -42.333 14.5 -57s25.167 -27.5 46.5 -38.5s48.666 -23.833 81.999 -38.5
c38 -16 71.5 -32.167 100.5 -48.5s51.667 -36.5 68 -60.5s24.5 -56.667 24.5 -98c0 -32 -5.16699 -60.333 -15.5 -85s-26 -45.667 -47 -63s-46.833 -30.5 -77.5 -39.5s-66.667 -13.5 -108 -13.5zM278.001 796.001c10 12.667 20.834 27.668 32.501 45.001
s23.167 35.166 34.5 53.499s20.666 34.833 27.999 49.5h106v-10c-8 -12 -20.333 -27.5 -37 -46.5s-34.5 -38 -53.5 -57s-36.5 -34.5 -52.5 -46.5h-58v12z" />
    <glyph glyph-name="sacute" unicode="&#x15b;" 
d="M279 -10c-33.333 0 -65.166 3.00488 -95.499 9.00488s-56.5 14.333 -78.5 25v83c23.333 -10.667 49.166 -20.5 77.499 -29.5s62.166 -13.5 101.499 -13.5c44 0 75.167 6.83301 93.5 20.5s27.5 33.5 27.5 59.5c0 14 -3.16699 25.5 -9.5 34.5s-18.5 18.167 -36.5 27.5
s-44.333 21.333 -79 36c-34.667 15.333 -64.334 29.666 -89.001 42.999s-43.667 29.166 -57 47.499s-20 41.833 -20 70.5c0 32 8.16699 58.5 24.5 79.5s40 36.833 71 47.5s67.833 16 110.5 16c29.333 0 57.333 -2.66699 84 -8s54.334 -14 83.001 -26l-27 -70
c-26.667 11.333 -51.167 19 -73.5 23s-44.5 6 -66.5 6c-41.333 0 -71.5 -5.33301 -90.5 -16s-28.5 -27.334 -28.5 -50.001c0 -14.667 4.16699 -27 12.5 -37s22 -19.667 41 -29s44.167 -20.666 75.5 -33.999c35.333 -14.667 65.333 -28.334 90 -41.001
s43.334 -27.834 56.001 -45.501s19 -41.834 19 -72.501c0 -34 -8.16699 -62.5 -24.5 -85.5s-40.5 -40.5 -72.5 -52.5s-71.667 -18 -119 -18zM264 618.005c10 12.667 20.834 27.668 32.501 45.001s23.167 35.166 34.5 53.499s20.666 34.833 27.999 49.5h106v-10
c-8 -12 -20.333 -27.5 -37 -46.5s-34.5 -38 -53.5 -57s-36.5 -34.5 -52.5 -46.5h-58v12z" />
    <glyph glyph-name="Scircumflex" unicode="&#x15c;" 
d="M281 -10c-38 0 -74.832 3.50098 -110.499 10.501s-64.167 15.833 -85.5 26.5v83c24.667 -10.667 54.667 -20.5 90 -29.5s71.333 -13.5 108 -13.5c34 0 62.5 4.66699 85.5 14s40.167 23.333 51.5 42s17 41.667 17 69c0 22.667 -4.66699 40.667 -14 54
s-25.833 26.166 -49.5 38.499s-56.834 27.833 -99.501 46.5c-28 12.667 -55.333 26.667 -82 42s-48.5 35.666 -65.5 60.999s-25.5 58.666 -25.5 99.999s9.16699 76 27.5 104s44.5 49.333 78.5 64s74.667 22 122 22c36 0 70 -3.83301 102 -11.5s60 -17.167 84 -28.5l-29 -75
c-22.667 10.667 -48 19.167 -76 25.5s-55.667 9.5 -83 9.5c-26 0 -49.167 -3.66699 -69.5 -11s-36.166 -19.166 -47.499 -35.499s-17 -38.166 -17 -65.499c0 -23.333 4.83301 -42.333 14.5 -57s25.167 -27.5 46.5 -38.5s48.666 -23.833 81.999 -38.5
c38 -16 71.5 -32.167 100.5 -48.5s51.667 -36.5 68 -60.5s24.5 -56.667 24.5 -98c0 -32 -5.16699 -60.333 -15.5 -85s-26 -45.667 -47 -63s-46.833 -30.5 -77.5 -39.5s-66.667 -13.5 -108 -13.5zM150.001 795.001c12.667 13.333 26.8311 28.6689 42.498 46.002
s30.834 35.166 45.501 53.499s26.334 34.833 35.001 49.5h90c8 -14.667 19.5 -31.167 34.5 -49.5s30.667 -36.333 47 -54s30.833 -32.834 43.5 -45.501v-11h-62c-17.333 10.667 -35.333 25 -54 43s-37 36 -55 54c-18 -18 -36 -35.833 -54 -53.5s-35.667 -32.167 -53 -43.5
h-60v11z" />
    <glyph glyph-name="scircumflex" unicode="&#x15d;" 
d="M279 -10c-33.333 0 -65.166 3.00488 -95.499 9.00488s-56.5 14.333 -78.5 25v83c23.333 -10.667 49.166 -20.5 77.499 -29.5s62.166 -13.5 101.499 -13.5c44 0 75.167 6.83301 93.5 20.5s27.5 33.5 27.5 59.5c0 14 -3.16699 25.5 -9.5 34.5s-18.5 18.167 -36.5 27.5
s-44.333 21.333 -79 36c-34.667 15.333 -64.334 29.666 -89.001 42.999s-43.667 29.166 -57 47.499s-20 41.833 -20 70.5c0 32 8.16699 58.5 24.5 79.5s40 36.833 71 47.5s67.833 16 110.5 16c29.333 0 57.333 -2.66699 84 -8s54.334 -14 83.001 -26l-27 -70
c-26.667 11.333 -51.167 19 -73.5 23s-44.5 6 -66.5 6c-41.333 0 -71.5 -5.33301 -90.5 -16s-28.5 -27.334 -28.5 -50.001c0 -14.667 4.16699 -27 12.5 -37s22 -19.667 41 -29s44.167 -20.666 75.5 -33.999c35.333 -14.667 65.333 -28.334 90 -41.001
s43.334 -27.834 56.001 -45.501s19 -41.834 19 -72.501c0 -34 -8.16699 -62.5 -24.5 -85.5s-40.5 -40.5 -72.5 -52.5s-71.667 -18 -119 -18zM136 617.005c12.667 13.333 26.8311 28.6689 42.498 46.002s30.834 35.166 45.501 53.499s26.334 34.833 35.001 49.5h90
c8 -14.667 19.5 -31.167 34.5 -49.5s30.667 -36.333 47 -54s30.833 -32.834 43.5 -45.501v-11h-62c-17.333 10.667 -35.333 25 -54 43s-37 36 -55 54c-18 -18 -36 -35.833 -54 -53.5s-35.667 -32.167 -53 -43.5h-60v11z" />
    <glyph glyph-name="Scedilla" unicode="&#x15e;" 
d="M281 -10c-38 0 -74.832 3.50098 -110.499 10.501s-64.167 15.833 -85.5 26.5v83c24.667 -10.667 54.667 -20.5 90 -29.5s71.333 -13.5 108 -13.5c34 0 62.5 4.66699 85.5 14s40.167 23.333 51.5 42s17 41.667 17 69c0 22.667 -4.66699 40.667 -14 54
s-25.833 26.166 -49.5 38.499s-56.834 27.833 -99.501 46.5c-28 12.667 -55.333 26.667 -82 42s-48.5 35.666 -65.5 60.999s-25.5 58.666 -25.5 99.999s9.16699 76 27.5 104s44.5 49.333 78.5 64s74.667 22 122 22c36 0 70 -3.83301 102 -11.5s60 -17.167 84 -28.5l-29 -75
c-22.667 10.667 -48 19.167 -76 25.5s-55.667 9.5 -83 9.5c-26 0 -49.167 -3.66699 -69.5 -11s-36.166 -19.166 -47.499 -35.499s-17 -38.166 -17 -65.499c0 -23.333 4.83301 -42.333 14.5 -57s25.167 -27.5 46.5 -38.5s48.666 -23.833 81.999 -38.5
c38 -16 71.5 -32.167 100.5 -48.5s51.667 -36.5 68 -60.5s24.5 -56.667 24.5 -98c0 -32 -5.16699 -60.333 -15.5 -85s-26 -45.667 -47 -63s-46.833 -30.5 -77.5 -39.5s-66.667 -13.5 -108 -13.5zM247.001 -239.999c-10.667 0 -20.499 0.500977 -29.499 1.50098
s-16.167 2.16699 -21.5 3.5v55c6 -1.33301 14 -2.5 24 -3.5s19.667 -1.5 29 -1.5c23.333 0 41.5 3.16699 54.5 9.5s19.5 17.5 19.5 33.5c0 17.333 -7.83301 30 -23.5 38s-38.167 14 -67.5 18l43 91h58l-26 -58c24 -5.33301 44.5 -14.5 61.5 -27.5s25.5 -33.167 25.5 -60.5
c0 -30.667 -12.333 -54.834 -37 -72.501s-61.334 -26.5 -110.001 -26.5z" />
    <glyph glyph-name="scedilla" unicode="&#x15f;" 
d="M279 -10c-33.333 0 -65.166 3.00488 -95.499 9.00488s-56.5 14.333 -78.5 25v83c23.333 -10.667 49.166 -20.5 77.499 -29.5s62.166 -13.5 101.499 -13.5c44 0 75.167 6.83301 93.5 20.5s27.5 33.5 27.5 59.5c0 14 -3.16699 25.5 -9.5 34.5s-18.5 18.167 -36.5 27.5
s-44.333 21.333 -79 36c-34.667 15.333 -64.334 29.666 -89.001 42.999s-43.667 29.166 -57 47.499s-20 41.833 -20 70.5c0 32 8.16699 58.5 24.5 79.5s40 36.833 71 47.5s67.833 16 110.5 16c29.333 0 57.333 -2.66699 84 -8s54.334 -14 83.001 -26l-27 -70
c-26.667 11.333 -51.167 19 -73.5 23s-44.5 6 -66.5 6c-41.333 0 -71.5 -5.33301 -90.5 -16s-28.5 -27.334 -28.5 -50.001c0 -14.667 4.16699 -27 12.5 -37s22 -19.667 41 -29s44.167 -20.666 75.5 -33.999c35.333 -14.667 65.333 -28.334 90 -41.001
s43.334 -27.834 56.001 -45.501s19 -41.834 19 -72.501c0 -34 -8.16699 -62.5 -24.5 -85.5s-40.5 -40.5 -72.5 -52.5s-71.667 -18 -119 -18zM252 -239.995c-10.667 0 -20.499 0.500977 -29.499 1.50098s-16.167 2.16699 -21.5 3.5v55c6 -1.33301 14 -2.5 24 -3.5
s19.667 -1.5 29 -1.5c23.333 0 41.5 3.16699 54.5 9.5s19.5 17.5 19.5 33.5c0 17.333 -7.83301 30 -23.5 38s-38.167 14 -67.5 18l43 91h58l-26 -58c24 -5.33301 44.5 -14.5 61.5 -27.5s25.5 -33.167 25.5 -60.5c0 -30.667 -12.333 -54.834 -37 -72.501
s-61.334 -26.5 -110.001 -26.5z" />
    <glyph glyph-name="uni021A" unicode="&#x21a;" 
d="M255 0v634h-210v80h510v-80h-210v-634h-90zM217 -209c5.33301 11.333 10.832 25.833 16.499 43.5s10.834 36 15.501 55s7.66699 35.5 9 49.5h87v-7c-2.66699 -12 -8.16699 -27.333 -16.5 -46s-18 -37.5 -29 -56.5s-22.5 -35.833 -34.5 -50.5h-48v12z" />
    <glyph glyph-name="uni021B" unicode="&#x21b;" 
d="M402 -10c-38 0 -72 5 -102 15s-53.833 27.667 -71.5 53s-26.5 60.333 -26.5 105v298h-146v62l146 16l18 140h72v-143h209v-75h-209v-281c0 -26.667 3.83301 -48.667 11.5 -66s20.167 -30.166 37.5 -38.499s39.666 -12.5 66.999 -12.5c17.333 0 36 1.66699 56 5
s37.333 6.66602 52 9.99902v-72c-16 -4 -33.667 -7.66699 -53 -11s-39.666 -5 -60.999 -5zM291 -209c5.33301 11.333 10.832 25.833 16.499 43.5s10.834 36 15.501 55s7.66699 35.5 9 49.5h87v-7c-2.66699 -12 -8.16699 -27.333 -16.5 -46s-18 -37.5 -29 -56.5
s-22.5 -35.833 -34.5 -50.5h-48v12z" />
    <glyph glyph-name="Tcaron" unicode="&#x164;" 
d="M255 0v634h-210v80h510v-80h-210v-634h-90zM254 784c-8.66699 15.333 -20.334 31.833 -35.001 49.5s-30 35.167 -46 52.5s-30 32.333 -42 45v13h60c17.333 -11.333 35.333 -25 54 -41s36.334 -33 53.001 -51c18 18 36.333 35 55 51s36.667 29.667 54 41h62v-13
c-12.667 -12.667 -27.167 -27.667 -43.5 -45s-32 -34.833 -47 -52.5s-26.5 -34.167 -34.5 -49.5h-90z" />
    <glyph glyph-name="tcaron" unicode="&#x165;" 
d="M392 623c3.33301 9.33301 6.66895 20.332 10.002 32.999s6.5 25.834 9.5 39.501s5.66699 27 8 40s4.16602 24.833 5.49902 35.5h87v-8c-2.66699 -12 -7.83398 -27.167 -15.501 -45.5s-16.5 -37 -26.5 -56s-20 -35.833 -30 -50.5h-48v12zM402.003 -10.001
c-38 0 -72 5 -102 15s-53.833 27.667 -71.5 53s-26.5 60.333 -26.5 105v298h-146v62l146 16l18 140h72v-143h209v-75h-209v-281c0 -26.667 3.83301 -48.667 11.5 -66s20.167 -30.166 37.5 -38.499s39.666 -12.5 66.999 -12.5c17.333 0 36 1.66699 56 5
s37.333 6.66602 52 9.99902v-72c-16 -4 -33.667 -7.66699 -53 -11s-39.666 -5 -60.999 -5z" />
    <glyph glyph-name="Tbar" unicode="&#x166;" 
d="M107 325v74h387v-74h-387zM255 0v634h-210v80h510v-80h-210v-634h-90z" />
    <glyph glyph-name="tbar" unicode="&#x167;" 
d="M56 280v66h460v-66h-460zM402 -10c-38 0 -72 5 -102 15s-53.833 27.667 -71.5 53s-26.5 60.333 -26.5 105v298h-146v62l146 16l18 140h72v-143h209v-75h-209v-281c0 -26.667 3.83301 -48.667 11.5 -66s20.167 -30.166 37.5 -38.499s39.666 -12.5 66.999 -12.5
c17.333 0 36 1.66699 56 5s37.333 6.66602 52 9.99902v-72c-16 -4 -33.667 -7.66699 -53 -11s-39.666 -5 -60.999 -5z" />
    <glyph glyph-name="Utilde" unicode="&#x168;" 
d="M298 -10c-54.667 0 -98.8311 10.833 -132.498 32.5s-58 52.334 -73 92.001s-22.5 86.167 -22.5 139.5v460h90v-455c0 -37.333 4.16699 -70.333 12.5 -99s22.666 -50.834 42.999 -66.501s48.5 -23.5 84.5 -23.5c38 0 67.167 8.33301 87.5 25s34.166 39.5 41.499 68.5
s11 61.167 11 96.5v454h90v-462c0 -49.333 -7.33301 -93.833 -22 -133.5s-39 -71 -73 -94s-79.667 -34.5 -137 -34.5zM120.003 784c2 20 5.83398 37.833 11.501 53.5s13.167 29 22.5 40s20.333 19.5 33 25.5s27 9 43 9c14 0 27.5 -2.83301 40.5 -8.5
s25.5 -12.334 37.5 -20.001s23.5 -14.334 34.5 -20.001s21.833 -8.5 32.5 -8.5c15.333 0 27.166 4.83301 35.499 14.5s14.833 24.167 19.5 43.5h50c-4 -38.667 -15.333 -69.667 -34 -93s-43.667 -35 -75 -35c-14 0 -27.333 2.83301 -40 8.5s-24.834 12.334 -36.501 20.001
s-23.167 14.334 -34.5 20.001s-22.666 8.5 -33.999 8.5c-16 0 -28 -4.83301 -36 -14.5s-14.333 -24.167 -19 -43.5h-51z" />
    <glyph glyph-name="utilde" unicode="&#x169;" 
d="M261 -10c-63.333 0 -110.164 15.833 -140.497 47.5s-45.5 78.834 -45.5 141.501v357h90v-343c0 -42.667 8.83301 -75 26.5 -97s48.167 -33 91.5 -33c37.333 0 66.666 7.83301 87.999 23.5s36.5 38.167 45.5 67.5s13.5 64.666 13.5 105.999v276h90v-536h-72l-13 72h-5
c-12.667 -20 -27.334 -36 -44.001 -48s-35.334 -20.667 -56.001 -26s-43.667 -8 -69 -8zM120.002 606c2 20 5.83398 37.833 11.501 53.5s13.167 29 22.5 40s20.333 19.5 33 25.5s27 9 43 9c14 0 27.5 -2.83301 40.5 -8.5s25.5 -12.334 37.5 -20.001
s23.5 -14.334 34.5 -20.001s21.833 -8.5 32.5 -8.5c15.333 0 27.166 4.83301 35.499 14.5s14.833 24.167 19.5 43.5h50c-4 -38.667 -15.333 -69.667 -34 -93s-43.667 -35 -75 -35c-14 0 -27.333 2.83301 -40 8.5s-24.834 12.334 -36.501 20.001s-23.167 14.334 -34.5 20.001
s-22.666 8.5 -33.999 8.5c-16 0 -28 -4.83301 -36 -14.5s-14.333 -24.167 -19 -43.5h-51z" />
    <glyph glyph-name="Umacron" unicode="&#x16a;" 
d="M298 -10c-54.667 0 -98.8311 10.833 -132.498 32.5s-58 52.334 -73 92.001s-22.5 86.167 -22.5 139.5v460h90v-455c0 -37.333 4.16699 -70.333 12.5 -99s22.666 -50.834 42.999 -66.501s48.5 -23.5 84.5 -23.5c38 0 67.167 8.33301 87.5 25s34.166 39.5 41.499 68.5
s11 61.167 11 96.5v454h90v-462c0 -49.333 -7.33301 -93.833 -22 -133.5s-39 -71 -73 -94s-79.667 -34.5 -137 -34.5zM151.003 796v71h297v-71h-297z" />
    <glyph glyph-name="umacron" unicode="&#x16b;" 
d="M261 -10c-63.333 0 -110.164 15.833 -140.497 47.5s-45.5 78.834 -45.5 141.501v357h90v-343c0 -42.667 8.83301 -75 26.5 -97s48.167 -33 91.5 -33c37.333 0 66.666 7.83301 87.999 23.5s36.5 38.167 45.5 67.5s13.5 64.666 13.5 105.999v276h90v-536h-72l-13 72h-5
c-12.667 -20 -27.334 -36 -44.001 -48s-35.334 -20.667 -56.001 -26s-43.667 -8 -69 -8zM151.002 618v71h297v-71h-297z" />
    <glyph glyph-name="Ubreve" unicode="&#x16c;" 
d="M298 -10c-54.667 0 -98.8311 10.833 -132.498 32.5s-58 52.334 -73 92.001s-22.5 86.167 -22.5 139.5v460h90v-455c0 -37.333 4.16699 -70.333 12.5 -99s22.666 -50.834 42.999 -66.501s48.5 -23.5 84.5 -23.5c38 0 67.167 8.33301 87.5 25s34.166 39.5 41.499 68.5
s11 61.167 11 96.5v454h90v-462c0 -49.333 -7.33301 -93.833 -22 -133.5s-39 -71 -73 -94s-79.667 -34.5 -137 -34.5zM296.003 784c-47.333 0 -84.166 12.667 -110.499 38s-40.166 57.333 -41.499 96h58c4.66699 -20 12.167 -35 22.5 -45s22.166 -16.833 35.499 -20.5
s26.333 -5.5 39 -5.5c20.667 0 40.5 4.5 59.5 13.5s31.5 28.167 37.5 57.5h59c-0.666992 -38.667 -14.834 -70.667 -42.501 -96s-66.5 -38 -116.5 -38z" />
    <glyph glyph-name="ubreve" unicode="&#x16d;" 
d="M261 -10c-63.333 0 -110.164 15.833 -140.497 47.5s-45.5 78.834 -45.5 141.501v357h90v-343c0 -42.667 8.83301 -75 26.5 -97s48.167 -33 91.5 -33c37.333 0 66.666 7.83301 87.999 23.5s36.5 38.167 45.5 67.5s13.5 64.666 13.5 105.999v276h90v-536h-72l-13 72h-5
c-12.667 -20 -27.334 -36 -44.001 -48s-35.334 -20.667 -56.001 -26s-43.667 -8 -69 -8zM296.002 606c-47.333 0 -84.166 12.667 -110.499 38s-40.166 57.333 -41.499 96h58c4.66699 -20 12.167 -35 22.5 -45s22.166 -16.833 35.499 -20.5s26.333 -5.5 39 -5.5
c20.667 0 40.5 4.5 59.5 13.5s31.5 28.167 37.5 57.5h59c-0.666992 -38.667 -14.834 -70.667 -42.501 -96s-66.5 -38 -116.5 -38z" />
    <glyph glyph-name="Uring" unicode="&#x16e;" 
d="M298 -10c-54.667 0 -98.8311 10.833 -132.498 32.5s-58 52.334 -73 92.001s-22.5 86.167 -22.5 139.5v460h90v-455c0 -37.333 4.16699 -70.333 12.5 -99s22.666 -50.834 42.999 -66.501s48.5 -23.5 84.5 -23.5c38 0 67.167 8.33301 87.5 25s34.166 39.5 41.499 68.5
s11 61.167 11 96.5v454h90v-462c0 -49.333 -7.33301 -93.833 -22 -133.5s-39 -71 -73 -94s-79.667 -34.5 -137 -34.5zM299.003 784c-32.667 0 -58.999 9.33398 -78.999 28.001s-30 44.667 -30 78s10 59.166 30 77.499s46.333 27.5 79 27.5
c31.333 0 57.666 -9.16699 78.999 -27.5s32 -43.833 32 -76.5c0 -34 -10.5 -60.333 -31.5 -79s-47.5 -28 -79.5 -28zM299.004 836.001c16 0 28.999 4.83301 38.999 14.5s15 22.834 15 39.501c0 17.333 -5.16699 30.666 -15.5 39.999s-23.166 14 -38.499 14
c-14.667 0 -27.167 -4.66699 -37.5 -14s-15.5 -22.666 -15.5 -39.999c0 -16.667 5 -29.834 15 -39.501s22.667 -14.5 38 -14.5z" />
    <glyph glyph-name="uring" unicode="&#x16f;" 
d="M261 -10c-63.333 0 -110.164 15.833 -140.497 47.5s-45.5 78.834 -45.5 141.501v357h90v-343c0 -42.667 8.83301 -75 26.5 -97s48.167 -33 91.5 -33c37.333 0 66.666 7.83301 87.999 23.5s36.5 38.167 45.5 67.5s13.5 64.666 13.5 105.999v276h90v-536h-72l-13 72h-5
c-12.667 -20 -27.334 -36 -44.001 -48s-35.334 -20.667 -56.001 -26s-43.667 -8 -69 -8zM299.002 606c-32.667 0 -58.999 9.33398 -78.999 28.001s-30 44.667 -30 78s10 59.166 30 77.499s46.333 27.5 79 27.5c31.333 0 57.666 -9.16699 78.999 -27.5s32 -43.833 32 -76.5
c0 -34 -10.5 -60.333 -31.5 -79s-47.5 -28 -79.5 -28zM299.003 658.001c16 0 28.999 4.83301 38.999 14.5s15 22.834 15 39.501c0 17.333 -5.16699 30.666 -15.5 39.999s-23.166 14 -38.499 14c-14.667 0 -27.167 -4.66699 -37.5 -14s-15.5 -22.666 -15.5 -39.999
c0 -16.667 5 -29.834 15 -39.501s22.667 -14.5 38 -14.5z" />
    <glyph glyph-name="Uhungarumlaut" unicode="&#x170;" 
d="M298 -10c-54.667 0 -98.8311 10.833 -132.498 32.5s-58 52.334 -73 92.001s-22.5 86.167 -22.5 139.5v460h90v-455c0 -37.333 4.16699 -70.333 12.5 -99s22.666 -50.834 42.999 -66.501s48.5 -23.5 84.5 -23.5c38 0 67.167 8.33301 87.5 25s34.166 39.5 41.499 68.5
s11 61.167 11 96.5v454h90v-462c0 -49.333 -7.33301 -93.833 -22 -133.5s-39 -71 -73 -94s-79.667 -34.5 -137 -34.5zM316.003 796c9.33301 12.667 19.333 27.667 30 45s21.167 35.166 31.5 53.499s18.833 34.833 25.5 49.5h96v-10
c-6.66699 -11.333 -17.667 -26.666 -33 -45.999s-32 -38.5 -50 -57.5s-34.667 -34.5 -50 -46.5h-50v12zM140.003 796c9.33301 12.667 19.333 27.667 30 45s21 35.166 31 53.499s18.667 34.833 26 49.5h96v-10c-6.66699 -11.333 -17.667 -26.666 -33 -45.999
s-32 -38.5 -50 -57.5s-34.667 -34.5 -50 -46.5h-50v12z" />
    <glyph glyph-name="uhungarumlaut" unicode="&#x171;" 
d="M261 -10c-63.333 0 -110.164 15.833 -140.497 47.5s-45.5 78.834 -45.5 141.501v357h90v-343c0 -42.667 8.83301 -75 26.5 -97s48.167 -33 91.5 -33c37.333 0 66.666 7.83301 87.999 23.5s36.5 38.167 45.5 67.5s13.5 64.666 13.5 105.999v276h90v-536h-72l-13 72h-5
c-12.667 -20 -27.334 -36 -44.001 -48s-35.334 -20.667 -56.001 -26s-43.667 -8 -69 -8zM316.002 618c9.33301 12.667 19.333 27.667 30 45s21.167 35.166 31.5 53.499s18.833 34.833 25.5 49.5h96v-10c-6.66699 -11.333 -17.667 -26.666 -33 -45.999s-32 -38.5 -50 -57.5
s-34.667 -34.5 -50 -46.5h-50v12zM140.002 618c9.33301 12.667 19.333 27.667 30 45s21 35.166 31 53.499s18.667 34.833 26 49.5h96v-10c-6.66699 -11.333 -17.667 -26.666 -33 -45.999s-32 -38.5 -50 -57.5s-34.667 -34.5 -50 -46.5h-50v12z" />
    <glyph glyph-name="Uogonek" unicode="&#x172;" 
d="M337 -220c-36 0 -62.3359 9.33301 -79.0029 28s-25 42.334 -25 71.001c0 24.667 7 46.334 21 65.001s31.333 35 52 49s40.334 26 59.001 36l50 -15c-23.333 -14 -43.166 -27.667 -59.499 -41s-28.833 -27 -37.5 -41s-13 -29 -13 -45
c0 -16.667 4.33301 -28.834 13 -36.501s21.334 -11.5 38.001 -11.5c7.33301 0 14.833 0.5 22.5 1.5s14.167 2.5 19.5 4.5v-56c-9.33301 -2.66699 -18.833 -4.83398 -28.5 -6.50098s-20.5 -2.5 -32.5 -2.5zM297.997 -10c-54.667 0 -98.8311 10.833 -132.498 32.5
s-58 52.334 -73 92.001s-22.5 86.167 -22.5 139.5v460h90v-455c0 -37.333 4.16699 -70.333 12.5 -99s22.666 -50.834 42.999 -66.501s48.5 -23.5 84.5 -23.5c38 0 67.167 8.33301 87.5 25s34.166 39.5 41.499 68.5s11 61.167 11 96.5v454h90v-462
c0 -49.333 -7.33301 -93.833 -22 -133.5s-39 -71 -73 -94s-79.667 -34.5 -137 -34.5z" />
    <glyph glyph-name="uogonek" unicode="&#x173;" 
d="M261 -10c-63.333 0 -110.164 15.833 -140.497 47.5s-45.5 78.834 -45.5 141.501v357h90v-343c0 -42.667 8.83301 -75 26.5 -97s48.167 -33 91.5 -33c37.333 0 66.666 7.83301 87.999 23.5s36.5 38.167 45.5 67.5s13.5 64.666 13.5 105.999v276h90v-536h-72l-13 72h-5
c-12.667 -20 -27.334 -36 -44.001 -48s-35.334 -20.667 -56.001 -26s-43.667 -8 -69 -8zM479.002 -220c-36 0 -62.333 8.33496 -79 25.002s-25 38 -25 64c0 22 4.83301 42.167 14.5 60.5s21.667 34.666 36 48.999s28.166 26.5 41.499 36.5l48 -15
c-22 -20.667 -38.833 -40 -50.5 -58s-17.5 -37 -17.5 -57c0 -16.667 4.33301 -28.5 13 -35.5s21.334 -10.5 38.001 -10.5c7.33301 0 14.833 0.5 22.5 1.5s14.167 2.5 19.5 4.5v-56c-9.33301 -2.66699 -18.833 -4.83398 -28.5 -6.50098s-20.5 -2.5 -32.5 -2.5z" />
    <glyph glyph-name="Wcircumflex" unicode="&#x174;" 
d="M105 0l-80 713.992h83c2.66699 -26 5.16699 -52.167 7.5 -78.5s4.83301 -52.666 7.5 -78.999s5.16699 -52.666 7.5 -78.999s4.83301 -52.5 7.5 -78.5c2 -20.667 4 -42.667 6 -66s3.83301 -46.833 5.5 -70.5s3.16699 -46.167 4.5 -67.5s2.5 -40.5 3.5 -57.5
s1.5 -30.167 1.5 -39.5h2c2 11.333 4.66699 25.5 8 42.5s7 35.167 11 54.5s8.16699 38.5 12.5 57.5s8.16602 36.167 11.499 51.5l54 232h86l56 -234c4 -17.333 8.33301 -35.5 13 -54.5s9 -37.667 13 -56s7.5 -35.666 10.5 -51.999s5.5 -30.166 7.5 -41.499h2
c0.666992 9.33301 1.33398 21.833 2.00098 37.5s1.5 33.334 2.5 53.001s2.16699 41.167 3.5 64.5s3 47.5 5 72.5s4 50.5 6 76.5c2 20.667 3.83301 41.5 5.5 62.5s3.5 41.833 5.5 62.5s3.83301 41.334 5.5 62.001s3.33398 41.5 5.00098 62.5s3.5 41.833 5.5 62.5h83l-72 -714
h-97l-79 328c-4.66699 20 -8.66699 38.167 -12 54.5s-6 30.333 -8 42s-3.66699 20.167 -5 25.5h-2c-0.666992 -5.33301 -1.83398 -13.666 -3.50098 -24.999s-4.16699 -25.166 -7.5 -41.499s-7.33301 -34.833 -12 -55.5l-76 -328h-96zM131 794.992
c12.667 13.333 26.8311 28.6689 42.498 46.002s30.834 35.166 45.501 53.499s26.334 34.833 35.001 49.5h90c8 -14.667 19.5 -31.167 34.5 -49.5s30.667 -36.333 47 -54s30.833 -32.834 43.5 -45.501v-11h-62c-17.333 10.667 -35.333 25 -54 43s-37 36 -55 54
c-18 -18 -36 -35.833 -54 -53.5s-35.667 -32.167 -53 -43.5h-60v11z" />
    <glyph glyph-name="wcircumflex" unicode="&#x175;" 
d="M102 0l-86 536h84l39 -265c4 -24.667 6.83301 -46.667 8.5 -66s3.33398 -39 5.00098 -59s3.16699 -43.667 4.5 -71h3c2 11.333 4.83301 27.166 8.5 47.499s8 42.333 13 66s10.5 45.5 16.5 65.5l52 181h99l50 -181c6 -20 11.667 -41.5 17 -64.5s10.166 -44.667 14.499 -65
s7.16602 -36.833 8.49902 -49.5h3c2 26.667 3.66699 49.834 5 69.501s3 39.167 5 58.5s5 42 9 68l42 265h82l-88 -536h-108l-48 188c-6.66699 27.333 -13.667 54.666 -21 81.999s-13.666 54.333 -18.999 81h-3c-5.33301 -26.667 -11.833 -53.667 -19.5 -81
s-15.167 -54.666 -22.5 -81.999l-49 -188h-105zM132 617c12.667 13.333 26.8311 28.6689 42.498 46.002s30.834 35.166 45.501 53.499s26.334 34.833 35.001 49.5h90c8 -14.667 19.5 -31.167 34.5 -49.5s30.667 -36.333 47 -54s30.833 -32.834 43.5 -45.501v-11h-62
c-17.333 10.667 -35.333 25 -54 43s-37 36 -55 54c-18 -18 -36 -35.833 -54 -53.5s-35.667 -32.167 -53 -43.5h-60v11z" />
    <glyph glyph-name="Ycircumflex" unicode="&#x176;" 
d="M257 0v278l-222 436h99l167 -361l168 361h96l-222 -436v-278h-86zM131 795c12.667 13.333 26.8311 28.6689 42.498 46.002s30.834 35.166 45.501 53.499s26.334 34.833 35.001 49.5h90c8 -14.667 19.5 -31.167 34.5 -49.5s30.667 -36.333 47 -54
s30.833 -32.834 43.5 -45.501v-11h-62c-17.333 10.667 -35.333 25 -54 43s-37 36 -55 54c-18 -18 -36 -35.833 -54 -53.5s-35.667 -32.167 -53 -43.5h-60v11z" />
    <glyph glyph-name="ycircumflex" unicode="&#x177;" 
d="M136 -245c-13.333 0 -26.333 0.831055 -39 2.49805s-23.667 3.5 -33 5.5v69c8 -1.33301 17.5 -2.66602 28.5 -3.99902s21.833 -2 32.5 -2c20.667 0 37.834 3.33301 51.501 10s25.667 17 36 31s19.833 32.333 28.5 55l29 73l-225 541h88l128 -315
c8.66699 -20.667 17.167 -43.667 25.5 -69s15.833 -49.666 22.5 -72.999h3c4.66699 16.667 9.66699 33.167 15 49.5s10.5 32.5 15.5 48.5s9.83301 31 14.5 45l105 314h92l-225 -606c-12.667 -34.667 -26.5 -65.167 -41.5 -91.5s-34.333 -46.833 -58 -61.5
s-54.834 -22 -93.501 -22zM131 616.998c12.667 13.333 26.8311 28.6689 42.498 46.002s30.834 35.166 45.501 53.499s26.334 34.833 35.001 49.5h90c8 -14.667 19.5 -31.167 34.5 -49.5s30.667 -36.333 47 -54s30.833 -32.834 43.5 -45.501v-11h-62
c-17.333 10.667 -35.333 25 -54 43s-37 36 -55 54c-18 -18 -36 -35.833 -54 -53.5s-35.667 -32.167 -53 -43.5h-60v11z" />
    <glyph glyph-name="Zacute" unicode="&#x179;" 
d="M95 0v71l317 565h-297v78h390v-71l-313 -563h313v-80h-410zM271 796c10 12.667 20.834 27.668 32.501 45.001s23.167 35.166 34.5 53.499s20.666 34.833 27.999 49.5h106v-10c-8 -12 -20.333 -27.5 -37 -46.5s-34.5 -38 -53.5 -57s-36.5 -34.5 -52.5 -46.5h-58v12z" />
    <glyph glyph-name="zacute" unicode="&#x17a;" 
d="M90 0v61l315 406h-299v69h396v-71l-305 -389h313v-76h-420zM269 618c10 12.667 20.834 27.668 32.501 45.001s23.167 35.166 34.5 53.499s20.666 34.833 27.999 49.5h106v-10c-8 -12 -20.333 -27.5 -37 -46.5s-34.5 -38 -53.5 -57s-36.5 -34.5 -52.5 -46.5h-58v12z" />
    <glyph glyph-name="Zdotaccent" unicode="&#x17b;" 
d="M95 0v71l317 565h-297v78h390v-71l-313 -563h313v-80h-410zM311 811c-17.333 0 -32.166 5.33301 -44.499 16s-18.5 26.334 -18.5 47.001c0 22 6.16699 38.167 18.5 48.5s27.166 15.5 44.499 15.5s32.166 -5.16699 44.499 -15.5s18.5 -26.5 18.5 -48.5
c0 -20.667 -6.16699 -36.334 -18.5 -47.001s-27.166 -16 -44.499 -16z" />
    <glyph glyph-name="zdotaccent" unicode="&#x17c;" 
d="M90 0v61l315 406h-299v69h396v-71l-305 -389h313v-76h-420zM309 633c-17.333 0 -32.166 5.33301 -44.499 16s-18.5 26.334 -18.5 47.001c0 22 6.16699 38.167 18.5 48.5s27.166 15.5 44.499 15.5s32.166 -5.16699 44.499 -15.5s18.5 -26.5 18.5 -48.5
c0 -20.667 -6.16699 -36.334 -18.5 -47.001s-27.166 -16 -44.499 -16z" />
    <glyph glyph-name="longs" unicode="&#x17f;" 
d="M221 577c0 46 8.49902 82.6689 25.499 110.002s40.833 47.166 71.5 59.499s66.334 18.5 107.001 18.5c25.333 0 49 -1.83301 71 -5.5s39.333 -8.16699 52 -13.5l-23 -69c-10.667 3.33301 -25.5 6.66602 -44.5 9.99902s-37.833 5 -56.5 5c-36.667 0 -65 -9.33301 -85 -28
s-30 -52.667 -30 -102v-562h-88v577z" />
    <glyph glyph-name="florin" unicode="&#x192;" 
d="M200 -241c-46.667 0 -82.332 13.001 -106.999 39.001s-37 58.333 -37 97c0 9.33301 0.666992 18.166 2 26.499s3 15.833 5 22.5l88 -20c-0.666992 -4 -1.5 -8.5 -2.5 -13.5s-1.5 -10.167 -1.5 -15.5c0 -19.333 5 -34.333 15 -45s23.333 -16 40 -16
c20 0 34.833 7.83301 44.5 23.5s14.5 37.834 14.5 66.501v537h-165v62l165 13v61c0 42.667 7.66699 76.167 23 100.5s37 41.666 65 51.999s60.333 15.5 97 15.5c27.333 0 51.166 -2 71.499 -6s37.833 -8.66699 52.5 -14l-20 -69c-12.667 4 -28 7.5 -46 10.5
s-35.667 4.5 -53 4.5c-32 0 -56.667 -7.33301 -74 -22s-26 -42.667 -26 -84v-49h182v-75h-182v-538c0 -31.333 -5.16699 -59.5 -15.5 -84.5s-26.5 -44.5 -48.5 -58.5s-51 -21 -87 -21z" />
    <glyph glyph-name="Aringacute" unicode="&#x1fa;" 
d="M20 0l232.002 717h95l233 -717h-92l-159 512c-2 8 -4.83301 17.833 -8.5 29.5s-7.33398 24.667 -11.001 39s-7.16699 28.166 -10.5 41.499c-2.66699 -13.333 -5.83398 -27.166 -9.50098 -41.499s-7.16699 -27.5 -10.5 -39.5s-6.33301 -21.667 -9 -29l-159 -512h-91z
M154.002 219l30 80h227l26 -80h-283zM299.002 666c-32.667 0 -58.999 9.33398 -78.999 28.001s-30 44.667 -30 78s10 59.166 30 77.499s46.333 27.5 79 27.5c31.333 0 57.666 -9.16699 78.999 -27.5s32 -43.833 32 -76.5c0 -34 -10.5 -60.333 -31.5 -79s-47.5 -28 -79.5 -28
zM299.003 718.001c16 0 28.999 4.83301 38.999 14.5s15 22.834 15 39.501c0 17.333 -5.16699 30.666 -15.5 39.999s-23.166 14 -38.499 14c-14.667 0 -27.167 -4.66699 -37.5 -14s-15.5 -22.666 -15.5 -39.999c0 -16.667 5 -29.834 15 -39.501s22.667 -14.5 38 -14.5z
M259.002 927.001c10 12.667 20.834 27.668 32.501 45.001s23.167 35.166 34.5 53.499s20.666 34.833 27.999 49.5h106v-10c-8 -12 -20.333 -27.5 -37 -46.5s-34.5 -38 -53.5 -57s-36.5 -34.5 -52.5 -46.5h-58v12z" />
    <glyph glyph-name="aringacute" unicode="&#x1fb;" 
d="M246 -10c-52.667 0 -95.165 12.9971 -127.498 38.9971s-48.5 65.333 -48.5 118c0 38.667 9.33301 70.834 28 96.501s46.167 45 82.5 58s80.5 20.167 132.5 21.5l115 3v22c0 48 -12 80.833 -36 98.5s-56.333 26.5 -97 26.5c-28.667 0 -56 -3.66699 -82 -11
s-50.667 -17.666 -74 -30.999l-31 68c25.333 12.667 53.5 23.667 84.5 33s66.833 14 107.5 14c67.333 0 119.166 -15.167 155.499 -45.5s54.5 -77.5 54.5 -141.5v-359h-72l-10 74h-4c-14.667 -18.667 -30.834 -34.167 -48.501 -46.5s-37.167 -21.666 -58.5 -27.999
s-45 -9.5 -71 -9.5zM261.002 62.9971c30 0 57.668 5.50098 83.001 16.501s45.666 27.667 60.999 50s23 50.5 23 84.5v48l-96 -3c-42.667 -1.33301 -77 -6.5 -103 -15.5s-44.833 -21.333 -56.5 -37s-17.5 -34.5 -17.5 -56.5c0 -30.667 9.66699 -52.834 29 -66.501
s45 -20.5 77 -20.5zM304.003 605.998c-32.667 0 -58.999 9.33398 -78.999 28.001s-30 44.667 -30 78s10 59.166 30 77.499s46.333 27.5 79 27.5c31.333 0 57.666 -9.16699 78.999 -27.5s32 -43.833 32 -76.5c0 -34 -10.5 -60.333 -31.5 -79s-47.5 -28 -79.5 -28z
M304.004 657.999c16 0 28.999 4.83301 38.999 14.5s15 22.834 15 39.501c0 17.333 -5.16699 30.666 -15.5 39.999s-23.166 14 -38.499 14c-14.667 0 -27.167 -4.66699 -37.5 -14s-15.5 -22.666 -15.5 -39.999c0 -16.667 5 -29.834 15 -39.501s22.667 -14.5 38 -14.5z
M264.003 898.999c10 12.667 20.834 27.668 32.501 45.001s23.167 35.166 34.5 53.499s20.666 34.833 27.999 49.5h106v-10c-8 -12 -20.333 -27.5 -37 -46.5s-34.5 -38 -53.5 -57s-36.5 -34.5 -52.5 -46.5h-58v12z" />
    </font>
</defs>
</svg>
